<?xml version="1.0" standalone="no"?>
<!DOCTYPE svg PUBLIC "-//W3C//DTD SVG 1.1//EN" "http://www.w3.org/Graphics/SVG/1.1/DTD/svg11.dtd" >
<svg>
<metadata>
Created by FontForge 20120731 at Thu Jan 18 20:19:18 2018
 By www-data
Copyright (c) 2016 by Websima.com, All rights reserved.
</metadata>
<defs>
<font id="WebsimaRohanRound-Regular" horiz-adv-x="556" >
  <font-face 
    font-family="Websima Rohan Round"
    font-weight="400"
    font-stretch="normal"
    units-per-em="1000"
    panose-1="2 11 6 4 2 2 2 2 2 4"
    ascent="800"
    descent="-200"
    x-height="517"
    cap-height="714"
    bbox="-189.281 -453.381 1354 1365"
    underline-thickness="50"
    underline-position="-50"
    unicode-range="U+000D-FEFC"
  />
<missing-glyph horiz-adv-x="278" 
 />
    <glyph glyph-name="uniFEFB" unicode="&#xfedf;&#xfe8e;" horiz-adv-x="677" arabic-form="isolated" 
d="M534.5 705q9.5 9 25.5 9h12q17 0 26 -9t9 -26v-644q0 -16 -9 -25.5t-26 -9.5h-498q-16 0 -25.5 9.5t-9.5 25.5v13q0 17 9.5 26t25.5 9h190v546q0 17 9.5 26t25.5 9h12q17 0 26 -9t9 -26v-546h179v596q0 17 9.5 26z" />
    <glyph glyph-name="uniFEFC" unicode="&#xfee0;&#xfe8e;" horiz-adv-x="671" arabic-form="final" 
d="M427 83q40 0 56 12q20 17 20 61v523q0 17 9.5 26t25.5 9h12q17 0 26 -9t9 -26v-486q0 -53 21 -81.5t65 -28.5q40 0 40 -40q0 -24 -9 -33.5t-31 -9.5q-37 0 -61 18t-33 47q-17 -39 -54 -52t-105 -13h-344q-16 0 -25.5 9.5t-9.5 25.5v13q0 17 9.5 26t25.5 9h191v526
q0 17 9.5 26t25.5 9h12q17 0 26 -9t9 -26v-526h80z" />
    <glyph glyph-name="uniFEF5" unicode="&#xfedf;&#xfe82;" horiz-adv-x="677" arabic-form="isolated" 
d="M534.5 705q9.5 9 25.5 9h12q17 0 26 -9t9 -26v-644q0 -16 -9 -25.5t-26 -9.5h-498q-16 0 -25.5 9.5t-9.5 25.5v13q0 17 9.5 26t25.5 9h190v546q0 17 9.5 26t25.5 9h12q17 0 26 -9t9 -26v-546h179v596q0 17 9.5 26zM155 734q-15 0 -26 17q-2 2 4.5 10t19.5 16q25 15 57 15
q18 0 43.5 -8.5t51.5 -20.5q55 -26 85 -26q25 0 41 16q17 17 31 17q7 0 15 -3q1 -1 -2 -10t-10 -23q-12 -24 -29.5 -35.5t-45.5 -11.5q-25 0 -48 7.5t-51 20.5q-56 27 -89 27q-18 0 -29 -4q-9 -4 -18 -4z" />
    <glyph glyph-name="uniFEF6" unicode="&#xfee0;&#xfe82;" horiz-adv-x="671" arabic-form="final" 
d="M427 83q40 0 56 12q20 17 20 61v523q0 17 9.5 26t25.5 9h12q17 0 26 -9t9 -26v-486q0 -53 21 -81.5t65 -28.5q40 0 40 -40q0 -24 -9 -33.5t-31 -9.5q-37 0 -61 18t-33 47q-17 -39 -54 -52t-105 -13h-344q-16 0 -25.5 9.5t-9.5 25.5v13q0 17 9.5 26t25.5 9h191v526
q0 17 9.5 26t25.5 9h12q17 0 26 -9t9 -26v-526h80zM155 714q-15 0 -26 17q-2 2 4.5 10t19.5 16q25 15 57 15q18 0 43.5 -8.5t51.5 -20.5q55 -26 85 -26q25 0 41 16q17 17 31 17q7 0 15 -3q1 -1 -2 -10t-10 -23q-12 -24 -29.5 -35.5t-45.5 -11.5q-25 0 -48 7.5t-51 20.5
q-56 27 -89 27q-18 0 -29 -4q-9 -4 -18 -4z" />
    <glyph glyph-name="uniFEF7" unicode="&#xfedf;&#xfe84;" horiz-adv-x="677" arabic-form="isolated" 
d="M534.5 705q9.5 9 25.5 9h12q17 0 26 -9t9 -26v-644q0 -16 -9 -25.5t-26 -9.5h-498q-16 0 -25.5 9.5t-9.5 25.5v13q0 17 9.5 26t25.5 9h190v546q0 17 9.5 26t25.5 9h12q17 0 26 -9t9 -26v-546h179v596q0 17 9.5 26zM373.5 722q7.5 -9 7.5 -26q0 -5 -9.5 -7.5t-25.5 -2.5
h-113q-17 0 -26 9.5t-9 25.5q0 5 9.5 7.5t25.5 2.5h10q-14 23 -14 51q0 42 25 65.5t60 23.5q15 0 21 -1q27 -3 27 -37q0 -11 -12 -11q-6 0 -9 1q-14 2 -22 2q-23 0 -34.5 -13t-11.5 -32q0 -21 13.5 -35t38.5 -14h28q13 0 20.5 -9z" />
    <glyph glyph-name="uniFEF8" unicode="&#xfee0;&#xfe84;" horiz-adv-x="671" arabic-form="final" 
d="M427 83q40 0 56 12q20 17 20 61v523q0 17 9.5 26t25.5 9h12q17 0 26 -9t9 -26v-486q0 -53 21 -81.5t65 -28.5q40 0 40 -40q0 -24 -9 -33.5t-31 -9.5q-37 0 -61 18t-33 47q-17 -39 -54 -52t-105 -13h-344q-16 0 -25.5 9.5t-9.5 25.5v13q0 17 9.5 26t25.5 9h191v526
q0 17 9.5 26t25.5 9h12q17 0 26 -9t9 -26v-526h80zM373.5 712q7.5 -9 7.5 -26q0 -5 -9.5 -7.5t-25.5 -2.5h-113q-17 0 -26 9.5t-9 25.5q0 5 9.5 7.5t25.5 2.5h10q-14 23 -14 51q0 42 25 65.5t60 23.5q15 0 21 -1q27 -3 27 -37q0 -11 -12 -11q-6 0 -9 1q-14 2 -22 2
q-23 0 -34.5 -13t-11.5 -32q0 -21 13.5 -35t38.5 -14h28q13 0 20.5 -9z" />
    <glyph glyph-name="uniFEF9" unicode="&#xfedf;&#xfe88;" horiz-adv-x="677" arabic-form="isolated" 
d="M534.5 705q9.5 9 25.5 9h12q17 0 26 -9t9 -26v-644q0 -16 -9 -25.5t-26 -9.5h-498q-16 0 -25.5 9.5t-9.5 25.5v13q0 17 9.5 26t25.5 9h190v546q0 17 9.5 26t25.5 9h12q17 0 26 -9t9 -26v-546h179v596q0 17 9.5 26zM389.5 -212q7.5 -9 7.5 -26q0 -11 -35 -11h-113
q-17 0 -26 9t-9 26q0 11 35 11h10q-14 23 -14 50q0 43 25 66.5t60 23.5q15 0 21 -1q27 -3 27 -37q0 -12 -12 -12q-6 0 -9 1q-14 2 -22 2q-23 0 -34.5 -13t-11.5 -32q0 -21 13.5 -34.5t38.5 -13.5h28q13 0 20.5 -9z" />
    <glyph glyph-name="uniFEFA" unicode="&#xfee0;&#xfe88;" horiz-adv-x="671" arabic-form="final" 
d="M427 83q40 0 56 12q20 17 20 61v523q0 17 9.5 26t25.5 9h12q17 0 26 -9t9 -26v-486q0 -53 21 -81.5t65 -28.5q40 0 40 -40q0 -24 -9 -33.5t-31 -9.5q-37 0 -61 18t-33 47q-17 -39 -54 -52t-105 -13h-344q-16 0 -25.5 9.5t-9.5 25.5v13q0 17 9.5 26t25.5 9h191v526
q0 17 9.5 26t25.5 9h12q17 0 26 -9t9 -26v-526h80zM389.5 -212q7.5 -9 7.5 -26q0 -11 -35 -11h-113q-17 0 -26 9t-9 26q0 11 35 11h10q-14 23 -14 50q0 43 25 66.5t60 23.5q15 0 21 -1q27 -3 27 -37q0 -12 -12 -12q-6 0 -9 1q-14 2 -22 2q-23 0 -34.5 -13t-11.5 -32
q0 -21 13.5 -34.5t38.5 -13.5h28q13 0 20.5 -9z" />
    <glyph glyph-name="uni06440671" unicode="&#xfedf;&#xfb51;" horiz-adv-x="677" 
d="M534.5 705q9.5 9 25.5 9h12q17 0 26 -9t9 -26v-644q0 -16 -9 -25.5t-26 -9.5h-498q-16 0 -25.5 9.5t-9.5 25.5v13q0 17 9.5 26t25.5 9h190v546q0 17 9.5 26t25.5 9h12q17 0 26 -9t9 -26v-546h179v596q0 17 9.5 26zM377 725v14q0 42 -37 42q-21 0 -40 -16t-27 -40h104z
M272 773q30 42 73 42q29 0 45.5 -18.5t16.5 -51.5v-18q0 -16 -9 -25.5t-26 -9.5h-133h-7q-15 3 -15 13q0 7 7 13.5t16 6.5v45q0 16 4 25.5t12 9.5q16 0 16 -32z" />
    <glyph glyph-name="uni06440671.fina" unicode="&#xfee0;&#xfb51;" horiz-adv-x="671" 
d="M427 83q40 0 56 12q20 17 20 61v523q0 17 9.5 26t25.5 9h12q17 0 26 -9t9 -26v-486q0 -53 21 -81.5t65 -28.5q40 0 40 -40q0 -24 -9 -33.5t-31 -9.5q-37 0 -61 18t-33 47q-17 -39 -54 -52t-105 -13h-344q-16 0 -25.5 9.5t-9.5 25.5v13q0 17 9.5 26t25.5 9h191v526
q0 17 9.5 26t25.5 9h12q17 0 26 -9t9 -26v-526h80zM377 705v14q0 42 -37 42q-21 0 -40 -16t-27 -40h104zM272 753q30 42 73 42q29 0 45.5 -18.5t16.5 -51.5v-18q0 -16 -9 -25.5t-26 -9.5h-133h-7q-15 3 -15 13q0 7 7 13.5t16 6.5v45q0 16 4 25.5t12 9.5q16 0 16 -32z" />
    <glyph glyph-name="uniFE82" unicode="&#x622;" horiz-adv-x="239" arabic-form="final" 
d="M270 9.5q-9 -9.5 -31 -9.5h-26q-70 0 -103 29q-40 34 -40 109v541q0 17 9.5 26t25.5 9h12q17 0 26 -9t9 -26v-519q0 -44 14 -60.5t57 -16.5h16q40 0 40 -40q0 -24 -9 -33.5zM-35 828q-15 0 -26 17q-2 2 4.5 10t19.5 16q25 15 57 15q18 0 43.5 -8.5t51.5 -20.5
q55 -26 85 -26q25 0 41 16q17 17 31 17q7 0 15 -3q1 -1 -2 -10t-10 -23q-12 -24 -29.5 -35.5t-45.5 -11.5q-25 0 -48 7.5t-51 20.5q-56 27 -89 27q-18 0 -29 -4q-9 -4 -18 -4z" />
    <glyph glyph-name="uniFE84" unicode="&#x623;" horiz-adv-x="239" arabic-form="final" 
d="M270 9.5q-9 -9.5 -31 -9.5h-26q-70 0 -103 29q-40 34 -40 109v541q0 17 9.5 26t25.5 9h12q17 0 26 -9t9 -26v-519q0 -44 14 -60.5t57 -16.5h16q40 0 40 -40q0 -24 -9 -33.5zM193.5 825q7.5 -9 7.5 -26q0 -5 -9.5 -7.5t-25.5 -2.5h-113q-17 0 -26 9.5t-9 25.5q0 5 9.5 7.5
t25.5 2.5h10q-14 23 -14 51q0 42 25 65.5t60 23.5q15 0 21 -1q27 -3 27 -37q0 -11 -12 -11q-6 0 -9 1q-14 2 -22 2q-23 0 -34.5 -13t-11.5 -32q0 -21 13.5 -35t38.5 -14h28q13 0 20.5 -9z" />
    <glyph glyph-name="uniFE86" unicode="&#x624;" horiz-adv-x="495" arabic-form="final" 
d="M423 0q-7 -115 -84 -165q-67 -44 -203 -44h-7q-16 0 -25.5 9t-9.5 26v13q0 17 8 26t23 9q105 0 154 23q30 14 45.5 38.5t16.5 64.5h-113q-88 0 -135 39q-55 44 -55 135q0 41 14 80t39 69q57 67 145 67q100 0 147 -71q42 -63 42 -189v-47h70q40 0 40 -40q0 -24 -9 -33.5
t-31 -9.5h-72zM234 83h107v66q0 79 -26.5 120.5t-84.5 41.5q-53 0 -84 -41q-28 -39 -28 -88q0 -99 116 -99zM331 545q9 -9 9 -26q0 -8 -9.5 -13t-25.5 -5h-148q-16 0 -25.5 9.5t-9.5 25.5q0 8 9.5 13t25.5 5h16q-23 29 -23 68q0 53 33 83q30 27 74 27q11 0 27 -2
q31 -3 31 -37q0 -17 -17 -17q-6 0 -9 1q-16 2 -26 2q-30 0 -45.5 -17.5t-15.5 -41.5q0 -29 17.5 -47.5t51.5 -18.5h35q16 0 25 -9z" />
    <glyph glyph-name="uniFE88" unicode="&#x625;" horiz-adv-x="239" arabic-form="final" 
d="M270 9.5q-9 -9.5 -31 -9.5h-26q-70 0 -103 29q-40 34 -40 109v541q0 17 9.5 26t25.5 9h12q17 0 26 -9t9 -26v-519q0 -44 14 -60.5t57 -16.5h16q40 0 40 -40q0 -24 -9 -33.5zM193.5 -212q7.5 -9 7.5 -26q0 -11 -35 -11h-113q-17 0 -26 9t-9 26q0 11 35 11h10
q-14 23 -14 50q0 43 25 66.5t60 23.5q15 0 21 -1q27 -3 27 -37q0 -12 -12 -12q-6 0 -9 1q-14 2 -22 2q-23 0 -34.5 -13t-11.5 -32q0 -21 13.5 -34.5t38.5 -13.5h28q13 0 20.5 -9z" />
    <glyph glyph-name="uniFE8B" unicode="&#x626;" horiz-adv-x="308" arabic-form="initial" 
d="M229 9.5q-9 -9.5 -26 -9.5h-203q-40 0 -40 40q0 24 9 33.5t31 9.5h156v267q0 17 9.5 26t25.5 9h12q17 0 26 -9t9 -26v-315q0 -16 -9 -25.5zM282 545q9 -9 9 -26q0 -8 -9.5 -13t-25.5 -5h-148q-16 0 -25.5 9.5t-9.5 25.5q0 8 9.5 13t25.5 5h16q-23 29 -23 68q0 53 33 83
q30 27 74 27q11 0 27 -2q31 -3 31 -37q0 -17 -17 -17q-6 0 -9 1q-16 2 -26 2q-30 0 -45.5 -17.5t-15.5 -41.5q0 -29 17.5 -47.5t51.5 -18.5h35q16 0 25 -9z" />
    <glyph glyph-name="uniFE8C" unicode="&#x626;" horiz-adv-x="328" arabic-form="medial" 
d="M0 0q-40 0 -40 40q0 24 9 33.5t31 9.5h67q26 0 42.5 2.5t27.5 9.5q22 15 22 61v194q0 17 9.5 26t25.5 9h12q17 0 26 -9t9 -26v-157q0 -55 17 -80q21 -30 70 -30q40 0 40 -40q0 -24 -9 -33.5t-31 -9.5q-37 0 -61.5 18t-33.5 47q-17 -39 -53 -52t-98 -13h-82zM298 545
q9 -9 9 -26q0 -8 -9.5 -13t-25.5 -5h-148q-16 0 -25.5 9.5t-9.5 25.5q0 8 9.5 13t25.5 5h16q-23 29 -23 68q0 53 33 83q30 27 74 27q11 0 27 -2q31 -3 31 -37q0 -17 -17 -17q-6 0 -9 1q-16 2 -26 2q-30 0 -45.5 -17.5t-15.5 -41.5q0 -29 17.5 -47.5t51.5 -18.5h35
q16 0 25 -9z" />
    <glyph glyph-name="uniFE8A" unicode="&#x626;" horiz-adv-x="710" arabic-form="final" 
d="M641 0q11 -12 19 -33.5t8 -41.5q0 -31 -18 -59.5t-56 -50.5q-87 -50 -255 -50q-188 0 -270 69q-37 31 -53 73.5t-16 96.5v119q0 17 9.5 26t25.5 9h11q17 0 26 -9t9 -26v-104q0 -90 61.5 -131t198.5 -41q106 0 178 22q74 23 74 63t-81 73q-42 16 -74 25l-40 11
q-29 7 -29 39v8q0 15 7 23t19 8q4 0 14 -2q105 -34 201 -34h101q40 0 40 -40q0 -24 -9 -33.5t-31 -9.5h-70zM236 315q9 -9 9 -26q0 -8 -9.5 -13t-25.5 -5h-148q-16 0 -25.5 9.5t-9.5 25.5q0 8 9.5 13t25.5 5h16q-23 29 -23 68q0 53 33 83q30 27 74 27q11 0 27 -2
q31 -3 31 -37q0 -17 -17 -17q-6 0 -9 1q-16 2 -26 2q-30 0 -45.5 -17.5t-15.5 -41.5q0 -29 17.5 -47.5t51.5 -18.5h35q16 0 25 -9z" />
    <glyph glyph-name="uniFE8E" unicode="&#x627;" horiz-adv-x="239" arabic-form="final" 
d="M270 9.5q-9 -9.5 -31 -9.5h-26q-70 0 -103 29q-40 34 -40 109v541q0 17 9.5 26t25.5 9h12q17 0 26 -9t9 -26v-519q0 -44 14 -60.5t57 -16.5h16q40 0 40 -40q0 -24 -9 -33.5z" />
    <glyph glyph-name="uniFE91" unicode="&#x628;" horiz-adv-x="308" arabic-form="initial" 
d="M229 9.5q-9 -9.5 -26 -9.5h-203q-40 0 -40 40q0 24 9 33.5t31 9.5h156v267q0 17 9.5 26t25.5 9h12q17 0 26 -9t9 -26v-315q0 -16 -9 -25.5zM142.5 -111.5q15.5 15.5 37.5 15.5t37.5 -15.5t15.5 -37.5t-15.5 -37.5t-37.5 -15.5t-37.5 15.5t-15.5 37.5t15.5 37.5z" />
    <glyph glyph-name="uniFE92" unicode="&#x628;" horiz-adv-x="328" arabic-form="medial" 
d="M0 0q-40 0 -40 40q0 24 9 33.5t31 9.5h67q26 0 42.5 2.5t27.5 9.5q22 15 22 61v194q0 17 9.5 26t25.5 9h12q17 0 26 -9t9 -26v-157q0 -55 17 -80q21 -30 70 -30q40 0 40 -40q0 -24 -9 -33.5t-31 -9.5q-37 0 -61.5 18t-33.5 47q-17 -39 -53 -52t-98 -13h-82zM144.5 -111.5
q15.5 15.5 37.5 15.5t37.5 -15.5t15.5 -37.5t-15.5 -37.5t-37.5 -15.5t-37.5 15.5t-15.5 37.5t15.5 37.5z" />
    <glyph glyph-name="uniFE90" unicode="&#x628;" horiz-adv-x="895" arabic-form="final" 
d="M833.5 18q-24.5 18 -33.5 47q-9 -21 -23.5 -33.5t-37.5 -19.5q-40 -12 -130 -12h-407q-58 0 -96.5 8t-61.5 26q-23 17 -33.5 44t-10.5 68v120q0 17 9.5 26t25.5 9h12q17 0 26 -9t9 -26v-90q0 -31 7.5 -49.5t25.5 -27.5q17 -9 47 -12.5t81 -3.5h365q36 0 58 2.5t35 9.5
t19 21.5t6 39.5v194q0 17 9.5 26t25.5 9h12q17 0 26 -9t9 -26v-157q0 -55 17 -80q21 -30 70 -30q40 0 40 -40q0 -24 -9 -33.5t-31 -9.5q-37 0 -61.5 18zM381.5 -114.5q15.5 15.5 37.5 15.5t37.5 -15.5t15.5 -37.5t-15.5 -37.5t-37.5 -15.5t-37.5 15.5t-15.5 37.5t15.5 37.5z
" />
    <glyph glyph-name="uniFE94" unicode="&#x629;" horiz-adv-x="464" arabic-form="final" 
d="M110.5 192q27.5 -25 83.5 -25q22 0 47.5 5t45.5 13v178h-88q-51 0 -83.5 -25.5t-32.5 -76.5q0 -44 27.5 -69zM129 90q-31 8 -57 25q-69 44 -69 139q0 97 68 150q55 43 139 43h124q17 0 26 -9t9 -26v-252q0 -44 14 -60.5t57 -16.5h24q40 0 40 -40q0 -24 -9 -33.5t-31 -9.5
h-34q-59 0 -91 21q-42 25 -49 79q-47 -18 -103 -18q-27 0 -58 8zM120.5 666.5q15.5 15.5 37.5 15.5t37.5 -15.5t15.5 -37.5t-15.5 -37.5t-37.5 -15.5t-37.5 15.5t-15.5 37.5t15.5 37.5zM250.5 666.5q15.5 15.5 37.5 15.5t37.5 -15.5t15.5 -37.5t-15.5 -37.5t-37.5 -15.5
t-37.5 15.5t-15.5 37.5t15.5 37.5z" />
    <glyph glyph-name="uniFE97" unicode="&#x62a;" horiz-adv-x="308" arabic-form="initial" 
d="M229 9.5q-9 -9.5 -26 -9.5h-203q-40 0 -40 40q0 24 9 33.5t31 9.5h156v267q0 17 9.5 26t25.5 9h12q17 0 26 -9t9 -26v-315q0 -16 -9 -25.5zM82.5 590.5q15.5 15.5 37.5 15.5t37.5 -15.5t15.5 -37.5t-15.5 -37.5t-37.5 -15.5t-37.5 15.5t-15.5 37.5t15.5 37.5z
M212.5 590.5q15.5 15.5 37.5 15.5t37.5 -15.5t15.5 -37.5t-15.5 -37.5t-37.5 -15.5t-37.5 15.5t-15.5 37.5t15.5 37.5z" />
    <glyph glyph-name="uniFE98" unicode="&#x62a;" horiz-adv-x="328" arabic-form="medial" 
d="M0 0q-40 0 -40 40q0 24 9 33.5t31 9.5h67q26 0 42.5 2.5t27.5 9.5q22 15 22 61v194q0 17 9.5 26t25.5 9h12q17 0 26 -9t9 -26v-157q0 -55 17 -80q21 -30 70 -30q40 0 40 -40q0 -24 -9 -33.5t-31 -9.5q-37 0 -61.5 18t-33.5 47q-17 -39 -53 -52t-98 -13h-82zM94.5 590.5
q15.5 15.5 37.5 15.5t37.5 -15.5t15.5 -37.5t-15.5 -37.5t-37.5 -15.5t-37.5 15.5t-15.5 37.5t15.5 37.5zM224.5 590.5q15.5 15.5 37.5 15.5t37.5 -15.5t15.5 -37.5t-15.5 -37.5t-37.5 -15.5t-37.5 15.5t-15.5 37.5t15.5 37.5z" />
    <glyph glyph-name="uniFE96" unicode="&#x62a;" horiz-adv-x="895" arabic-form="final" 
d="M833.5 18q-24.5 18 -33.5 47q-9 -21 -23.5 -33.5t-37.5 -19.5q-40 -12 -130 -12h-407q-58 0 -96.5 8t-61.5 26q-23 17 -33.5 44t-10.5 68v120q0 17 9.5 26t25.5 9h12q17 0 26 -9t9 -26v-90q0 -31 7.5 -49.5t25.5 -27.5q17 -9 47 -12.5t81 -3.5h365q36 0 58 2.5t35 9.5
t19 21.5t6 39.5v194q0 17 9.5 26t25.5 9h12q17 0 26 -9t9 -26v-157q0 -55 17 -80q21 -30 70 -30q40 0 40 -40q0 -24 -9 -33.5t-31 -9.5q-37 0 -61.5 18zM304.5 532.5q15.5 15.5 37.5 15.5t37.5 -15.5t15.5 -37.5t-15.5 -37.5t-37.5 -15.5t-37.5 15.5t-15.5 37.5t15.5 37.5z
M434.5 532.5q15.5 15.5 37.5 15.5t37.5 -15.5t15.5 -37.5t-15.5 -37.5t-37.5 -15.5t-37.5 15.5t-15.5 37.5t15.5 37.5z" />
    <glyph glyph-name="uniFE9B" unicode="&#x62b;" horiz-adv-x="308" arabic-form="initial" 
d="M229 9.5q-9 -9.5 -26 -9.5h-203q-40 0 -40 40q0 24 9 33.5t31 9.5h156v267q0 17 9.5 26t25.5 9h12q17 0 26 -9t9 -26v-315q0 -16 -9 -25.5zM83.5 590.5q15.5 15.5 37.5 15.5t37.5 -15.5t15.5 -37.5t-15.5 -37.5t-37.5 -15.5t-37.5 15.5t-15.5 37.5t15.5 37.5z
M213.5 590.5q15.5 15.5 37.5 15.5t37.5 -15.5t15.5 -37.5t-15.5 -37.5t-37.5 -15.5t-37.5 15.5t-15.5 37.5t15.5 37.5zM150.5 710.5q15.5 15.5 37.5 15.5t37.5 -15.5t15.5 -37.5t-15.5 -37.5t-37.5 -15.5t-37.5 15.5t-15.5 37.5t15.5 37.5z" />
    <glyph glyph-name="uniFE9C" unicode="&#x62b;" horiz-adv-x="328" arabic-form="medial" 
d="M0 0q-40 0 -40 40q0 24 9 33.5t31 9.5h67q26 0 42.5 2.5t27.5 9.5q22 15 22 61v194q0 17 9.5 26t25.5 9h12q17 0 26 -9t9 -26v-157q0 -55 17 -80q21 -30 70 -30q40 0 40 -40q0 -24 -9 -33.5t-31 -9.5q-37 0 -61.5 18t-33.5 47q-17 -39 -53 -52t-98 -13h-82zM96.5 590.5
q15.5 15.5 37.5 15.5t37.5 -15.5t15.5 -37.5t-15.5 -37.5t-37.5 -15.5t-37.5 15.5t-15.5 37.5t15.5 37.5zM226.5 590.5q15.5 15.5 37.5 15.5t37.5 -15.5t15.5 -37.5t-15.5 -37.5t-37.5 -15.5t-37.5 15.5t-15.5 37.5t15.5 37.5zM163.5 710.5q15.5 15.5 37.5 15.5t37.5 -15.5
t15.5 -37.5t-15.5 -37.5t-37.5 -15.5t-37.5 15.5t-15.5 37.5t15.5 37.5z" />
    <glyph glyph-name="uniFE9A" unicode="&#x62b;" horiz-adv-x="895" arabic-form="final" 
d="M833.5 18q-24.5 18 -33.5 47q-9 -21 -23.5 -33.5t-37.5 -19.5q-40 -12 -130 -12h-407q-58 0 -96.5 8t-61.5 26q-23 17 -33.5 44t-10.5 68v120q0 17 9.5 26t25.5 9h12q17 0 26 -9t9 -26v-90q0 -31 7.5 -49.5t25.5 -27.5q17 -9 47 -12.5t81 -3.5h365q36 0 58 2.5t35 9.5
t19 21.5t6 39.5v194q0 17 9.5 26t25.5 9h12q17 0 26 -9t9 -26v-157q0 -55 17 -80q21 -30 70 -30q40 0 40 -40q0 -24 -9 -33.5t-31 -9.5q-37 0 -61.5 18zM305.5 532.5q15.5 15.5 37.5 15.5t37.5 -15.5t15.5 -37.5t-15.5 -37.5t-37.5 -15.5t-37.5 15.5t-15.5 37.5t15.5 37.5z
M435.5 532.5q15.5 15.5 37.5 15.5t37.5 -15.5t15.5 -37.5t-15.5 -37.5t-37.5 -15.5t-37.5 15.5t-15.5 37.5t15.5 37.5zM372.5 652.5q15.5 15.5 37.5 15.5t37.5 -15.5t15.5 -37.5t-15.5 -37.5t-37.5 -15.5t-37.5 15.5t-15.5 37.5t15.5 37.5z" />
    <glyph glyph-name="uniFE9F" unicode="&#x62c;" horiz-adv-x="537" arabic-form="initial" 
d="M401 83q0 120 -63 180q-56 52 -150 52q-27 0 -77 -8q-4 -1 -10 -1q-13 0 -20.5 8.5t-7.5 23.5v9q0 32 29 39q48 13 96 13q74 0 129.5 -25t91.5 -71q34 -44 51 -103t17 -127v-38q0 -16 -9 -25.5t-26 -9.5h-452q-40 0 -40 40q0 24 9 33.5t31 9.5h401zM224.5 -112.5
q15.5 15.5 37.5 15.5t37.5 -15.5t15.5 -37.5t-15.5 -37.5t-37.5 -15.5t-37.5 15.5t-15.5 37.5t15.5 37.5z" />
    <glyph glyph-name="uniFEA0" unicode="&#x62c;" horiz-adv-x="550" arabic-form="medial" 
d="M0 0q-40 0 -40 40q0 24 9 33.5t31 9.5h401q0 120 -63 180q-56 52 -150 52q-27 0 -77 -8q-4 -1 -10 -1q-13 0 -20.5 8.5t-7.5 23.5v9q0 32 29 39q48 13 96 13q142 0 219 -93q34 -42 51.5 -99.5t18.5 -123.5h62q40 0 40 -40q0 -24 -9 -33.5t-31 -9.5h-549zM224.5 -112.5
q15.5 15.5 37.5 15.5t37.5 -15.5t15.5 -37.5t-15.5 -37.5t-37.5 -15.5t-37.5 15.5t-15.5 37.5t15.5 37.5z" />
    <glyph glyph-name="uniFE9E" unicode="&#x62c;" horiz-adv-x="637" arabic-form="final" 
d="M274 0q-78 0 -125 -29q-63 -37 -63 -122q0 -82 58 -125q52 -39 139 -39q42 0 77 5t76 21q9 4 19 4q18 0 29 -20l2 -3q5 -9 5 -19q0 -19 -18 -29q-38 -20 -91 -33q-49 -11 -96 -11q-131 0 -206 60q-80 64 -80 180q0 131 90 194q71 49 185 49h213q0 120 -63 180
q-56 52 -150 52q-27 0 -77 -8q-4 -1 -10 -1q-13 0 -20.5 8.5t-7.5 23.5v9q0 32 29 39q48 13 96 13q142 0 219 -93q34 -42 51.5 -99.5t18.5 -123.5h63q40 0 40 -40q0 -24 -9 -33.5t-31 -9.5h-363zM272.5 -114.5q15.5 15.5 37.5 15.5t37.5 -15.5t15.5 -37.5t-15.5 -37.5
t-37.5 -15.5t-37.5 15.5t-15.5 37.5t15.5 37.5z" />
    <glyph glyph-name="uniFEA3" unicode="&#x62d;" horiz-adv-x="537" arabic-form="initial" 
d="M401 83q0 120 -63 180q-56 52 -150 52q-27 0 -77 -8q-4 -1 -10 -1q-13 0 -20.5 8.5t-7.5 23.5v9q0 32 29 39q48 13 96 13q74 0 129.5 -25t91.5 -71q34 -44 51 -103t17 -127v-38q0 -16 -9 -25.5t-26 -9.5h-452q-40 0 -40 40q0 24 9 33.5t31 9.5h401z" />
    <glyph glyph-name="uniFEA4" unicode="&#x62d;" horiz-adv-x="550" arabic-form="medial" 
d="M0 0q-40 0 -40 40q0 24 9 33.5t31 9.5h401q0 120 -63 180q-56 52 -150 52q-27 0 -77 -8q-4 -1 -10 -1q-13 0 -20.5 8.5t-7.5 23.5v9q0 32 29 39q48 13 96 13q142 0 219 -93q34 -42 51.5 -99.5t18.5 -123.5h62q40 0 40 -40q0 -24 -9 -33.5t-31 -9.5h-549z" />
    <glyph glyph-name="uniFEA2" unicode="&#x62d;" horiz-adv-x="637" arabic-form="final" 
d="M274 0q-78 0 -125 -29q-63 -37 -63 -122q0 -82 58 -125q52 -39 139 -39q42 0 77 5t76 21q9 4 19 4q18 0 29 -20l2 -3q5 -9 5 -19q0 -19 -18 -29q-38 -20 -91 -33q-49 -11 -96 -11q-131 0 -206 60q-80 64 -80 180q0 131 90 194q71 49 185 49h213q0 120 -63 180
q-56 52 -150 52q-27 0 -77 -8q-4 -1 -10 -1q-13 0 -20.5 8.5t-7.5 23.5v9q0 32 29 39q48 13 96 13q142 0 219 -93q34 -42 51.5 -99.5t18.5 -123.5h63q40 0 40 -40q0 -24 -9 -33.5t-31 -9.5h-363z" />
    <glyph glyph-name="uniFEA7" unicode="&#x62e;" horiz-adv-x="537" arabic-form="initial" 
d="M401 83q0 120 -63 180q-56 52 -150 52q-27 0 -77 -8q-4 -1 -10 -1q-13 0 -20.5 8.5t-7.5 23.5v9q0 32 29 39q48 13 96 13q74 0 129.5 -25t91.5 -71q34 -44 51 -103t17 -127v-38q0 -16 -9 -25.5t-26 -9.5h-452q-40 0 -40 40q0 24 9 33.5t31 9.5h401zM168.5 590.5
q15.5 15.5 37.5 15.5t37.5 -15.5t15.5 -37.5t-15.5 -37.5t-37.5 -15.5t-37.5 15.5t-15.5 37.5t15.5 37.5z" />
    <glyph glyph-name="uniFEA8" unicode="&#x62e;" horiz-adv-x="550" arabic-form="medial" 
d="M0 0q-40 0 -40 40q0 24 9 33.5t31 9.5h401q0 120 -63 180q-56 52 -150 52q-27 0 -77 -8q-4 -1 -10 -1q-13 0 -20.5 8.5t-7.5 23.5v9q0 32 29 39q48 13 96 13q142 0 219 -93q34 -42 51.5 -99.5t18.5 -123.5h62q40 0 40 -40q0 -24 -9 -33.5t-31 -9.5h-549zM168.5 590.5
q15.5 15.5 37.5 15.5t37.5 -15.5t15.5 -37.5t-15.5 -37.5t-37.5 -15.5t-37.5 15.5t-15.5 37.5t15.5 37.5z" />
    <glyph glyph-name="uniFEA6" unicode="&#x62e;" horiz-adv-x="637" arabic-form="final" 
d="M274 0q-78 0 -125 -29q-63 -37 -63 -122q0 -82 58 -125q52 -39 139 -39q42 0 77 5t76 21q9 4 19 4q18 0 29 -20l2 -3q5 -9 5 -19q0 -19 -18 -29q-38 -20 -91 -33q-49 -11 -96 -11q-131 0 -206 60q-80 64 -80 180q0 131 90 194q71 49 185 49h213q0 120 -63 180
q-56 52 -150 52q-27 0 -77 -8q-4 -1 -10 -1q-13 0 -20.5 8.5t-7.5 23.5v9q0 32 29 39q48 13 96 13q142 0 219 -93q34 -42 51.5 -99.5t18.5 -123.5h63q40 0 40 -40q0 -24 -9 -33.5t-31 -9.5h-363zM255.5 590.5q15.5 15.5 37.5 15.5t37.5 -15.5t15.5 -37.5t-15.5 -37.5
t-37.5 -15.5t-37.5 15.5t-15.5 37.5t15.5 37.5z" />
    <glyph glyph-name="uniFEAA" unicode="&#x62f;" horiz-adv-x="468" arabic-form="final" 
d="M398 17q-28 17 -55 61q-21 -49 -67 -66q-35 -12 -94 -12h-117q-16 0 -25.5 9.5t-9.5 25.5v13q0 17 9.5 26t25.5 9h144q42 0 64.5 10.5t22.5 30.5q0 17 -9 35.5t-26 43.5l-86 127q-8 11 -8 22q0 17 18 27l17 11q11 6 20 6q16 0 28 -18l102 -169q19 -31 35.5 -57t28.5 -39
q14 -16 26 -23t26 -7q40 0 40 -40q0 -24 -9 -33.5t-31 -9.5q-42 0 -70 17z" />
    <glyph glyph-name="uniFEAC" unicode="&#x630;" horiz-adv-x="468" arabic-form="final" 
d="M398 17q-28 17 -55 61q-21 -49 -67 -66q-35 -12 -94 -12h-117q-16 0 -25.5 9.5t-9.5 25.5v13q0 17 9.5 26t25.5 9h144q42 0 64.5 10.5t22.5 30.5q0 17 -9 35.5t-26 43.5l-86 127q-8 11 -8 22q0 17 18 27l17 11q11 6 20 6q16 0 28 -18l102 -169q19 -31 35.5 -57t28.5 -39
q14 -16 26 -23t26 -7q40 0 40 -40q0 -24 -9 -33.5t-31 -9.5q-42 0 -70 17zM159.5 590.5q15.5 15.5 37.5 15.5t37.5 -15.5t15.5 -37.5t-15.5 -37.5t-37.5 -15.5t-37.5 15.5t-15.5 37.5t15.5 37.5z" />
    <glyph glyph-name="uniFEAE" unicode="&#x631;" horiz-adv-x="311" arabic-form="final" 
d="M257.5 14q-22.5 14 -34.5 36q0 -76 -9 -124t-32 -77q-20 -26 -54 -40t-85 -17q-17 -1 -26.5 8.5t-9.5 26.5v13q0 31 35 36q32 3 52.5 13.5t30.5 29.5q12 21 15 52.5t3 95.5v233q0 17 9.5 26t25.5 9h11q17 0 26 -9t9 -26v-107q0 -54 19.5 -82t67.5 -28q40 0 40 -40
q0 -24 -9 -33.5t-31 -9.5q-31 0 -53.5 14z" />
    <glyph glyph-name="uniFEB0" unicode="&#x632;" horiz-adv-x="311" arabic-form="final" 
d="M257.5 14q-22.5 14 -34.5 36q0 -76 -9 -124t-32 -77q-20 -26 -54 -40t-85 -17q-17 -1 -26.5 8.5t-9.5 26.5v13q0 31 35 36q32 3 52.5 13.5t30.5 29.5q12 21 15 52.5t3 95.5v233q0 17 9.5 26t25.5 9h11q17 0 26 -9t9 -26v-107q0 -54 19.5 -82t67.5 -28q40 0 40 -40
q0 -24 -9 -33.5t-31 -9.5q-31 0 -53.5 14zM144.5 590.5q15.5 15.5 37.5 15.5t37.5 -15.5t15.5 -37.5t-15.5 -37.5t-37.5 -15.5t-37.5 15.5t-15.5 37.5t15.5 37.5z" />
    <glyph glyph-name="uniFEB3" unicode="&#x633;" horiz-adv-x="830" arabic-form="initial" 
d="M35 83q36 0 58 2.5t35 9.5t19 21.5t6 39.5v145q0 17 9.5 26t25.5 9h12q17 0 26 -9t9 -26v-108q0 -29 3.5 -48t13.5 -32q12 -15 32 -22.5t54 -7.5q24 0 39.5 2.5t26.5 9.5q22 15 22 61v144q0 17 9.5 26t25.5 9h12q17 0 26 -9t9 -26v-107q0 -55 17 -80q19 -30 69 -30h84
v267q0 17 9.5 26t25.5 9h12q17 0 26 -9t9 -26v-315q0 -16 -9 -25.5t-26 -9.5h-131q-37 0 -61 18t-33 47q-17 -38 -52.5 -51.5t-95.5 -13.5q-63 0 -95 21q-22 13 -38 45q-9 -21 -22.5 -33t-34.5 -20q-38 -13 -129 -13h-33q-40 0 -40 40q0 24 9 33.5t31 9.5h35z" />
    <glyph glyph-name="uniFEB4" unicode="&#x633;" horiz-adv-x="849" arabic-form="medial" 
d="M35 83q36 0 58 2.5t35 9.5t19 21.5t6 39.5v144q0 17 9.5 26t25.5 9h12q17 0 26 -9t9 -26v-107q0 -29 3.5 -48t13.5 -32q24 -30 87 -30q24 0 39 2.5t26 9.5q22 15 22 61v144q0 17 9.5 26t25.5 9h12q17 0 26 -9t9 -26v-107q0 -56 18 -80q22 -30 77 -30q39 0 55 12
q21 16 21 61v194q0 17 9.5 26t25.5 9h12q17 0 26 -9t9 -26v-157q0 -55 17 -80q21 -30 70 -30q40 0 40 -40q0 -24 -9 -33.5t-31 -9.5q-37 0 -61.5 18t-33.5 47q-16 -37 -59 -53q-32 -12 -64 -12q-59 0 -93 22q-24 14 -37 43q-17 -38 -52 -51.5t-93 -13.5q-65 0 -97 21
q-24 14 -39 45q-9 -21 -22.5 -33t-34.5 -20q-38 -13 -129 -13h-33q-40 0 -40 40q0 24 9 33.5t31 9.5h35z" />
    <glyph glyph-name="uniFEB2" unicode="&#x633;" horiz-adv-x="1162" arabic-form="final" 
d="M1100 18q-24 18 -33 47q-16 -37 -59 -53q-32 -12 -64 -12q-59 0 -93 22q-24 14 -37 43q-17 -38 -51 -51.5t-86 -13.5q-56 0 -85.5 13t-42.5 36v-37q0 -128 -70 -187.5t-204 -59.5q-137 0 -206 60.5t-69 178.5v119q0 17 9.5 26t25.5 9h11q17 0 26 -9t9 -26v-102
q0 -94 50 -135q45 -39 146 -39q53 0 88 7.5t58 25.5q23 19 34 51t11 82v287q0 17 9.5 26t25.5 9h11q17 0 26 -9t9 -26v-107q0 -28 4 -47.5t14 -32.5q24 -30 92 -30q44 0 60 12q21 16 21 61v144q0 17 9.5 26t25.5 9h12q17 0 26 -9t9 -26v-107q0 -54 19 -80q22 -30 78 -30
q38 0 54 12q20 17 20 61v194q0 17 9.5 26t25.5 9h12q17 0 26 -9t9 -26v-157q0 -55 17 -80q19 -30 69 -30q40 0 40 -40q0 -24 -9 -33.5t-31 -9.5q-37 0 -61 18z" />
    <glyph glyph-name="uniFEB7" unicode="&#x634;" horiz-adv-x="830" arabic-form="initial" 
d="M35 83q36 0 58 2.5t35 9.5t19 21.5t6 39.5v145q0 17 9.5 26t25.5 9h12q17 0 26 -9t9 -26v-108q0 -29 3.5 -48t13.5 -32q12 -15 32 -22.5t54 -7.5q24 0 39.5 2.5t26.5 9.5q22 15 22 61v144q0 17 9.5 26t25.5 9h12q17 0 26 -9t9 -26v-107q0 -55 17 -80q19 -30 69 -30h84
v267q0 17 9.5 26t25.5 9h12q17 0 26 -9t9 -26v-315q0 -16 -9 -25.5t-26 -9.5h-131q-37 0 -61 18t-33 47q-17 -38 -52.5 -51.5t-95.5 -13.5q-63 0 -95 21q-22 13 -38 45q-9 -21 -22.5 -33t-34.5 -20q-38 -13 -129 -13h-33q-40 0 -40 40q0 24 9 33.5t31 9.5h35zM357.5 590.5
q15.5 15.5 37.5 15.5t37.5 -15.5t15.5 -37.5t-15.5 -37.5t-37.5 -15.5t-37.5 15.5t-15.5 37.5t15.5 37.5zM487.5 590.5q15.5 15.5 37.5 15.5t37.5 -15.5t15.5 -37.5t-15.5 -37.5t-37.5 -15.5t-37.5 15.5t-15.5 37.5t15.5 37.5zM424.5 710.5q15.5 15.5 37.5 15.5t37.5 -15.5
t15.5 -37.5t-15.5 -37.5t-37.5 -15.5t-37.5 15.5t-15.5 37.5t15.5 37.5z" />
    <glyph glyph-name="uniFEB8" unicode="&#x634;" horiz-adv-x="849" arabic-form="medial" 
d="M35 83q36 0 58 2.5t35 9.5t19 21.5t6 39.5v144q0 17 9.5 26t25.5 9h12q17 0 26 -9t9 -26v-107q0 -29 3.5 -48t13.5 -32q24 -30 87 -30q24 0 39 2.5t26 9.5q22 15 22 61v144q0 17 9.5 26t25.5 9h12q17 0 26 -9t9 -26v-107q0 -56 18 -80q22 -30 77 -30q39 0 55 12
q21 16 21 61v194q0 17 9.5 26t25.5 9h12q17 0 26 -9t9 -26v-157q0 -55 17 -80q21 -30 70 -30q40 0 40 -40q0 -24 -9 -33.5t-31 -9.5q-37 0 -61.5 18t-33.5 47q-16 -37 -59 -53q-32 -12 -64 -12q-59 0 -93 22q-24 14 -37 43q-17 -38 -52 -51.5t-93 -13.5q-65 0 -97 21
q-24 14 -39 45q-9 -21 -22.5 -33t-34.5 -20q-38 -13 -129 -13h-33q-40 0 -40 40q0 24 9 33.5t31 9.5h35zM361.5 590.5q15.5 15.5 37.5 15.5t37.5 -15.5t15.5 -37.5t-15.5 -37.5t-37.5 -15.5t-37.5 15.5t-15.5 37.5t15.5 37.5zM491.5 590.5q15.5 15.5 37.5 15.5t37.5 -15.5
t15.5 -37.5t-15.5 -37.5t-37.5 -15.5t-37.5 15.5t-15.5 37.5t15.5 37.5zM428.5 710.5q15.5 15.5 37.5 15.5t37.5 -15.5t15.5 -37.5t-15.5 -37.5t-37.5 -15.5t-37.5 15.5t-15.5 37.5t15.5 37.5z" />
    <glyph glyph-name="uniFEB6" unicode="&#x634;" horiz-adv-x="1162" arabic-form="final" 
d="M1100 18q-24 18 -33 47q-16 -37 -59 -53q-32 -12 -64 -12q-59 0 -93 22q-24 14 -37 43q-17 -38 -51 -51.5t-86 -13.5q-56 0 -85.5 13t-42.5 36v-37q0 -128 -70 -187.5t-204 -59.5q-137 0 -206 60.5t-69 178.5v119q0 17 9.5 26t25.5 9h11q17 0 26 -9t9 -26v-102
q0 -94 50 -135q45 -39 146 -39q53 0 88 7.5t58 25.5q23 19 34 51t11 82v287q0 17 9.5 26t25.5 9h11q17 0 26 -9t9 -26v-107q0 -28 4 -47.5t14 -32.5q24 -30 92 -30q44 0 60 12q21 16 21 61v144q0 17 9.5 26t25.5 9h12q17 0 26 -9t9 -26v-107q0 -54 19 -80q22 -30 78 -30
q38 0 54 12q20 17 20 61v194q0 17 9.5 26t25.5 9h12q17 0 26 -9t9 -26v-157q0 -55 17 -80q19 -30 69 -30q40 0 40 -40q0 -24 -9 -33.5t-31 -9.5q-37 0 -61 18zM675.5 590.5q15.5 15.5 37.5 15.5t37.5 -15.5t15.5 -37.5t-15.5 -37.5t-37.5 -15.5t-37.5 15.5t-15.5 37.5
t15.5 37.5zM805.5 590.5q15.5 15.5 37.5 15.5t37.5 -15.5t15.5 -37.5t-15.5 -37.5t-37.5 -15.5t-37.5 15.5t-15.5 37.5t15.5 37.5zM742.5 710.5q15.5 15.5 37.5 15.5t37.5 -15.5t15.5 -37.5t-15.5 -37.5t-37.5 -15.5t-37.5 15.5t-15.5 37.5t15.5 37.5z" />
    <glyph glyph-name="uniFEBB" unicode="&#x635;" horiz-adv-x="944" arabic-form="initial" 
d="M802 83v67q0 79 -32 119q-36 46 -111 46q-46 0 -88 -20t-77 -55q-33 -32 -59 -73t-41 -84h408zM0 0q-40 0 -40 40q0 24 9 33.5t31 9.5h35q36 0 58 2.5t35 9.5t19 21.5t6 39.5v144q0 17 9.5 26t25.5 9h12q17 0 26 -9t9 -26v-107q0 -57 12 -80q16 -30 59 -30
q20 57 54 113.5t79 100.5q49 48 108 75t125 27q102 0 157 -59.5t55 -170.5v-134q0 -16 -9 -25.5t-26 -9.5h-505q-56 0 -83 20q-11 8 -18.5 18.5t-15.5 26.5q-9 -21 -24 -33.5t-38 -19.5q-41 -12 -132 -12h-33z" />
    <glyph glyph-name="uniFEBC" unicode="&#x635;" horiz-adv-x="960" arabic-form="medial" 
d="M344 0q-56 0 -83 20q-11 8 -18.5 18.5t-15.5 26.5q-9 -21 -24 -33.5t-38 -19.5q-41 -12 -132 -12h-33q-40 0 -40 40q0 24 9 33.5t31 9.5h35q36 0 58 2.5t35 9.5t19 21.5t6 39.5v144q0 17 9.5 26t25.5 9h12q17 0 26 -9t9 -26v-107q0 -57 12 -80q16 -30 59 -30
q20 57 54 113.5t79 100.5q49 48 108 75t125 27q102 0 157 -59.5t55 -170.5v-86h76q40 0 40 -40q0 -24 -9 -33.5t-31 -9.5h-616zM802 83v67q0 79 -32 119q-36 46 -111 46q-46 0 -88 -20t-77 -55q-33 -32 -59 -73t-41 -84h408z" />
    <glyph glyph-name="uniFEBA" unicode="&#x635;" horiz-adv-x="1314" arabic-form="final" 
d="M679 0q-61 0 -90 15q-29 14 -40 34v-37q0 -128 -70 -187.5t-204 -59.5q-137 0 -206 60.5t-69 178.5v119q0 17 9.5 26t25.5 9h11q17 0 26 -9t9 -26v-102q0 -94 50 -135q45 -39 146 -39q53 0 88 7.5t58 25.5q23 19 34 51t11 82v287q0 17 9.5 26t25.5 9h11q17 0 26 -9t9 -26
v-107q0 -28 4 -47.5t14 -32.5q24 -30 93 -30q20 57 54 113.5t79 100.5q49 48 108 75t125 27q102 0 157 -59.5t55 -170.5v-86h76q40 0 40 -40q0 -24 -9 -33.5t-31 -9.5h-635zM1156 83v67q0 79 -32 119q-36 46 -111 46q-46 0 -88 -20t-77 -55q-33 -32 -59 -73t-41 -84h408z
" />
    <glyph glyph-name="uniFEBF" unicode="&#x636;" horiz-adv-x="944" arabic-form="initial" 
d="M802 83v67q0 79 -32 119q-36 46 -111 46q-46 0 -88 -20t-77 -55q-33 -32 -59 -73t-41 -84h408zM0 0q-40 0 -40 40q0 24 9 33.5t31 9.5h35q36 0 58 2.5t35 9.5t19 21.5t6 39.5v144q0 17 9.5 26t25.5 9h12q17 0 26 -9t9 -26v-107q0 -57 12 -80q16 -30 59 -30
q20 57 54 113.5t79 100.5q49 48 108 75t125 27q102 0 157 -59.5t55 -170.5v-134q0 -16 -9 -25.5t-26 -9.5h-505q-56 0 -83 20q-11 8 -18.5 18.5t-15.5 26.5q-9 -21 -24 -33.5t-38 -19.5q-41 -12 -132 -12h-33zM629.5 590.5q15.5 15.5 37.5 15.5t37.5 -15.5t15.5 -37.5
t-15.5 -37.5t-37.5 -15.5t-37.5 15.5t-15.5 37.5t15.5 37.5z" />
    <glyph glyph-name="uniFEC0" unicode="&#x636;" horiz-adv-x="960" arabic-form="medial" 
d="M344 0q-56 0 -83 20q-11 8 -18.5 18.5t-15.5 26.5q-9 -21 -24 -33.5t-38 -19.5q-41 -12 -132 -12h-33q-40 0 -40 40q0 24 9 33.5t31 9.5h35q36 0 58 2.5t35 9.5t19 21.5t6 39.5v144q0 17 9.5 26t25.5 9h12q17 0 26 -9t9 -26v-107q0 -57 12 -80q16 -30 59 -30
q20 57 54 113.5t79 100.5q49 48 108 75t125 27q102 0 157 -59.5t55 -170.5v-86h76q40 0 40 -40q0 -24 -9 -33.5t-31 -9.5h-616zM802 83v67q0 79 -32 119q-36 46 -111 46q-46 0 -88 -20t-77 -55q-33 -32 -59 -73t-41 -84h408zM627.5 590.5q15.5 15.5 37.5 15.5t37.5 -15.5
t15.5 -37.5t-15.5 -37.5t-37.5 -15.5t-37.5 15.5t-15.5 37.5t15.5 37.5z" />
    <glyph glyph-name="uniFEBE" unicode="&#x636;" horiz-adv-x="1314" arabic-form="final" 
d="M679 0q-61 0 -90 15q-29 14 -40 34v-37q0 -128 -70 -187.5t-204 -59.5q-137 0 -206 60.5t-69 178.5v119q0 17 9.5 26t25.5 9h11q17 0 26 -9t9 -26v-102q0 -94 50 -135q45 -39 146 -39q53 0 88 7.5t58 25.5q23 19 34 51t11 82v287q0 17 9.5 26t25.5 9h11q17 0 26 -9t9 -26
v-107q0 -28 4 -47.5t14 -32.5q24 -30 93 -30q20 57 54 113.5t79 100.5q49 48 108 75t125 27q102 0 157 -59.5t55 -170.5v-86h76q40 0 40 -40q0 -24 -9 -33.5t-31 -9.5h-635zM1156 83v67q0 79 -32 119q-36 46 -111 46q-46 0 -88 -20t-77 -55q-33 -32 -59 -73t-41 -84h408z
M978.5 590.5q15.5 15.5 37.5 15.5t37.5 -15.5t15.5 -37.5t-15.5 -37.5t-37.5 -15.5t-37.5 15.5t-15.5 37.5t15.5 37.5z" />
    <glyph glyph-name="uniFEC3" unicode="&#x637;" horiz-adv-x="740" arabic-form="initial" 
d="M671 9.5q-9 -9.5 -26 -9.5h-645q-40 0 -40 40q0 24 9 33.5t31 9.5h113v596q0 17 9.5 26t25.5 9h12q17 0 26 -9t9 -26v-454q106 174 279 174q97 0 151.5 -60.5t54.5 -169.5v-134q0 -16 -9 -25.5zM598 83v67q0 78 -31 117q-38 48 -112 48q-86 0 -163 -77q-62 -63 -97 -155
h403z" />
    <glyph glyph-name="uniFEC4" unicode="&#x637;" horiz-adv-x="756" arabic-form="medial" 
d="M0 0q-40 0 -40 40q0 24 9 33.5t31 9.5h113v596q0 17 9.5 26t25.5 9h12q17 0 26 -9t9 -26v-454q106 174 279 174q97 0 151.5 -60.5t54.5 -169.5v-86h76q40 0 40 -40q0 -24 -9 -33.5t-31 -9.5h-756zM598 83v67q0 78 -31 117q-38 48 -112 48q-86 0 -163 -77
q-62 -63 -97 -155h403z" />
    <glyph glyph-name="uniFEC2" unicode="&#x637;" horiz-adv-x="787" arabic-form="final" 
d="M52 0q-16 0 -25.5 9.5t-9.5 25.5v13q0 17 9.5 26t25.5 9h92v596q0 17 9.5 26t25.5 9h12q17 0 26 -9t9 -26v-454q106 174 279 174q97 0 151.5 -60.5t54.5 -169.5v-86h76q40 0 40 -40q0 -24 -9 -33.5t-31 -9.5h-735zM629 83v67q0 78 -31 117q-38 48 -112 48q-86 0 -163 -77
q-62 -63 -97 -155h403z" />
    <glyph glyph-name="uniFEC7" unicode="&#x638;" horiz-adv-x="740" arabic-form="initial" 
d="M671 9.5q-9 -9.5 -26 -9.5h-645q-40 0 -40 40q0 24 9 33.5t31 9.5h113v596q0 17 9.5 26t25.5 9h12q17 0 26 -9t9 -26v-454q106 174 279 174q97 0 151.5 -60.5t54.5 -169.5v-134q0 -16 -9 -25.5zM598 83v67q0 78 -31 117q-38 48 -112 48q-86 0 -163 -77q-62 -63 -97 -155
h403zM435.5 590.5q15.5 15.5 37.5 15.5t37.5 -15.5t15.5 -37.5t-15.5 -37.5t-37.5 -15.5t-37.5 15.5t-15.5 37.5t15.5 37.5z" />
    <glyph glyph-name="uniFEC8" unicode="&#x638;" horiz-adv-x="756" arabic-form="medial" 
d="M0 0q-40 0 -40 40q0 24 9 33.5t31 9.5h113v596q0 17 9.5 26t25.5 9h12q17 0 26 -9t9 -26v-454q106 174 279 174q97 0 151.5 -60.5t54.5 -169.5v-86h76q40 0 40 -40q0 -24 -9 -33.5t-31 -9.5h-756zM598 83v67q0 78 -31 117q-38 48 -112 48q-86 0 -163 -77
q-62 -63 -97 -155h403zM419.5 590.5q15.5 15.5 37.5 15.5t37.5 -15.5t15.5 -37.5t-15.5 -37.5t-37.5 -15.5t-37.5 15.5t-15.5 37.5t15.5 37.5z" />
    <glyph glyph-name="uniFEC6" unicode="&#x638;" horiz-adv-x="787" arabic-form="final" 
d="M52 0q-16 0 -25.5 9.5t-9.5 25.5v13q0 17 9.5 26t25.5 9h92v596q0 17 9.5 26t25.5 9h12q17 0 26 -9t9 -26v-454q106 174 279 174q97 0 151.5 -60.5t54.5 -169.5v-86h76q40 0 40 -40q0 -24 -9 -33.5t-31 -9.5h-735zM629 83v67q0 78 -31 117q-38 48 -112 48q-86 0 -163 -77
q-62 -63 -97 -155h403zM454.5 590.5q15.5 15.5 37.5 15.5t37.5 -15.5t15.5 -37.5t-15.5 -37.5t-37.5 -15.5t-37.5 15.5t-15.5 37.5t15.5 37.5z" />
    <glyph glyph-name="uniFECB" unicode="&#x639;" horiz-adv-x="500" arabic-form="initial" 
d="M431 9.5q-9 -9.5 -26 -9.5h-405q-40 0 -40 40q0 24 9 33.5t31 9.5h123q-19 20 -30.5 50t-11.5 67q0 50 19 88.5t52 64.5q31 24 69 36.5t78 12.5q39 0 69 -5q29 -6 29 -39v-18q0 -15 -7 -23t-20 -8q-7 0 -11 1q-27 5 -57 5q-63 0 -100 -31t-37 -85q0 -53 32.5 -84.5
t96.5 -31.5h111q17 0 26 -9t9 -26v-13q0 -16 -9 -25.5z" />
    <glyph glyph-name="uniFECC" unicode="&#x639;" horiz-adv-x="529" arabic-form="medial" 
d="M0 0q-40 0 -40 40q0 24 9 33.5t31 9.5h45q83 0 146 21l-107 121q-13 16 -13 30q0 8 3 15l10 23q12 26 22 36q33 33 78 51.5t98 18.5q83 0 131 -38q21 -18 31.5 -40t10.5 -46q0 -54 -30.5 -102.5t-85.5 -85.5q15 -4 50 -4h140q40 0 40 -40q0 -24 -9 -33.5t-31 -9.5h-167
q-32 0 -58 8.5t-53 31.5q-102 -40 -202 -40h-49zM201.5 305q-35.5 -16 -56.5 -42l122 -129q49 25 78 58t29 69q0 25 -24.5 42.5t-72.5 17.5q-40 0 -75.5 -16z" />
    <glyph glyph-name="uniFECA" unicode="&#x639;" horiz-adv-x="529" arabic-form="final" 
d="M362 0q-34 0 -60.5 9.5t-54.5 34.5q-76 -39 -119 -86q-49 -54 -49 -124q0 -76 57 -114q53 -35 141 -35q44 0 81 8q23 5 66 20q12 4 17 4q19 0 29 -21l2 -4q5 -12 5 -20q0 -17 -19 -27q-40 -22 -90 -34q-46 -11 -100 -11q-123 0 -199 58q-39 29 -60 70.5t-21 93.5
q0 92 53 160q49 62 154 118l-111 125q-13 16 -13 30q0 8 3 15l10 23q12 26 22 36q33 33 78 51.5t98 18.5q83 0 131 -38q21 -18 31.5 -40t10.5 -46q0 -108 -123 -186q19 -6 57 -6h140q40 0 40 -40q0 -24 -9 -33.5t-31 -9.5h-167zM201.5 305q-35.5 -16 -56.5 -42l121 -128
q50 26 79 58.5t29 67.5q0 25 -24.5 42.5t-72.5 17.5q-40 0 -75.5 -16z" />
    <glyph glyph-name="uniFECF" unicode="&#x63a;" horiz-adv-x="500" arabic-form="initial" 
d="M431 9.5q-9 -9.5 -26 -9.5h-405q-40 0 -40 40q0 24 9 33.5t31 9.5h123q-19 20 -30.5 50t-11.5 67q0 50 19 88.5t52 64.5q31 24 69 36.5t78 12.5q39 0 69 -5q29 -6 29 -39v-18q0 -15 -7 -23t-20 -8q-7 0 -11 1q-27 5 -57 5q-63 0 -100 -31t-37 -85q0 -53 32.5 -84.5
t96.5 -31.5h111q17 0 26 -9t9 -26v-13q0 -16 -9 -25.5zM245.5 590.5q15.5 15.5 37.5 15.5t37.5 -15.5t15.5 -37.5t-15.5 -37.5t-37.5 -15.5t-37.5 15.5t-15.5 37.5t15.5 37.5z" />
    <glyph glyph-name="uniFED0" unicode="&#x63a;" horiz-adv-x="529" arabic-form="medial" 
d="M0 0q-40 0 -40 40q0 24 9 33.5t31 9.5h45q83 0 146 21l-107 121q-13 16 -13 30q0 8 3 15l10 23q12 26 22 36q33 33 78 51.5t98 18.5q83 0 131 -38q21 -18 31.5 -40t10.5 -46q0 -54 -30.5 -102.5t-85.5 -85.5q15 -4 50 -4h140q40 0 40 -40q0 -24 -9 -33.5t-31 -9.5h-167
q-32 0 -58 8.5t-53 31.5q-102 -40 -202 -40h-49zM201.5 305q-35.5 -16 -56.5 -42l122 -129q49 25 78 58t29 69q0 25 -24.5 42.5t-72.5 17.5q-40 0 -75.5 -16zM241.5 590.5q15.5 15.5 37.5 15.5t37.5 -15.5t15.5 -37.5t-15.5 -37.5t-37.5 -15.5t-37.5 15.5t-15.5 37.5
t15.5 37.5z" />
    <glyph glyph-name="uniFECE" unicode="&#x63a;" horiz-adv-x="529" arabic-form="final" 
d="M362 0q-34 0 -60.5 9.5t-54.5 34.5q-76 -39 -119 -86q-49 -54 -49 -124q0 -76 57 -114q53 -35 141 -35q44 0 81 8q23 5 66 20q12 4 17 4q19 0 29 -21l2 -4q5 -12 5 -20q0 -17 -19 -27q-40 -22 -90 -34q-46 -11 -100 -11q-123 0 -199 58q-39 29 -60 70.5t-21 93.5
q0 92 53 160q49 62 154 118l-111 125q-13 16 -13 30q0 8 3 15l10 23q12 26 22 36q33 33 78 51.5t98 18.5q83 0 131 -38q21 -18 31.5 -40t10.5 -46q0 -108 -123 -186q19 -6 57 -6h140q40 0 40 -40q0 -24 -9 -33.5t-31 -9.5h-167zM201.5 305q-35.5 -16 -56.5 -42l121 -128
q50 26 79 58.5t29 67.5q0 25 -24.5 42.5t-72.5 17.5q-40 0 -75.5 -16zM239.5 590.5q15.5 15.5 37.5 15.5t37.5 -15.5t15.5 -37.5t-15.5 -37.5t-37.5 -15.5t-37.5 15.5t-15.5 37.5t15.5 37.5z" />
    <glyph glyph-name="uniFED3" unicode="&#x641;" horiz-adv-x="526" arabic-form="initial" 
d="M199.5 113q34.5 -30 89.5 -30h96v100q0 59 -21 93q-27 44 -86 44q-51 0 -83 -35q-15 -15 -22.5 -37t-7.5 -47q0 -58 34.5 -88zM457 9.5q-9 -9.5 -26 -9.5h-431q-40 0 -40 40q0 24 9 33.5t31 9.5h114q-27 50 -27 105q0 39 13 77t38 68q26 31 63 48.5t83 17.5q98 0 146 -71
q36 -55 36 -142v-151q0 -16 -9 -25.5zM247.5 590.5q15.5 15.5 37.5 15.5t37.5 -15.5t15.5 -37.5t-15.5 -37.5t-37.5 -15.5t-37.5 15.5t-15.5 37.5t15.5 37.5z" />
    <glyph glyph-name="uniFED4" unicode="&#x641;" horiz-adv-x="542" arabic-form="medial" 
d="M0 0q-40 0 -40 40q0 24 9 33.5t31 9.5h114q-27 50 -27 105q0 39 13 77t38 68q26 31 63 48.5t83 17.5q98 0 146 -71q36 -55 36 -142v-103h76q40 0 40 -40q0 -24 -9 -33.5t-31 -9.5h-542zM199.5 113q34.5 -30 89.5 -30h96v100q0 59 -21 93q-27 44 -86 44q-51 0 -83 -35
q-15 -15 -22.5 -37t-7.5 -47q0 -58 34.5 -88zM245.5 590.5q15.5 15.5 37.5 15.5t37.5 -15.5t15.5 -37.5t-15.5 -37.5t-37.5 -15.5t-37.5 15.5t-15.5 37.5t15.5 37.5z" />
    <glyph glyph-name="uniFED2" unicode="&#x641;" horiz-adv-x="1018" arabic-form="final" 
d="M202 0q-58 0 -96.5 8t-61.5 26q-23 17 -33.5 44t-10.5 68v120q0 17 9.5 26t25.5 9h12q17 0 26 -9t9 -26v-90q0 -31 7.5 -49.5t25.5 -27.5q17 -9 47 -12.5t81 -3.5h347q-27 50 -27 105q0 39 13 77t38 68q26 31 63 48.5t83 17.5q98 0 146 -71q36 -55 36 -142v-103h76
q40 0 40 -40q0 -24 -9 -33.5t-31 -9.5h-816zM675.5 113q34.5 -30 89.5 -30h96v100q0 59 -21 93q-27 44 -86 44q-51 0 -83 -35q-15 -15 -22.5 -37t-7.5 -47q0 -58 34.5 -88zM728.5 590.5q15.5 15.5 37.5 15.5t37.5 -15.5t15.5 -37.5t-15.5 -37.5t-37.5 -15.5t-37.5 15.5
t-15.5 37.5t15.5 37.5z" />
    <glyph glyph-name="uniFED7" unicode="&#x642;" horiz-adv-x="536" arabic-form="initial" 
d="M182.5 590.5q15.5 15.5 37.5 15.5t37.5 -15.5t15.5 -37.5t-15.5 -37.5t-37.5 -15.5t-37.5 15.5t-15.5 37.5t15.5 37.5zM312.5 590.5q15.5 15.5 37.5 15.5t37.5 -15.5t15.5 -37.5t-15.5 -37.5t-37.5 -15.5t-37.5 15.5t-15.5 37.5t15.5 37.5zM211.5 113q34.5 -30 89.5 -30
h96v100q0 59 -21 93q-27 44 -86 44q-51 0 -83 -35q-15 -15 -22.5 -37t-7.5 -47q0 -58 34.5 -88zM469 9.5q-9 -9.5 -26 -9.5h-431q-40 0 -40 40q0 24 9 33.5t31 9.5h114q-27 50 -27 105q0 39 13 77t38 68q26 31 63 48.5t83 17.5q98 0 146 -71q36 -55 36 -142v-151
q0 -16 -9 -25.5z" />
    <glyph glyph-name="uniFED8" unicode="&#x642;" horiz-adv-x="542" arabic-form="medial" 
d="M0 0q-40 0 -40 40q0 24 9 33.5t31 9.5h114q-27 50 -27 105q0 39 13 77t38 68q26 31 63 48.5t83 17.5q98 0 146 -71q36 -55 36 -142v-103h76q40 0 40 -40q0 -24 -9 -33.5t-31 -9.5h-542zM199.5 113q34.5 -30 89.5 -30h96v100q0 59 -21 93q-27 44 -86 44q-51 0 -83 -35
q-15 -15 -22.5 -37t-7.5 -47q0 -58 34.5 -88zM167.5 590.5q15.5 15.5 37.5 15.5t37.5 -15.5t15.5 -37.5t-15.5 -37.5t-37.5 -15.5t-37.5 15.5t-15.5 37.5t15.5 37.5zM297.5 590.5q15.5 15.5 37.5 15.5t37.5 -15.5t15.5 -37.5t-15.5 -37.5t-37.5 -15.5t-37.5 15.5t-15.5 37.5
t15.5 37.5z" />
    <glyph glyph-name="uniFED6" unicode="&#x642;" horiz-adv-x="743" arabic-form="final" 
d="M663 0q-13 -117 -101 -178q-82 -57 -228 -57q-177 0 -260 70q-74 61 -74 174v114q0 17 9.5 26t25.5 9h11q17 0 26 -9t9 -26v-96q0 -90 62.5 -135t190.5 -45q110 0 173 33q75 39 75 120h-113q-88 0 -135 39q-55 44 -55 135q0 41 14 80t39 69q57 67 145 67q100 0 147 -71
q42 -63 42 -189v-47h77q40 0 40 -40q0 -24 -9 -33.5t-31 -9.5h-80zM475 83h107v66q0 79 -26.5 120.5t-84.5 41.5q-53 0 -84 -41q-28 -39 -28 -88q0 -99 116 -99zM382.5 590.5q15.5 15.5 37.5 15.5t37.5 -15.5t15.5 -37.5t-15.5 -37.5t-37.5 -15.5t-37.5 15.5t-15.5 37.5
t15.5 37.5zM512.5 590.5q15.5 15.5 37.5 15.5t37.5 -15.5t15.5 -37.5t-15.5 -37.5t-37.5 -15.5t-37.5 15.5t-15.5 37.5t15.5 37.5z" />
    <glyph glyph-name="uniFEDB" unicode="&#x643;" horiz-adv-x="481" arabic-form="initial" 
d="M0 0q-40 0 -40 40q0 24 9 33.5t31 9.5h239q40 0 63 14.5t23 48.5q0 26 -23.5 59.5t-65.5 68.5q-66 56 -173 114q-24 13 -24 29q0 2 2 10q4 11 11 23l8 13q7 9 14.5 14t20.5 11l305 134q8 4 17 4q11 0 17.5 -8.5t6.5 -22.5v-7q0 -29 -27 -41l-267 -118q135 -80 199 -155
q58 -70 58 -133q0 -56 -31 -92q-42 -49 -136 -49h-237z" />
    <glyph glyph-name="uniFEDC" unicode="&#x643;" horiz-adv-x="509" arabic-form="medial" 
d="M0 0q-40 0 -40 40q0 24 9 33.5t31 9.5h224q103 0 103 64q0 27 -22 60.5t-61 68.5q-72 64 -177 115q-24 11 -24 29q0 6 1 9q3 13 8 24q1 2 2 5t3 6q5 9 12 14t21 11l313 135q8 4 17 4q11 0 17.5 -8.5t6.5 -22.5v-9q0 -29 -27 -41l-267 -118q103 -53 166.5 -114t85.5 -123
q22 -66 47 -89q11 -11 25.5 -15.5t34.5 -4.5q40 0 40 -40q0 -24 -9 -33.5t-31 -9.5q-24 0 -40.5 2.5t-30.5 10.5q-32 18 -54 65h-4q-18 -44 -60.5 -61t-113.5 -17h-206z" />
    <glyph glyph-name="uniFEDA" unicode="&#x643;" horiz-adv-x="895" arabic-form="final" 
d="M833.5 18q-24.5 18 -33.5 47q-9 -21 -23.5 -33.5t-37.5 -19.5q-40 -12 -130 -12h-407q-58 0 -96.5 8t-61.5 26q-23 17 -33.5 44t-10.5 68v120q0 17 9.5 26t25.5 9h12q17 0 26 -9t9 -26v-90q0 -31 7.5 -49.5t25.5 -27.5q17 -9 47 -12.5t81 -3.5h365q36 0 58 2.5t35 9.5
t19 21.5t6 39.5v523q0 17 9.5 26t25.5 9h12q17 0 26 -9t9 -26v-486q0 -55 17 -80q21 -30 70 -30q40 0 40 -40q0 -24 -9 -33.5t-31 -9.5q-37 0 -61.5 18zM507.5 332q7.5 -9 7.5 -26q0 -11 -35 -11h-113q-16 0 -25.5 9.5t-9.5 25.5q0 11 35 11h10q-14 23 -14 50q0 43 25 66.5
t60 23.5q15 0 21 -1q27 -3 27 -37q0 -12 -12 -12q-6 0 -9 1q-14 2 -22 2q-23 0 -34.5 -13t-11.5 -32q0 -21 13.5 -34.5t38.5 -13.5h28q13 0 20.5 -9z" />
    <glyph glyph-name="uniFEDF" unicode="&#x644;" horiz-adv-x="308" arabic-form="initial" 
d="M229 9.5q-9 -9.5 -26 -9.5h-203q-40 0 -40 40q0 24 9 33.5t31 9.5h156v596q0 17 9.5 26t25.5 9h12q17 0 26 -9t9 -26v-644q0 -16 -9 -25.5z" />
    <glyph glyph-name="uniFEE0" unicode="&#x644;" horiz-adv-x="324" arabic-form="medial" 
d="M0 0q-40 0 -40 40q0 24 9 33.5t31 9.5h80q40 0 56 12q20 17 20 61v523q0 17 9.5 26t25.5 9h12q17 0 26 -9t9 -26v-486q0 -53 21 -81.5t65 -28.5q40 0 40 -40q0 -24 -9 -33.5t-31 -9.5q-37 0 -61 18t-33 47q-17 -39 -54 -52t-105 -13h-71z" />
    <glyph glyph-name="uniFEDE" unicode="&#x644;" horiz-adv-x="627" arabic-form="final" 
d="M549 0q-4 -126 -74 -191t-200 -65q-132 0 -205 73q-70 70 -70 187v119q0 17 9.5 26t25.5 9h11q17 0 26 -9t9 -26v-102q0 -195 196 -195q101 0 146 43.5t45 143.5v666q0 17 9.5 26t25.5 9h11q17 0 26 -9t9 -26v-596h78q40 0 40 -40q0 -24 -9 -33.5t-31 -9.5h-78z" />
    <glyph glyph-name="uniFEE3" unicode="&#x645;" horiz-adv-x="576" arabic-form="initial" 
d="M0 0q-40 0 -40 40q0 24 9 33.5t31 9.5h41q30 0 51 16q29 22 49 75q43 118 101 165q44 35 108 35q37 0 69.5 -14.5t56.5 -40.5q50 -58 50 -145q0 -89 -42 -138t-127 -49q-50 0 -97.5 16.5t-96.5 53.5q-23 -37 -55 -48q-22 -9 -65 -9h-43zM436.5 220q-6.5 21 -18.5 37
q-28 35 -73 35q-44 0 -78.5 -38.5t-64.5 -128.5q81 -53 148 -53q93 0 93 105q0 22 -6.5 43z" />
    <glyph glyph-name="uniFEE4" unicode="&#x645;" horiz-adv-x="615" arabic-form="medial" 
d="M516 46q-12 17 -12 22q-19 -39 -56 -60t-91 -21q-50 0 -97.5 16.5t-96.5 53.5q-23 -37 -55 -48q-22 -9 -65 -9h-43q-40 0 -40 40q0 24 9 33.5t31 9.5h41q30 0 51 16q29 22 49 75q43 118 101 165q44 35 108 35q37 0 69.5 -14.5t56.5 -40.5q50 -58 50 -145l-1 -20v-6
q10 -34 30 -49.5t60 -15.5t40 -40q0 -24 -9 -33.5t-31 -9.5q-67 0 -99 46zM436.5 220q-6.5 21 -18.5 37q-28 35 -73 35q-44 0 -78.5 -38.5t-64.5 -128.5q81 -53 148 -53q93 0 93 105q0 22 -6.5 43z" />
    <glyph glyph-name="uniFEE2" unicode="&#x645;" horiz-adv-x="615" arabic-form="final" 
d="M516 46q-12 17 -12 22q-19 -39 -56 -60t-91 -21q-50 0 -97.5 16.5t-96.5 53.5q-27 -6 -43 -16.5t-24 -27.5t-10 -41t-2 -68v-269q0 -17 -9 -26t-26 -9h-14q-16 0 -25.5 9t-9.5 26v271q0 53 6 89.5t21 63.5t42.5 47t71.5 35q22 123 90 184q28 25 59 37t60 12
q37 0 69.5 -14.5t56.5 -40.5q50 -58 50 -145l-1 -20v-6q10 -34 30 -49.5t60 -15.5t40 -40q0 -24 -9 -33.5t-31 -9.5q-67 0 -99 46zM436.5 220q-6.5 21 -18.5 37q-28 35 -73 35t-83 -41t-60 -126q81 -53 148 -53q93 0 93 105q0 22 -6.5 43z" />
    <glyph glyph-name="uniFEE7" unicode="&#x646;" horiz-adv-x="305" arabic-form="initial" 
d="M154.5 590.5q15.5 15.5 37.5 15.5t37.5 -15.5t15.5 -37.5t-15.5 -37.5t-37.5 -15.5t-37.5 15.5t-15.5 37.5t15.5 37.5zM228 9.5q-9 -9.5 -26 -9.5h-203q-40 0 -40 40q0 24 9 33.5t31 9.5h156v267q0 17 9.5 26t25.5 9h12q17 0 26 -9t9 -26v-315q0 -16 -9 -25.5z" />
    <glyph glyph-name="uniFEE8" unicode="&#x646;" horiz-adv-x="328" arabic-form="medial" 
d="M0 0q-40 0 -40 40q0 24 9 33.5t31 9.5h67q26 0 42.5 2.5t27.5 9.5q22 15 22 61v194q0 17 9.5 26t25.5 9h12q17 0 26 -9t9 -26v-157q0 -55 17 -80q21 -30 70 -30q40 0 40 -40q0 -24 -9 -33.5t-31 -9.5q-37 0 -61.5 18t-33.5 47q-17 -39 -53 -52t-98 -13h-82zM165.5 590.5
q15.5 15.5 37.5 15.5t37.5 -15.5t15.5 -37.5t-15.5 -37.5t-37.5 -15.5t-37.5 15.5t-15.5 37.5t15.5 37.5z" />
    <glyph glyph-name="uniFEE6" unicode="&#x646;" horiz-adv-x="636" arabic-form="final" 
d="M549 49v-37q0 -128 -70 -188t-204 -60q-137 0 -206 61t-69 179v119q0 17 9.5 26t25.5 9h11q17 0 26 -9t9 -26v-102q0 -94 48 -134.5t148 -40.5q52 0 87.5 8t58.5 26t34 50.5t11 82.5v222q0 17 9.5 26t25.5 9h11q17 0 26 -9t9 -26v-42q0 -57 16 -80q19 -30 71 -30
q40 0 40 -40q0 -24 -9 -33.5t-31 -9.5q-60 0 -87 49zM245.5 395.5q15.5 15.5 37.5 15.5t37.5 -15.5t15.5 -37.5t-15.5 -37.5t-37.5 -15.5t-37.5 15.5t-15.5 37.5t15.5 37.5z" />
    <glyph glyph-name="uniFEE9" unicode="&#x647;" horiz-adv-x="648" arabic-form="isolated" 
d="M144 83q-28 41 -28 104q0 55 25 99.5t73 61.5q-30 0 -45 -1q-36 0 -36 35v5q0 17 9 26t26 9h30q179 0 277 -68q122 -86 122 -281v-38q0 -16 -9 -25.5t-26 -9.5h-456q-19 0 -29.5 -4t-16.5 -13q-4 -5 -5 -11q-4 -17 -12 -25.5t-24 -8.5q-3 0 -7 7.5t-7 21.5q-6 25 -6 44
q0 43 29 60q19 12 56 12h60zM324 121q13 26 13 67q0 49 -17 79q-19 34 -57 34q-35 0 -54.5 -31.5t-19.5 -83.5q0 -43 16 -68q19 -34 56 -35h9q37 1 54 38zM513 83q0 103 -41.5 162.5t-120.5 83.5q29 -22 46 -66q12 -33 12 -72q0 -64 -23 -108h127z" />
    <glyph glyph-name="uniFEEB" unicode="&#x647;" horiz-adv-x="662" arabic-form="initial" 
d="M603 9.5q-9 -9.5 -26 -9.5h-577q-40 0 -40 40q0 24 9 33.5t31 9.5h159q-28 41 -28 104q0 55 25 99.5t73 61.5q-30 0 -45 -1q-36 0 -36 35v5q0 17 9 26t26 9h30q179 0 277 -68q122 -86 122 -281v-38q0 -16 -9 -25.5zM281 83q38 0 57 37q14 25 14 68q0 49 -17 79
q-19 34 -57 34q-35 0 -54.5 -31.5t-19.5 -83.5q0 -43 16 -68q19 -34 56 -35h5zM528 83q0 103 -41.5 162.5t-120.5 83.5q29 -22 46 -66q12 -33 12 -72q0 -64 -23 -108h127z" />
    <glyph glyph-name="uniFEEC" unicode="&#x647;" horiz-adv-x="522" arabic-form="medial" 
d="M409 0v-4q38 -37 38 -95q0 -63 -39 -103q-42 -44 -118 -44q-99 0 -143 64q-40 55 -40 171v11h-107q-40 0 -40 40q0 24 9 33.5t31 9.5h107v58q0 123 48.5 190t136.5 67q79 0 123 -56q17 -23 25.5 -50.5t8.5 -53.5q0 -92 -71 -151v-4h145q40 0 40 -40q0 -24 -9 -33.5
t-31 -9.5h-114zM189 83h45q70 0 107 51q15 20 22.5 44t7.5 46q0 46 -22.5 69.5t-57.5 23.5q-49 0 -75.5 -43.5t-26.5 -124.5v-66zM189 0v-19q0 -36 4 -61.5t14 -44.5q12 -21 31.5 -32t50.5 -11q41 0 62 20.5t21 58.5q0 32 -17 54q-29 35 -92 35h-74z" />
    <glyph glyph-name="uniFEEA" unicode="&#x647;" horiz-adv-x="464" arabic-form="final" 
d="M110.5 192q27.5 -25 83.5 -25q22 0 47.5 5t45.5 13v178h-88q-51 0 -83.5 -25.5t-32.5 -76.5q0 -44 27.5 -69zM129 90q-31 8 -57 25q-69 44 -69 139q0 97 68 150q55 43 139 43h124q17 0 26 -9t9 -26v-252q0 -44 14 -60.5t57 -16.5h24q40 0 40 -40q0 -24 -9 -33.5t-31 -9.5
h-34q-59 0 -91 21q-42 25 -49 79q-47 -18 -103 -18q-27 0 -58 8z" />
    <glyph glyph-name="uniFEEE" unicode="&#x648;" horiz-adv-x="495" arabic-form="final" 
d="M423 0q-7 -115 -84 -165q-67 -44 -203 -44h-7q-16 0 -25.5 9t-9.5 26v13q0 17 8 26t23 9q105 0 154 23q30 14 45.5 38.5t16.5 64.5h-113q-88 0 -135 39q-55 44 -55 135q0 41 14 80t39 69q57 67 145 67q100 0 147 -71q42 -63 42 -189v-47h70q40 0 40 -40q0 -24 -9 -33.5
t-31 -9.5h-72zM234 83h107v66q0 79 -26.5 120.5t-84.5 41.5q-53 0 -84 -41q-28 -39 -28 -88q0 -99 116 -99z" />
    <glyph glyph-name="uniFBE8" unicode="&#x649;" horiz-adv-x="308" arabic-form="initial" 
d="M229 9.5q-9 -9.5 -26 -9.5h-203q-40 0 -40 40q0 24 9 33.5t31 9.5h156v267q0 17 9.5 26t25.5 9h12q17 0 26 -9t9 -26v-315q0 -16 -9 -25.5z" />
    <glyph glyph-name="uniFBE9" unicode="&#x649;" horiz-adv-x="328" arabic-form="medial" 
d="M0 0q-40 0 -40 40q0 24 9 33.5t31 9.5h67q26 0 42.5 2.5t27.5 9.5q22 15 22 61v194q0 17 9.5 26t25.5 9h12q17 0 26 -9t9 -26v-157q0 -55 17 -80q21 -30 70 -30q40 0 40 -40q0 -24 -9 -33.5t-31 -9.5q-37 0 -61.5 18t-33.5 47q-17 -39 -53 -52t-98 -13h-82z" />
    <glyph glyph-name="uniFEF0" unicode="&#x649;" horiz-adv-x="710" arabic-form="final" 
d="M641 0q11 -12 19 -33.5t8 -41.5q0 -31 -18 -59.5t-56 -50.5q-87 -50 -255 -50q-188 0 -270 69q-37 31 -53 73.5t-16 96.5v119q0 17 9.5 26t25.5 9h11q17 0 26 -9t9 -26v-104q0 -90 61.5 -131t198.5 -41q106 0 178 22q74 23 74 63t-81 73q-42 16 -74 25l-40 11
q-29 7 -29 39v8q0 15 7 23t19 8q4 0 14 -2q105 -34 201 -34h101q40 0 40 -40q0 -24 -9 -33.5t-31 -9.5h-70z" />
    <glyph glyph-name="uniFEF3" unicode="&#x64a;" horiz-adv-x="308" arabic-form="initial" 
d="M229 9.5q-9 -9.5 -26 -9.5h-203q-40 0 -40 40q0 24 9 33.5t31 9.5h156v267q0 17 9.5 26t25.5 9h12q17 0 26 -9t9 -26v-315q0 -16 -9 -25.5zM56.5 -113.5q15.5 15.5 37.5 15.5t37.5 -15.5t15.5 -37.5t-15.5 -37.5t-37.5 -15.5t-37.5 15.5t-15.5 37.5t15.5 37.5z
M186.5 -113.5q15.5 15.5 37.5 15.5t37.5 -15.5t15.5 -37.5t-15.5 -37.5t-37.5 -15.5t-37.5 15.5t-15.5 37.5t15.5 37.5z" />
    <glyph glyph-name="uniFEF4" unicode="&#x64a;" horiz-adv-x="328" arabic-form="medial" 
d="M0 0q-40 0 -40 40q0 24 9 33.5t31 9.5h67q26 0 42.5 2.5t27.5 9.5q22 15 22 61v194q0 17 9.5 26t25.5 9h12q17 0 26 -9t9 -26v-157q0 -55 17 -80q21 -30 70 -30q40 0 40 -40q0 -24 -9 -33.5t-31 -9.5q-37 0 -61.5 18t-33.5 47q-17 -39 -53 -52t-98 -13h-82zM94.5 -113.5
q15.5 15.5 37.5 15.5t37.5 -15.5t15.5 -37.5t-15.5 -37.5t-37.5 -15.5t-37.5 15.5t-15.5 37.5t15.5 37.5zM224.5 -113.5q15.5 15.5 37.5 15.5t37.5 -15.5t15.5 -37.5t-15.5 -37.5t-37.5 -15.5t-37.5 15.5t-15.5 37.5t15.5 37.5z" />
    <glyph glyph-name="uniFEF2" unicode="&#x64a;" horiz-adv-x="710" arabic-form="final" 
d="M641 0q11 -12 19 -33.5t8 -41.5q0 -31 -18 -59.5t-56 -50.5q-87 -50 -255 -50q-188 0 -270 69q-37 31 -53 73.5t-16 96.5v119q0 17 9.5 26t25.5 9h11q17 0 26 -9t9 -26v-104q0 -90 61.5 -131t198.5 -41q106 0 178 22q74 23 74 63t-81 73q-42 16 -74 25l-40 11
q-29 7 -29 39v8q0 15 7 23t19 8q4 0 14 -2q105 -34 201 -34h101q40 0 40 -40q0 -24 -9 -33.5t-31 -9.5h-70zM224.5 -350.5q15.5 15.5 37.5 15.5t37.5 -15.5t15.5 -37.5t-15.5 -37.5t-37.5 -15.5t-37.5 15.5t-15.5 37.5t15.5 37.5zM354.5 -350.5q15.5 15.5 37.5 15.5
t37.5 -15.5t15.5 -37.5t-15.5 -37.5t-37.5 -15.5t-37.5 15.5t-15.5 37.5t15.5 37.5z" />
    <glyph glyph-name="uniFB51" unicode="&#x671;" horiz-adv-x="239" arabic-form="final" 
d="M270 9.5q-9 -9.5 -31 -9.5h-26q-70 0 -103 29q-40 34 -40 109v541q0 17 9.5 26t25.5 9h12q17 0 26 -9t9 -26v-519q0 -44 14 -60.5t57 -16.5h16q40 0 40 -40q0 -24 -9 -33.5zM190 815v14q0 42 -37 42q-21 0 -40 -16t-27 -40h104zM85 863q30 42 73 42q29 0 45.5 -18.5
t16.5 -51.5v-18q0 -16 -9 -25.5t-26 -9.5h-133h-7q-15 3 -15 13q0 7 7 13.5t16 6.5v45q0 16 4 25.5t12 9.5q16 0 16 -32z" />
    <glyph glyph-name="uniFB68" unicode="&#x679;" horiz-adv-x="308" arabic-form="initial" 
d="M254 507v19q0 53 -46 53q-27 0 -50.5 -21t-35.5 -51h132zM120 679v-110q39 53 94 53q37 0 58 -23.5t21 -65.5v-33q0 -16 -9 -25.5t-26 -9.5h-190q-16 0 -25.5 9.5t-9.5 25.5q0 3 9.5 5t25.5 2h12v172q0 35 20 35t20 -35zM229 9.5q-9 -9.5 -26 -9.5h-203q-40 0 -40 40
q0 24 9 33.5t31 9.5h156v267q0 17 9.5 26t25.5 9h12q17 0 26 -9t9 -26v-315q0 -16 -9 -25.5z" />
    <glyph glyph-name="uniFB69" unicode="&#x679;" horiz-adv-x="328" arabic-form="medial" 
d="M260 507v19q0 53 -46 53q-27 0 -50.5 -21t-35.5 -51h132zM126 679v-110q39 53 94 53q37 0 58 -23.5t21 -65.5v-33q0 -16 -9 -25.5t-26 -9.5h-190q-16 0 -25.5 9.5t-9.5 25.5q0 3 9.5 5t25.5 2h12v172q0 35 20 35t20 -35zM0 0q-40 0 -40 40q0 24 9 33.5t31 9.5h67
q26 0 42.5 2.5t27.5 9.5q22 15 22 61v194q0 17 9.5 26t25.5 9h12q17 0 26 -9t9 -26v-157q0 -55 17 -80q21 -30 70 -30q40 0 40 -40q0 -24 -9 -33.5t-31 -9.5q-37 0 -61.5 18t-33.5 47q-17 -39 -53 -52t-98 -13h-82z" />
    <glyph glyph-name="uniFB67" unicode="&#x679;" horiz-adv-x="895" arabic-form="final" 
d="M504 447v19q0 53 -46 53q-27 0 -50.5 -21t-35.5 -51h132zM370 619v-110q39 53 94 53q37 0 58 -23.5t21 -65.5v-33q0 -16 -9 -25.5t-26 -9.5h-190q-16 0 -25.5 9.5t-9.5 25.5q0 3 9.5 5t25.5 2h12v172q0 35 20 35t20 -35zM833.5 18q-24.5 18 -33.5 47q-9 -21 -23.5 -33.5
t-37.5 -19.5q-40 -12 -130 -12h-407q-58 0 -96.5 8t-61.5 26q-23 17 -33.5 44t-10.5 68v120q0 17 9.5 26t25.5 9h12q17 0 26 -9t9 -26v-90q0 -31 7.5 -49.5t25.5 -27.5q17 -9 47 -12.5t81 -3.5h365q36 0 58 2.5t35 9.5t19 21.5t6 39.5v194q0 17 9.5 26t25.5 9h12q17 0 26 -9
t9 -26v-157q0 -55 17 -80q21 -30 70 -30q40 0 40 -40q0 -24 -9 -33.5t-31 -9.5q-37 0 -61.5 18z" />
    <glyph glyph-name="uniFB58" unicode="&#x67e;" horiz-adv-x="308" arabic-form="initial" 
d="M229 9.5q-9 -9.5 -26 -9.5h-203q-40 0 -40 40q0 24 9 33.5t31 9.5h156v267q0 17 9.5 26t25.5 9h12q17 0 26 -9t9 -26v-315q0 -16 -9 -25.5zM241.5 -188.5q-15.5 -15.5 -37.5 -15.5t-37.5 15.5t-15.5 37.5t15.5 37.5t37.5 15.5t37.5 -15.5t15.5 -37.5t-15.5 -37.5z
M111.5 -188.5q-15.5 -15.5 -37.5 -15.5t-37.5 15.5t-15.5 37.5t15.5 37.5t37.5 15.5t37.5 -15.5t15.5 -37.5t-15.5 -37.5zM174.5 -308.5q-15.5 -15.5 -37.5 -15.5t-37.5 15.5t-15.5 37.5t15.5 37.5t37.5 15.5t37.5 -15.5t15.5 -37.5t-15.5 -37.5z" />
    <glyph glyph-name="uniFB59" unicode="&#x67e;" horiz-adv-x="328" arabic-form="medial" 
d="M0 0q-40 0 -40 40q0 24 9 33.5t31 9.5h67q26 0 42.5 2.5t27.5 9.5q22 15 22 61v194q0 17 9.5 26t25.5 9h12q17 0 26 -9t9 -26v-157q0 -55 17 -80q21 -30 70 -30q40 0 40 -40q0 -24 -9 -33.5t-31 -9.5q-37 0 -61.5 18t-33.5 47q-17 -39 -53 -52t-98 -13h-82zM270.5 -188.5
q-15.5 -15.5 -37.5 -15.5t-37.5 15.5t-15.5 37.5t15.5 37.5t37.5 15.5t37.5 -15.5t15.5 -37.5t-15.5 -37.5zM140.5 -188.5q-15.5 -15.5 -37.5 -15.5t-37.5 15.5t-15.5 37.5t15.5 37.5t37.5 15.5t37.5 -15.5t15.5 -37.5t-15.5 -37.5zM203.5 -308.5q-15.5 -15.5 -37.5 -15.5
t-37.5 15.5t-15.5 37.5t15.5 37.5t37.5 15.5t37.5 -15.5t15.5 -37.5t-15.5 -37.5z" />
    <glyph glyph-name="uniFB57" unicode="&#x67e;" horiz-adv-x="895" arabic-form="final" 
d="M833.5 18q-24.5 18 -33.5 47q-9 -21 -23.5 -33.5t-37.5 -19.5q-40 -12 -130 -12h-407q-58 0 -96.5 8t-61.5 26q-23 17 -33.5 44t-10.5 68v120q0 17 9.5 26t25.5 9h12q17 0 26 -9t9 -26v-90q0 -31 7.5 -49.5t25.5 -27.5q17 -9 47 -12.5t81 -3.5h365q36 0 58 2.5t35 9.5
t19 21.5t6 39.5v194q0 17 9.5 26t25.5 9h12q17 0 26 -9t9 -26v-157q0 -55 17 -80q21 -30 70 -30q40 0 40 -40q0 -24 -9 -33.5t-31 -9.5q-37 0 -61.5 18zM530.5 -188.5q-15.5 -15.5 -37.5 -15.5t-37.5 15.5t-15.5 37.5t15.5 37.5t37.5 15.5t37.5 -15.5t15.5 -37.5
t-15.5 -37.5zM400.5 -188.5q-15.5 -15.5 -37.5 -15.5t-37.5 15.5t-15.5 37.5t15.5 37.5t37.5 15.5t37.5 -15.5t15.5 -37.5t-15.5 -37.5zM463.5 -308.5q-15.5 -15.5 -37.5 -15.5t-37.5 15.5t-15.5 37.5t15.5 37.5t37.5 15.5t37.5 -15.5t15.5 -37.5t-15.5 -37.5z" />
    <glyph glyph-name="uniFB7C" unicode="&#x686;" horiz-adv-x="537" arabic-form="initial" 
d="M401 83q0 120 -63 180q-56 52 -150 52q-27 0 -77 -8q-4 -1 -10 -1q-13 0 -20.5 8.5t-7.5 23.5v9q0 32 29 39q48 13 96 13q74 0 129.5 -25t91.5 -71q34 -44 51 -103t17 -127v-38q0 -16 -9 -25.5t-26 -9.5h-452q-40 0 -40 40q0 24 9 33.5t31 9.5h401zM319.5 -188.5
q-15.5 -15.5 -37.5 -15.5t-37.5 15.5t-15.5 37.5t15.5 37.5t37.5 15.5t37.5 -15.5t15.5 -37.5t-15.5 -37.5zM189.5 -188.5q-15.5 -15.5 -37.5 -15.5t-37.5 15.5t-15.5 37.5t15.5 37.5t37.5 15.5t37.5 -15.5t15.5 -37.5t-15.5 -37.5zM252.5 -308.5q-15.5 -15.5 -37.5 -15.5
t-37.5 15.5t-15.5 37.5t15.5 37.5t37.5 15.5t37.5 -15.5t15.5 -37.5t-15.5 -37.5z" />
    <glyph glyph-name="uniFB7D" unicode="&#x686;" horiz-adv-x="550" arabic-form="medial" 
d="M0 0q-40 0 -40 40q0 24 9 33.5t31 9.5h401q0 120 -63 180q-56 52 -150 52q-27 0 -77 -8q-4 -1 -10 -1q-13 0 -20.5 8.5t-7.5 23.5v9q0 32 29 39q48 13 96 13q142 0 219 -93q34 -42 51.5 -99.5t18.5 -123.5h62q40 0 40 -40q0 -24 -9 -33.5t-31 -9.5h-549zM319.5 -188.5
q-15.5 -15.5 -37.5 -15.5t-37.5 15.5t-15.5 37.5t15.5 37.5t37.5 15.5t37.5 -15.5t15.5 -37.5t-15.5 -37.5zM189.5 -188.5q-15.5 -15.5 -37.5 -15.5t-37.5 15.5t-15.5 37.5t15.5 37.5t37.5 15.5t37.5 -15.5t15.5 -37.5t-15.5 -37.5zM252.5 -308.5q-15.5 -15.5 -37.5 -15.5
t-37.5 15.5t-15.5 37.5t15.5 37.5t37.5 15.5t37.5 -15.5t15.5 -37.5t-15.5 -37.5z" />
    <glyph glyph-name="uniFB7B" unicode="&#x686;" horiz-adv-x="637" arabic-form="final" 
d="M274 0q-78 0 -125 -29q-63 -37 -63 -122q0 -82 58 -125q52 -39 139 -39q42 0 77 5t76 21q9 4 19 4q18 0 29 -20l2 -3q5 -9 5 -19q0 -19 -18 -29q-38 -20 -91 -33q-49 -11 -96 -11q-131 0 -206 60q-80 64 -80 180q0 131 90 194q71 49 185 49h213q0 120 -63 180
q-56 52 -150 52q-27 0 -77 -8q-4 -1 -10 -1q-13 0 -20.5 8.5t-7.5 23.5v9q0 32 29 39q48 13 96 13q142 0 219 -93q34 -42 51.5 -99.5t18.5 -123.5h63q40 0 40 -40q0 -24 -9 -33.5t-31 -9.5h-363zM412.5 -142.5q-15.5 -15.5 -37.5 -15.5t-37.5 15.5t-15.5 37.5t15.5 37.5
t37.5 15.5t37.5 -15.5t15.5 -37.5t-15.5 -37.5zM282.5 -142.5q-15.5 -15.5 -37.5 -15.5t-37.5 15.5t-15.5 37.5t15.5 37.5t37.5 15.5t37.5 -15.5t15.5 -37.5t-15.5 -37.5zM345.5 -262.5q-15.5 -15.5 -37.5 -15.5t-37.5 15.5t-15.5 37.5t15.5 37.5t37.5 15.5t37.5 -15.5
t15.5 -37.5t-15.5 -37.5z" />
    <glyph glyph-name="uniFB89" unicode="&#x688;" horiz-adv-x="468" arabic-form="final" 
d="M327 540v19q0 53 -46 53q-27 0 -50.5 -21t-35.5 -51h132zM193 712v-110q39 53 94 53q37 0 58 -23.5t21 -65.5v-33q0 -16 -9 -25.5t-26 -9.5h-190q-16 0 -25.5 9.5t-9.5 25.5q0 3 9.5 5t25.5 2h12v172q0 35 20 35t20 -35zM398 17q-28 17 -55 61q-21 -49 -67 -66
q-35 -12 -94 -12h-117q-16 0 -25.5 9.5t-9.5 25.5v13q0 17 9.5 26t25.5 9h144q42 0 64.5 10.5t22.5 30.5q0 17 -9 35.5t-26 43.5l-86 127q-8 11 -8 22q0 17 18 27l17 11q11 6 20 6q16 0 28 -18l102 -169q19 -31 35.5 -57t28.5 -39q14 -16 26 -23t26 -7q40 0 40 -40
q0 -24 -9 -33.5t-31 -9.5q-42 0 -70 17z" />
    <glyph glyph-name="uniFB8D" unicode="&#x691;" horiz-adv-x="333" arabic-form="final" 
d="M244 507v19q0 53 -46 53q-27 0 -50.5 -21t-35.5 -51h132zM110 679v-110q39 53 94 53q37 0 58 -23.5t21 -65.5v-33q0 -16 -9 -25.5t-26 -9.5h-190q-16 0 -25.5 9.5t-9.5 25.5q0 3 9.5 5t25.5 2h12v172q0 35 20 35t20 -35zM257.5 14q-22.5 14 -34.5 36q0 -76 -9 -124
t-32 -77q-20 -26 -54 -40t-85 -17q-17 -1 -26.5 8.5t-9.5 26.5v13q0 31 35 36q32 3 52.5 13.5t30.5 29.5q12 21 15 52.5t3 95.5v233q0 17 9.5 26t25.5 9h11q17 0 26 -9t9 -26v-107q0 -54 19.5 -82t67.5 -28q40 0 40 -40q0 -24 -9 -33.5t-31 -9.5q-31 0 -53.5 14z" />
    <glyph glyph-name="uniFB8B" unicode="&#x698;" horiz-adv-x="311" arabic-form="final" 
d="M257.5 14q-22.5 14 -34.5 36q0 -76 -9 -124t-32 -77q-20 -26 -54 -40t-85 -17q-17 -1 -26.5 8.5t-9.5 26.5v13q0 31 35 36q32 3 52.5 13.5t30.5 29.5q12 21 15 52.5t3 95.5v233q0 17 9.5 26t25.5 9h11q17 0 26 -9t9 -26v-107q0 -54 19.5 -82t67.5 -28q40 0 40 -40
q0 -24 -9 -33.5t-31 -9.5q-31 0 -53.5 14zM79.5 532.5q15.5 15.5 37.5 15.5t37.5 -15.5t15.5 -37.5t-15.5 -37.5t-37.5 -15.5t-37.5 15.5t-15.5 37.5t15.5 37.5zM209.5 532.5q15.5 15.5 37.5 15.5t37.5 -15.5t15.5 -37.5t-15.5 -37.5t-37.5 -15.5t-37.5 15.5t-15.5 37.5
t15.5 37.5zM146.5 652.5q15.5 15.5 37.5 15.5t37.5 -15.5t15.5 -37.5t-15.5 -37.5t-37.5 -15.5t-37.5 15.5t-15.5 37.5t15.5 37.5z" />
    <glyph glyph-name="uniFB6C" unicode="&#x6a4;" horiz-adv-x="515" arabic-form="initial" 
d="M189.5 590.5q15.5 15.5 37.5 15.5t37.5 -15.5t15.5 -37.5t-15.5 -37.5t-37.5 -15.5t-37.5 15.5t-15.5 37.5t15.5 37.5zM319.5 590.5q15.5 15.5 37.5 15.5t37.5 -15.5t15.5 -37.5t-15.5 -37.5t-37.5 -15.5t-37.5 15.5t-15.5 37.5t15.5 37.5zM256.5 710.5
q15.5 15.5 37.5 15.5t37.5 -15.5t15.5 -37.5t-15.5 -37.5t-37.5 -15.5t-37.5 15.5t-15.5 37.5t15.5 37.5zM210.5 113q34.5 -30 89.5 -30h96v100q0 59 -21 93q-27 44 -86 44q-51 0 -83 -35q-15 -15 -22.5 -37t-7.5 -47q0 -58 34.5 -88zM468 9.5q-9 -9.5 -26 -9.5h-431
q-40 0 -40 40q0 24 9 33.5t31 9.5h114q-27 50 -27 105q0 39 13 77t38 68q26 31 63 48.5t83 17.5q98 0 146 -71q36 -55 36 -142v-151q0 -16 -9 -25.5z" />
    <glyph glyph-name="uniFB6D" unicode="&#x6a4;" horiz-adv-x="494" arabic-form="medial" 
d="M171.5 590.5q15.5 15.5 37.5 15.5t37.5 -15.5t15.5 -37.5t-15.5 -37.5t-37.5 -15.5t-37.5 15.5t-15.5 37.5t15.5 37.5zM301.5 590.5q15.5 15.5 37.5 15.5t37.5 -15.5t15.5 -37.5t-15.5 -37.5t-37.5 -15.5t-37.5 15.5t-15.5 37.5t15.5 37.5zM238.5 710.5
q15.5 15.5 37.5 15.5t37.5 -15.5t15.5 -37.5t-15.5 -37.5t-37.5 -15.5t-37.5 15.5t-15.5 37.5t15.5 37.5zM-1 0q-40 0 -40 40q0 24 9 33.5t31 9.5h114q-27 50 -27 105q0 39 13 77t38 68q26 31 63 48.5t83 17.5q98 0 146 -71q36 -55 36 -142v-103h76q40 0 40 -40
q0 -24 -9 -33.5t-31 -9.5h-542zM198.5 113q34.5 -30 89.5 -30h96v100q0 59 -21 93q-27 44 -86 44q-51 0 -83 -35q-15 -15 -22.5 -37t-7.5 -47q0 -58 34.5 -88z" />
    <glyph glyph-name="uniFB6B" unicode="&#x6a4;" horiz-adv-x="1018" arabic-form="final" 
d="M202 0q-58 0 -96.5 8t-61.5 26q-23 17 -33.5 44t-10.5 68v120q0 17 9.5 26t25.5 9h12q17 0 26 -9t9 -26v-90q0 -31 7.5 -49.5t25.5 -27.5q17 -9 47 -12.5t81 -3.5h347q-27 50 -27 105q0 39 13 77t38 68q26 31 63 48.5t83 17.5q98 0 146 -71q36 -55 36 -142v-103h76
q40 0 40 -40q0 -24 -9 -33.5t-31 -9.5h-816zM675.5 113q34.5 -30 89.5 -30h96v100q0 59 -21 93q-27 44 -86 44q-51 0 -83 -35q-15 -15 -22.5 -37t-7.5 -47q0 -58 34.5 -88zM642.5 590.5q15.5 15.5 37.5 15.5t37.5 -15.5t15.5 -37.5t-15.5 -37.5t-37.5 -15.5t-37.5 15.5
t-15.5 37.5t15.5 37.5zM772.5 590.5q15.5 15.5 37.5 15.5t37.5 -15.5t15.5 -37.5t-15.5 -37.5t-37.5 -15.5t-37.5 15.5t-15.5 37.5t15.5 37.5zM709.5 710.5q15.5 15.5 37.5 15.5t37.5 -15.5t15.5 -37.5t-15.5 -37.5t-37.5 -15.5t-37.5 15.5t-15.5 37.5t15.5 37.5z" />
    <glyph glyph-name="uniFB90" unicode="&#x6a9;" horiz-adv-x="481" arabic-form="initial" 
d="M0 0q-40 0 -40 40q0 24 9 33.5t31 9.5h239q40 0 63 14.5t23 48.5q0 26 -23.5 59.5t-65.5 68.5q-66 56 -173 114q-24 13 -24 29q0 2 2 10q4 11 11 23l8 13q7 9 14.5 14t20.5 11l305 134q8 4 17 4q11 0 17.5 -8.5t6.5 -22.5v-7q0 -29 -27 -41l-267 -118q135 -80 199 -155
q58 -70 58 -133q0 -56 -31 -92q-42 -49 -136 -49h-237z" />
    <glyph glyph-name="uniFB91" unicode="&#x6a9;" horiz-adv-x="509" arabic-form="medial" 
d="M0 0q-40 0 -40 40q0 24 9 33.5t31 9.5h224q103 0 103 64q0 27 -22 60.5t-61 68.5q-72 64 -177 115q-24 11 -24 29q0 6 1 9q3 13 8 24q1 2 2 5t3 6q5 9 12 14t21 11l313 135q8 4 17 4q11 0 17.5 -8.5t6.5 -22.5v-9q0 -29 -27 -41l-267 -118q103 -53 166.5 -114t85.5 -123
q22 -66 47 -89q11 -11 25.5 -15.5t34.5 -4.5q40 0 40 -40q0 -24 -9 -33.5t-31 -9.5q-24 0 -40.5 2.5t-30.5 10.5q-32 18 -54 65h-4q-18 -44 -60.5 -61t-113.5 -17h-206z" />
    <glyph glyph-name="uniFB8F" unicode="&#x6a9;" horiz-adv-x="909" arabic-form="final" 
d="M868.5 2.5q-16.5 2.5 -30.5 10.5q-32 18 -54 65h-4q-18 -44 -60.5 -61t-113.5 -17h-404q-58 0 -96.5 8t-61.5 26q-23 17 -33.5 44t-10.5 68v120q0 17 9.5 26t25.5 9h12q17 0 26 -9t9 -26v-90q0 -31 7.5 -49.5t25.5 -27.5q17 -9 47 -12.5t81 -3.5h381q103 0 103 64
q0 27 -22 60.5t-61 68.5q-72 64 -177 115q-24 11 -24 29q0 6 1 9q3 13 8 24q1 2 2 5t3 6q5 9 12 14t21 11l313 135q8 4 17 4q11 0 17.5 -8.5t6.5 -22.5v-9q0 -29 -27 -41l-267 -118q103 -53 166.5 -114t85.5 -123q22 -66 47 -89q11 -11 25.5 -15.5t34.5 -4.5q40 0 40 -40
q0 -24 -9 -33.5t-31 -9.5q-24 0 -40.5 2.5z" />
    <glyph glyph-name="uniFB94" unicode="&#x6af;" horiz-adv-x="481" arabic-form="initial" 
d="M0 0q-40 0 -40 40q0 24 9 33.5t31 9.5h239q40 0 63 14.5t23 48.5q0 26 -23.5 59.5t-65.5 68.5q-66 56 -173 114q-24 13 -24 29q0 2 2 10q4 11 11 23l8 13q7 9 14.5 14t20.5 11l305 134q8 4 17 4q11 0 17.5 -8.5t6.5 -22.5v-7q0 -29 -27 -41l-267 -118q135 -80 199 -155
q58 -70 58 -133q0 -56 -31 -92q-42 -49 -136 -49h-237zM415 683l-310 -136q-15 -7 -30 -7q-9 0 -14 3.5t-2 10.5q4 13 13 27q17 28 30 34l299 136q8 4 17 4q11 0 17.5 -8t6.5 -22v-1q0 -29 -27 -41z" />
    <glyph glyph-name="uniFB95" unicode="&#x6af;" horiz-adv-x="509" arabic-form="medial" 
d="M0 0q-40 0 -40 40q0 24 9 33.5t31 9.5h224q103 0 103 64q0 27 -22 60.5t-61 68.5q-72 64 -177 115q-24 11 -24 29q0 6 1 9q3 13 8 24q1 2 2 5t3 6q5 9 12 14t21 11l313 135q8 4 17 4q11 0 17.5 -8.5t6.5 -22.5v-9q0 -29 -27 -41l-267 -118q103 -53 166.5 -114t85.5 -123
q22 -66 47 -89q11 -11 25.5 -15.5t34.5 -4.5q40 0 40 -40q0 -24 -9 -33.5t-31 -9.5q-24 0 -40.5 2.5t-30.5 10.5q-32 18 -54 65h-4q-18 -44 -60.5 -61t-113.5 -17h-206zM417 683l-310 -136q-15 -7 -30 -7q-9 0 -14 3.5t-2 10.5q4 13 13 27q17 28 30 34l299 136q8 4 17 4
q11 0 17.5 -8t6.5 -22v-1q0 -29 -27 -41z" />
    <glyph glyph-name="uniFB93" unicode="&#x6af;" horiz-adv-x="909" arabic-form="final" 
d="M868.5 2.5q-16.5 2.5 -30.5 10.5q-32 18 -54 65h-4q-18 -44 -60.5 -61t-113.5 -17h-404q-58 0 -96.5 8t-61.5 26q-23 17 -33.5 44t-10.5 68v120q0 17 9.5 26t25.5 9h12q17 0 26 -9t9 -26v-90q0 -31 7.5 -49.5t25.5 -27.5q17 -9 47 -12.5t81 -3.5h381q103 0 103 64
q0 27 -22 60.5t-61 68.5q-72 64 -177 115q-24 11 -24 29q0 6 1 9q3 13 8 24q1 2 2 5t3 6q5 9 12 14t21 11l313 135q8 4 17 4q11 0 17.5 -8.5t6.5 -22.5v-9q0 -29 -27 -41l-267 -118q103 -53 166.5 -114t85.5 -123q22 -66 47 -89q11 -11 25.5 -15.5t34.5 -4.5q40 0 40 -40
q0 -24 -9 -33.5t-31 -9.5q-24 0 -40.5 2.5zM818 683l-310 -136q-15 -7 -30 -7q-9 0 -14 3.5t-2 10.5q4 13 13 27q17 28 30 34l299 136q8 4 17 4q11 0 17.5 -8t6.5 -22v-1q0 -29 -27 -41z" />
    <glyph glyph-name="uniFB9F" unicode="&#x6ba;" horiz-adv-x="636" arabic-form="final" 
d="M549 49v-37q0 -128 -70 -188t-204 -60q-137 0 -206 61t-69 179v119q0 17 9.5 26t25.5 9h11q17 0 26 -9t9 -26v-102q0 -94 48 -134.5t148 -40.5q52 0 87.5 8t58.5 26t34 50.5t11 82.5v222q0 17 9.5 26t25.5 9h11q17 0 26 -9t9 -26v-42q0 -57 16 -80q19 -30 71 -30
q40 0 40 -40q0 -24 -9 -33.5t-31 -9.5q-60 0 -87 49z" />
    <glyph glyph-name="uniFBAC" unicode="&#x6be;" horiz-adv-x="662" arabic-form="initial" 
d="M603 9.5q-9 -9.5 -26 -9.5h-577q-40 0 -40 40q0 24 9 33.5t31 9.5h159q-28 41 -28 104q0 55 25 99.5t73 61.5q-30 0 -45 -1q-36 0 -36 35v5q0 17 9 26t26 9h30q179 0 277 -68q122 -86 122 -281v-38q0 -16 -9 -25.5zM281 83q38 0 57 37q14 25 14 68q0 49 -17 79
q-19 34 -57 34q-35 0 -54.5 -31.5t-19.5 -83.5q0 -43 16 -68q19 -34 56 -35h5zM528 83q0 103 -41.5 162.5t-120.5 83.5q29 -22 46 -66q12 -33 12 -72q0 -64 -23 -108h127z" />
    <glyph glyph-name="uniFBAD" unicode="&#x6be;" horiz-adv-x="522" arabic-form="medial" 
d="M409 0v-4q38 -37 38 -95q0 -63 -39 -103q-42 -44 -118 -44q-99 0 -143 64q-40 55 -40 171v11h-107q-40 0 -40 40q0 24 9 33.5t31 9.5h107v58q0 123 48.5 190t136.5 67q79 0 123 -56q17 -23 25.5 -50.5t8.5 -53.5q0 -92 -71 -151v-4h145q40 0 40 -40q0 -24 -9 -33.5
t-31 -9.5h-114zM189 83h45q70 0 107 51q15 20 22.5 44t7.5 46q0 46 -22.5 69.5t-57.5 23.5q-49 0 -75.5 -43.5t-26.5 -124.5v-66zM189 0v-19q0 -36 4 -61.5t14 -44.5q12 -21 31.5 -32t50.5 -11q41 0 62 20.5t21 58.5q0 32 -17 54q-29 35 -92 35h-74z" />
    <glyph glyph-name="uniFBAB" unicode="&#x6be;" horiz-adv-x="554" arabic-form="final" 
d="M441 0v-4q38 -37 38 -95q0 -62 -39 -103q-42 -44 -118 -44q-99 0 -143 64q-40 55 -40 171v11h-32q-19 0 -29.5 -4t-16.5 -13q-4 -5 -5 -11q-4 -17 -12 -25.5t-24 -8.5q-3 0 -7 7.5t-7 21.5q-6 25 -6 44q0 43 29 60q19 12 56 12h54v58q0 123 48.5 190t136.5 67
q79 0 123 -56q17 -23 25.5 -50.5t8.5 -53.5q0 -92 -71 -151v-4h145q40 0 40 -40q0 -24 -9 -33.5t-31 -9.5h-114zM221 83h45q70 0 107 51q15 20 22.5 44t7.5 46q0 46 -22.5 69.5t-57.5 23.5q-49 0 -75.5 -43.5t-26.5 -124.5v-66zM221 0v-19q0 -36 4 -61.5t14 -44.5
q12 -21 31.5 -32t50.5 -11q41 0 62 20.5t21 58.5q0 32 -17 54q-29 35 -92 35h-74z" />
    <glyph glyph-name="uniFBA5" unicode="&#x6c0;" horiz-adv-x="464" arabic-form="final" 
d="M110.5 192q27.5 -25 83.5 -25q22 0 47.5 5t45.5 13v178h-88q-51 0 -83.5 -25.5t-32.5 -76.5q0 -44 27.5 -69zM129 90q-31 8 -57 25q-69 44 -69 139q0 97 68 150q55 43 139 43h124q17 0 26 -9t9 -26v-252q0 -44 14 -60.5t57 -16.5h24q40 0 40 -40q0 -24 -9 -33.5t-31 -9.5
h-34q-59 0 -91 21q-42 25 -49 79q-47 -18 -103 -18q-27 0 -58 8zM285.5 585q7.5 -9 7.5 -26q0 -5 -9.5 -7.5t-25.5 -2.5h-113q-17 0 -26 9.5t-9 25.5q0 5 9.5 7.5t25.5 2.5h10q-14 23 -14 51q0 42 25 65.5t60 23.5q15 0 21 -1q27 -3 27 -37q0 -11 -12 -11q-6 0 -9 1
q-14 2 -22 2q-23 0 -34.5 -13t-11.5 -32q0 -21 13.5 -35t38.5 -14h28q13 0 20.5 -9z" />
    <glyph glyph-name="uniFBA8" unicode="&#x6c1;" horiz-adv-x="308" arabic-form="initial" 
d="M229 9.5q-9 -9.5 -26 -9.5h-21q-19 -27 -27 -46.5t-8 -39.5q0 -18 8 -28.5t25 -10.5q1 -1 5 -4.5t7.5 -9t3.5 -11.5q0 -8 -7 -16q-18 -19 -44 -19q-35 0 -53 21.5t-18 55.5q0 26 10.5 55t29.5 53h-114q-40 0 -40 40q0 24 9 33.5t31 9.5h156v267q0 17 9.5 26t25.5 9h12
q17 0 26 -9t9 -26v-315q0 -16 -9 -25.5z" />
    <glyph glyph-name="uniFBA9" unicode="&#x6c1;" horiz-adv-x="461" arabic-form="medial" 
d="M0 0q-40 0 -40 40q0 24 9 33.5t31 9.5h172q31 0 31 -26q0 -9 -2 -14l-8 -25l-6 -19q-14 -45 -14 -76q0 -29 10 -49q12 -29 42 -41q33 128 82 189t124 61h30q40 0 40 -40q0 -24 -9 -33.5t-31 -9.5h-33q-34 0 -57.5 -20.5t-41.5 -60.5q-24 -53 -52 -166q-6 -27 -28 -27
q-9 0 -17 4q-69 30 -103 70t-34 100q0 49 20 96v4h-115z" />
    <glyph glyph-name="uniFBA7" unicode="&#x6c1;" horiz-adv-x="287" arabic-form="final" 
d="M270 0q-34 0 -53.5 14.5t-36.5 40.5q-20 30 -31.5 42.5t-33.5 12.5q-24 0 -37.5 -24t-13.5 -68v-6q2 -36 -33 -36q-14 0 -21.5 6t-8.5 16q-1 8 -1 23q0 74 33 124q16 24 38 37t48 13q29 0 45 -14t33 -42t33 -42t45 -14h12q40 0 40 -40q0 -24 -9 -33.5t-31 -9.5h-17z" />
    <glyph glyph-name="uni06C2.fina" unicode="&#x6c2;" horiz-adv-x="287" 
d="M270 0q-34 0 -53.5 14.5t-36.5 40.5q-20 30 -31.5 42.5t-33.5 12.5q-24 0 -37.5 -24t-13.5 -68v-6q2 -36 -33 -36q-14 0 -21.5 6t-8.5 16q-1 8 -1 23q0 74 33 124q16 24 38 37t48 13q29 0 45 -14t33 -42t33 -42t45 -14h12q40 0 40 -40q0 -24 -9 -33.5t-31 -9.5h-17z
M168.5 331q7.5 -9 7.5 -26q0 -5 -9.5 -7.5t-25.5 -2.5h-113q-17 0 -26 9.5t-9 25.5q0 5 9.5 7.5t25.5 2.5h10q-14 23 -14 51q0 42 25 65.5t60 23.5q15 0 21 -1q27 -3 27 -37q0 -11 -12 -11q-6 0 -9 1q-14 2 -22 2q-23 0 -34.5 -13t-11.5 -32q0 -21 13.5 -35t38.5 -14h28
q13 0 20.5 -9z" />
    <glyph glyph-name="uni06C3.fina" unicode="&#x6c3;" horiz-adv-x="464" 
d="M110.5 192q27.5 -25 83.5 -25q22 0 47.5 5t45.5 13v178h-88q-51 0 -83.5 -25.5t-32.5 -76.5q0 -44 27.5 -69zM129 90q-31 8 -57 25q-69 44 -69 139q0 97 68 150q55 43 139 43h124q17 0 26 -9t9 -26v-252q0 -44 14 -60.5t57 -16.5h24q40 0 40 -40q0 -24 -9 -33.5t-31 -9.5
h-34q-59 0 -91 21q-42 25 -49 79q-47 -18 -103 -18q-27 0 -58 8zM120.5 666.5q15.5 15.5 37.5 15.5t37.5 -15.5t15.5 -37.5t-15.5 -37.5t-37.5 -15.5t-37.5 15.5t-15.5 37.5t15.5 37.5zM250.5 666.5q15.5 15.5 37.5 15.5t37.5 -15.5t15.5 -37.5t-15.5 -37.5t-37.5 -15.5
t-37.5 15.5t-15.5 37.5t15.5 37.5z" />
    <glyph glyph-name="uniFBFE" unicode="&#x6cc;" horiz-adv-x="308" arabic-form="initial" 
d="M229 9.5q-9 -9.5 -26 -9.5h-203q-40 0 -40 40q0 24 9 33.5t31 9.5h156v267q0 17 9.5 26t25.5 9h12q17 0 26 -9t9 -26v-315q0 -16 -9 -25.5zM56.5 -113.5q15.5 15.5 37.5 15.5t37.5 -15.5t15.5 -37.5t-15.5 -37.5t-37.5 -15.5t-37.5 15.5t-15.5 37.5t15.5 37.5z
M186.5 -113.5q15.5 15.5 37.5 15.5t37.5 -15.5t15.5 -37.5t-15.5 -37.5t-37.5 -15.5t-37.5 15.5t-15.5 37.5t15.5 37.5z" />
    <glyph glyph-name="uniFBFF" unicode="&#x6cc;" horiz-adv-x="328" arabic-form="medial" 
d="M0 0q-40 0 -40 40q0 24 9 33.5t31 9.5h67q26 0 42.5 2.5t27.5 9.5q22 15 22 61v194q0 17 9.5 26t25.5 9h12q17 0 26 -9t9 -26v-157q0 -55 17 -80q21 -30 70 -30q40 0 40 -40q0 -24 -9 -33.5t-31 -9.5q-37 0 -61.5 18t-33.5 47q-17 -39 -53 -52t-98 -13h-82zM94.5 -113.5
q15.5 15.5 37.5 15.5t37.5 -15.5t15.5 -37.5t-15.5 -37.5t-37.5 -15.5t-37.5 15.5t-15.5 37.5t15.5 37.5zM224.5 -113.5q15.5 15.5 37.5 15.5t37.5 -15.5t15.5 -37.5t-15.5 -37.5t-37.5 -15.5t-37.5 15.5t-15.5 37.5t15.5 37.5z" />
    <glyph glyph-name="uniFBFD" unicode="&#x6cc;" horiz-adv-x="710" arabic-form="final" 
d="M641 0q11 -12 19 -33.5t8 -41.5q0 -31 -18 -59.5t-56 -50.5q-87 -50 -255 -50q-188 0 -270 69q-37 31 -53 73.5t-16 96.5v119q0 17 9.5 26t25.5 9h11q17 0 26 -9t9 -26v-104q0 -90 61.5 -131t198.5 -41q106 0 178 22q74 23 74 63t-81 73q-42 16 -74 25l-40 11
q-29 7 -29 39v8q0 15 7 23t19 8q4 0 14 -2q105 -34 201 -34h101q40 0 40 -40q0 -24 -9 -33.5t-31 -9.5h-70z" />
    <glyph glyph-name="uniFBAF" unicode="&#x6d2;" horiz-adv-x="450" arabic-form="final" 
d="M239 0q-88 0 -126 -19q-39 -20 -39 -47q0 -20 13.5 -33.5t44.5 -22.5q57 -17 203 -17q95 0 254 23q18 2 28 -6.5t10 -26.5v-8q0 -16 -8 -26t-24 -12q-89 -13 -151.5 -19t-124.5 -6q-197 0 -267 43q-31 19 -41.5 44t-10.5 62q0 69 64.5 111.5t185.5 42.5h200q40 0 40 -40
q0 -24 -9 -33.5t-31 -9.5h-211z" />
    <glyph glyph-name="uniFBB1" unicode="&#x6d3;" horiz-adv-x="450" arabic-form="final" 
d="M239 0q-88 0 -126 -19q-39 -20 -39 -47q0 -20 13.5 -33.5t44.5 -22.5q57 -17 203 -17q95 0 254 23q18 2 28 -6.5t10 -26.5v-8q0 -16 -8 -26t-24 -12q-89 -13 -151.5 -19t-124.5 -6q-197 0 -267 43q-31 19 -41.5 44t-10.5 62q0 69 64.5 111.5t185.5 42.5h200q40 0 40 -40
q0 -24 -9 -33.5t-31 -9.5h-211zM208.5 214q7.5 -9 7.5 -26q0 -5 -9.5 -7.5t-25.5 -2.5h-113q-17 0 -26 9.5t-9 25.5q0 5 9.5 7.5t25.5 2.5h10q-14 23 -14 51q0 42 25 65.5t60 23.5q15 0 21 -1q27 -3 27 -37q0 -11 -12 -11q-6 0 -9 1q-14 2 -22 2q-23 0 -34.5 -13t-11.5 -32
q0 -21 13.5 -35t38.5 -14h28q13 0 20.5 -9z" />
    <glyph glyph-name="uni06D5.fina" unicode="&#x6d5;" horiz-adv-x="464" 
d="M110.5 192q27.5 -25 83.5 -25q22 0 47.5 5t45.5 13v178h-88q-51 0 -83.5 -25.5t-32.5 -76.5q0 -44 27.5 -69zM129 90q-31 8 -57 25q-69 44 -69 139q0 97 68 150q55 43 139 43h124q17 0 26 -9t9 -26v-252q0 -44 14 -60.5t57 -16.5h24q40 0 40 -40q0 -24 -9 -33.5t-31 -9.5
h-34q-59 0 -91 21q-42 25 -49 79q-47 -18 -103 -18q-27 0 -58 8z" />
    <glyph glyph-name="uniFDF2" unicode="&#xfdf2;" horiz-adv-x="1328" arabic-form="isolated" 
d="M429 0q-55 0 -89 18.5t-48 64.5q-43 -6 -91 -6q-93 0 -147 39.5t-54 108.5q0 49 23.5 87.5t65.5 65.5q39 25 90.5 38t106.5 13v23q0 17 9.5 26t25.5 9h12q17 0 26 -9t9 -26v-292q0 -44 14 -60.5t57 -16.5h97q40 0 56 12q20 17 20 61v523q0 17 9.5 26t25.5 9h12
q17 0 26 -9t9 -26v-486q0 -53 20 -81.5t61 -28.5h162v596q0 17 9.5 26t25.5 9h12q17 0 26 -9t9 -26v-644q0 -16 -9 -25.5t-26 -9.5h-209q-35 0 -57.5 18t-31.5 47q-17 -39 -54 -52t-105 -13h-98zM112 176q32 -23 106 -23q37 0 68 6v196q-95 -4 -149.5 -35t-54.5 -87
q0 -36 30 -57zM1185.5 705q9.5 9 25.5 9h12q17 0 26 -9t9 -26v-644q0 -16 -9 -25.5t-26 -9.5h-12q-16 0 -25.5 9.5t-9.5 25.5v644q0 17 9.5 26z" />
    <glyph glyph-name="uniFDFA" unicode="&#xfdfa;" horiz-adv-x="1057" arabic-form="isolated" 
d="M1001 398q-16 -24 -31 -31q-46 -21 -116 -21q-14 0 -48 2q-24 -47 -38 -47q-4 0 -4 6q0 16 22 47q-43 16 -48 26q-41 -26 -50 -26q7 -139 25 -176q19 -36 84 -40l2 2q-21 17 -21 43q0 22 13.5 47.5t35 43t44.5 17.5q9 0 13 -1q15 -3 25.5 -12t14.5 -18.5t-1 -9.5
q-7 0 -13.5 1t-13.5 1q-34 0 -65 -14q-26 -14 -26 -27q0 -15 24.5 -39.5t44.5 -28.5q27 3 110 32l3 -2q6 -6 6 -11q0 -12 -24 -24q-87 -42 -168 -42q-97 0 -119 73q-30 -65 -57 -65q-26 0 -67 44q-65 -56 -197 -56q-37 0 -70 5q9 -79 32 -102q44 -44 176 -44q112 0 165 32
q15 37 28 37q4 0 4 -8q0 -14 -12 -44q6 -13 27 -13q27 0 49 12q21 66 33 66q4 0 4 -11q0 -20 -10 -43q29 -13 44 -13q7 0 8 3v1l-2 13q-2 7 -2 19q0 13 6 28q2 3 4 3q3 0 6.5 -4t4.5 -11q4 -15 4 -26q0 -67 -44 -67q-23 0 -48 19q-15 -26 -59 -26q-48 0 -48 26
q-19 -13 -64 -24q-55 -11 -121 -11q-103 0 -152.5 33t-50.5 121l-22 -32q-17 -25 -26 -26q12 -21 12 -41q0 -26 -16 -42q-8 -8 -21 -8q-20 0 -61 23q-14 -31 -42 -47q-5 -4 -23 -4l-22 -3q-13 -5 -15 -3t-2 4q0 4 24 15q32 12 39 19l34 26q-10 16 -10 40q0 21 18 41.5
t34 20.5l6 -2q16 -10 29 -10q18 0 36 23l23 42q-43 13 -64.5 35.5t-29.5 76.5h-2q-29 -50 -79 -50q-17 0 -39 8q-16 7 -16 12q0 22 28 46.5t57 38.5q16 8 43 17q-1 17 11 38q2 4 6.5 -15.5t7.5 -45.5q6 -47 14 -68q14 -32 56 -45l-11 109l-1 11q0 14 8 33q3 7 9.5 -15
t8.5 -47l9 -96q53 -6 95 -6q104 0 177 40q14 38 19 38q4 0 4 -9q0 -12 -4 -25q38 -35 59 -35q26 0 42 43l-13 161q-74 -3 -88 74h-2q-8 -32 -17 -50.5t-24 -21.5l2 -2q70 4 70 -39q0 -30 -25 -46q-86 -59 -160 -59q-46 0 -74 23.5t-28 65.5q0 34 16 67q-28 8 -38 43h-2
q-15 -51 -55 -51q-49 0 -47 77l-27 -24q-7 -7 -39 -7q-49 0 -49 18q0 12 13 32.5t25 25.5l76 37q0 10 10 31q2 4 5.5 -23t4.5 -54l1 -28q2 -42 32 -42q15 0 29.5 10.5t16.5 22.5l-13 91l-1 11q0 14 8 33q2 6 9.5 -13t11.5 -44l15 -86q9 -21 33 -21q23 0 23 13q0 23 -16 74
q-7 20 -13 42q-3 11 -3 20q0 11 5 26q2 3 10.5 -16.5t14.5 -42.5q19 -63 19 -88q0 -23 -10.5 -47.5t-24.5 -24.5q-4 0 -9 3q-7 -18 -7 -39q0 -75 91 -75q72 0 142 48q2 2 2 3q0 6 -38 12q-43 6 -55.5 9t-12.5 10q0 4 6 13t13.5 15t21.5 13q23 12 35 25q9 12 9 25v7
q0 86 -17 208q-1 5 -1 15q0 13 5 30q2 9 10.5 -17.5t12.5 -53.5q14 -111 25 -151q18 -57 72 -66l-4 73q-1 21 9 44q3 8 9 -15.5t7 -49.5l3 -51q16 6 36 18q15 10 26 10t23 -9l5 -4q20 -12 39 -15q26 27 72 60t63 33q20 0 43.5 -15t23.5 -32q0 -15 -16 -39zM989 -72.5
q-19 -40.5 -49 -69t-60 -28.5q-15 0 -37.5 7.5t-40.5 17.5t-18 14t5 4q7 0 27 -7q29 -8 37 -8q68 0 138 106l-7 22q-18 -26 -37 -26q-14 0 -24.5 12.5t-11.5 28.5q-1 14 6 34t18 35.5t19 15.5t21.5 -12t23 -31.5t9.5 -40.5q0 -34 -19 -74.5zM948 650h4q8 0 8 -5q0 -4 -5 -9
t-13 -8q-59 -24 -121.5 -57t-62.5 -44q0 -2 2 -6v-3q0 -12 -2 -21.5t-7 -4.5q-9 11 -9 26q0 30 26 44q88 50 158 81q10 5 22 7zM459 627.5q7 -25.5 8 -51.5l9 -129q-2 2 -7.5 9t-11.5 19t-7 26l-10 92l-1 12q0 13 7 32l3 8q3 8 10 -17.5zM554 64q10 0 26 -11q10 -7 10 -19
q0 -13 -11 -25q-3 -4 -29 16l-22 16l-7 -9q-12 -15 -27 -15q-9 0 -22 8q-10 7 -10 19q0 13 11 25q7 7 33 -13l20 -15l14 17q6 6 14 6zM972 435.5q-17 9.5 -27 9.5q-19 0 -52 -19.5t-55 -38.5q3 -1 20 -1q44 0 87.5 9.5t43.5 24.5q0 6 -17 15.5zM625 -125q2 0 4.5 -4t2.5 -7
t-3 -13t-9 -12q-6 -3 -15 -3q-10 0 -14 4q-15 -16 -30 -16q-8 0 -16 9q-10 8 -13 8q-8 0 -37 -17q-29 -18 -70 -18q-44 0 -44 8q0 7 32 7t46 2q17 3 35 16q28 19 40 19q8 0 19 -8t13 -8q15 0 18 17q1 13 11 13q4 0 4 -6q0 -7 -1 -9q2 -5 11 -6q12 0 12 12q0 5 2 11q0 1 2 1z
M642 624l122 57l6 3q8 3 12 3q5 0 5 -4q0 -10 -19 -20l-107 -53q-19 -10 -32.5 -12.5t-12.5 2.5q2 13 26 24zM169 263q-88 -34 -88 -52q0 -10 31 -10q34 0 59 24zM303 633q-13 0 -21 8q-18 -15 -30 -15q-21 0 -21 27v4q1 3 5 8t6 -2q4 -14 15 -14q12 0 19 16l4 1q7 0 11 -6
q4 -4 11 -4q13 0 11 15l1.5 0.5t3.5 0.5q6 0 6 -7q0 -32 -21 -32zM189 487q-16 -9 -41 -17q-34 -16 -34 -26q0 -9 25 -9q29 0 51 13zM190.5 -4q-18.5 14 -34.5 14q-14 0 -14 -12t24.5 -27t40.5 -15q9 0 7 6q-5 20 -23.5 34zM953 42q-16 0 -20 -25q5 -18 31 -18q13 0 15 11
q-6 32 -26 32z" />
    <glyph glyph-name=".notdef" horiz-adv-x="278" 
 />
    <glyph glyph-name=".null" horiz-adv-x="500" 
 />
    <glyph glyph-name="space" unicode=" " horiz-adv-x="278" 
 />
    <glyph glyph-name="uni000D" unicode="&#xd;" horiz-adv-x="200" 
 />
    <glyph glyph-name="exclam" unicode="!" horiz-adv-x="259" 
d="M168 652q9 -9 9 -26v-132l-22 -277q-3 -34 -37 -34q-11 0 -14 34l-22 277v132q0 17 9.5 26t25.5 9h25q17 0 26 -9zM83.5 9.5q-9.5 9.5 -9.5 25.5v41q0 17 9.5 26t25.5 9h41q17 0 26 -9t9 -26v-41q0 -16 -9 -25.5t-26 -9.5h-41q-16 0 -25.5 9.5z" />
    <glyph glyph-name="quotedbl" unicode="&#x22;" horiz-adv-x="426" 
d="M118 465q-9 9 -9 26v188q0 17 9.5 26t25.5 9t24.5 -9t8.5 -26v-188q0 -17 -9 -26t-25 -9t-25 9zM258 465q-9 9 -9 26v188q0 17 9.5 26t25.5 9t24.5 -9t8.5 -26v-188q0 -17 -9 -26t-25 -9t-25 9z" />
    <glyph glyph-name="numbersign" unicode="#" 
d="M113 10q-8 10 -6 27l24 169h-62q-16 0 -25.5 9.5t-9.5 25.5t9 24.5t26 8.5h72l21 150h-67q-16 0 -25.5 9.5t-9.5 25.5t9 24.5t26 8.5h76l24 173q4 32 38 32q17 0 25 -10t6 -27l-24 -168h124l24 173q4 32 38 32q17 0 25 -10t6 -27l-24 -168h54q17 0 26 -9t9 -26
q0 -16 -9 -24.5t-26 -8.5h-63l-21 -150h56q17 0 26 -9t9 -26q0 -16 -9 -24.5t-26 -8.5h-66l-24 -174q-4 -32 -38 -32q-17 0 -25 10t-6 27l24 169h-124l-24 -174q-4 -32 -38 -32h-1q-16 0 -24 10zM231 424l-21 -150h124l21 150h-124z" />
    <glyph glyph-name="dollar" unicode="$" 
d="M251 651q-51 -6 -83 -36.5t-32 -84.5q0 -50 33 -75q27 -23 82 -38v234zM306 63q60 4 94.5 35t34.5 93q0 51 -37 82q-16 13 -37.5 22t-54.5 19v-251zM35 209q8 9 20 9h32q10 0 17 -6.5t8 -16.5q8 -55 45.5 -89t93.5 -43v265q-108 26 -155 66q-26 21 -38 52t-12 75t16 82
t44 66q27 27 64.5 43t80.5 19v41q0 11 7.5 18t17.5 7h5q11 0 18 -7t7 -18v-42q72 -9 117.5 -49.5t69.5 -113.5q1 -3 1 -9q0 -11 -7.5 -18.5t-19.5 -7.5h-30q-8 0 -14.5 5t-8.5 13q-24 83 -108 98v-246l60 -16q58 -16 99 -52q60 -53 60 -134q0 -47 -16 -85.5t-46 -66.5
q-61 -57 -157 -65v-56q0 -11 -7.5 -18.5t-17.5 -7.5h-5q-10 0 -17.5 7t-7.5 18v57q-93 9 -150.5 61.5t-71.5 143.5q-2 12 6 21z" />
    <glyph glyph-name="percent" unicode="%" horiz-adv-x="1000" 
d="M209 -3q0 11 10 24l491 679q15 22 43 22h5q14 0 22 -6t8 -16t-8 -21l-490 -679q-15 -22 -43 -22h-16q-22 0 -22 19zM621 328q41 61 127 61t127 -59q33 -49 33 -141q0 -89 -36 -139q-44 -62 -124 -62q-86 0 -126 58q-36 52 -36 140q0 90 35 142zM675 94q21 -51 70 -51
q51 0 73 50q15 35 15 96t-14 95q-21 50 -71 50t-71 -50q-16 -36 -16 -96q0 -61 14 -94zM127 648q41 61 127 61t127 -59q33 -49 33 -141q0 -89 -36 -139q-44 -62 -124 -62q-86 0 -126 58q-36 52 -36 140q0 90 35 142zM181 414q21 -51 70 -51q51 0 73 50q15 35 15 96t-14 95
q-21 50 -71 50t-71 -50q-16 -36 -16 -96q0 -61 14 -94z" />
    <glyph glyph-name="ampersand" unicode="&#x26;" horiz-adv-x="630" 
d="M247 345q-30 -17 -50.5 -31.5t-36.5 -31.5q-37 -40 -37 -98q0 -26 11.5 -48.5t30.5 -38.5t43.5 -25t50.5 -9q47 0 86 22.5t66 62.5zM517 20l-59 69q-32 -50 -87 -75q-55 -26 -115 -26q-125 0 -184 76q-22 28 -30.5 59.5t-8.5 59.5q0 75 50 132q36 41 117 84l-29 40
q-33 41 -43 79q-7 21 -7 49q0 61 42 103q44 44 119 44q34 0 65 -9t55 -27q53 -41 53 -110q0 -59 -41 -110q-33 -41 -93 -75l129 -157q14 42 20 78q5 33 36 33h11q17 0 26 -10t7 -27q-5 -38 -11 -59q-10 -30 -33 -80l102 -118q10 -11 10 -23q0 -9 -8 -14.5t-22 -5.5h-28
q-26 0 -43 20zM338 488q32 34 32 75q0 32 -22.5 54t-59.5 22q-33 0 -57.5 -19.5t-24.5 -56.5q0 -28 23 -63q11 -17 22 -31l24 -30q43 28 63 49z" />
    <glyph glyph-name="quotesingle" unicode="'" horiz-adv-x="278" 
d="M114 465q-9 9 -9 26v188q0 17 9.5 26t25.5 9t24.5 -9t8.5 -26v-188q0 -17 -9 -26t-25 -9t-25 9z" />
    <glyph glyph-name="parenleft" unicode="(" horiz-adv-x="259" 
d="M251 -177q0 -10 -8 -15.5t-22 -5.5q-18 0 -32 23q-67 109 -99 202q-43 117 -43 243q0 113 36 227t105 212q15 22 43 22q10 0 15.5 -5t5.5 -13q0 -10 -8 -24q-56 -100 -81.5 -202t-25.5 -217q0 -117 25.5 -220.5t81.5 -205.5q7 -14 7 -21z" />
    <glyph glyph-name="parenright" unicode=")" horiz-adv-x="259" 
d="M28 -198q-10 0 -15.5 5t-5.5 13q0 10 8 24q56 100 81.5 202t25.5 217q0 117 -25.5 220.5t-81.5 205.5q-7 14 -7 21q0 10 8 15.5t22 5.5q18 0 32 -23q65 -107 100 -201q42 -120 42 -244q0 -113 -36 -227t-105 -212q-15 -22 -43 -22z" />
    <glyph glyph-name="asterisk" unicode="*" horiz-adv-x="352" 
d="M194.5 705q6.5 -9 6.5 -26v-78l75 28q7 3 15 3q21 0 30 -23q6 -16 -27 -28l-75 -26l46 -63q8 -13 8 -22q0 -15 -16 -27q-14 -11 -34 19l-48 67l-45 -67q-12 -17 -27 -17q-11 0 -22 8q-6 5 -6 13q0 10 11 27l44 62l-73 26q-24 9 -24 29q0 7 3 16q3 8 16 8q7 0 22 -5
l74 -28v78q0 35 27 35q13 0 19.5 -9z" />
    <glyph glyph-name="plus" unicode="+" horiz-adv-x="600" 
d="M325 497q9 -9 9 -26v-184h183q17 0 26 -9t9 -26q0 -16 -9 -24.5t-26 -8.5h-183v-184q0 -16 -9 -25.5t-26 -9.5q-16 0 -24.5 9t-8.5 26v184h-183q-16 0 -25.5 9.5t-9.5 25.5t9 24.5t26 8.5h183v184q0 17 9 26t25 9t25 -9z" />
    <glyph glyph-name="comma" unicode="," horiz-adv-x="278" 
d="M91 9q-8 9 -8 26v41q0 17 9.5 26t25.5 9h41q17 0 26 -9t9 -26v-66q0 -97 -69 -139q-8 -5 -17 -5q-11 0 -17.5 9t-6.5 23q0 2 7.5 7t16.5 12q14 11 23 29q13 26 11 54h-29q-14 0 -22 9z" />
    <glyph glyph-name="hyphen" unicode="-" horiz-adv-x="389" 
d="M59.5 247.5q-9.5 9.5 -9.5 25.5v10q0 17 9.5 26t25.5 9h219q17 0 26 -9t9 -26v-10q0 -16 -9 -25.5t-26 -9.5h-219q-16 0 -25.5 9.5z" />
    <glyph glyph-name="period" unicode="." horiz-adv-x="278" 
d="M92.5 9.5q-9.5 9.5 -9.5 25.5v41q0 17 9.5 26t25.5 9h41q17 0 26 -9t9 -26v-41q0 -16 -9 -25.5t-26 -9.5h-41q-16 0 -25.5 9.5z" />
    <glyph glyph-name="slash" unicode="/" horiz-adv-x="333" 
d="M-6 6q0 9 4 18l269 680q10 27 40 27v0q15 0 23.5 -6.5t8.5 -18.5q0 -4 -4 -16l-269 -680q-10 -27 -40 -27h-7q-25 0 -25 23z" />
    <glyph glyph-name="zero" unicode="0" 
d="M54 511q19 93 64 139q57 59 160 59t160 -59q45 -46 64 -139q12 -58 12 -163t-12 -163q-19 -92 -64 -138q-57 -59 -160 -59t-160 59q-45 46 -64 138q-12 58 -12 163t12 163zM135.5 250.5q3.5 -44.5 15.5 -83.5q32 -104 127 -104q51 0 82 28t46 76q12 41 15 86.5t3 80v43.5
q0 62 -5 93q-11 77 -38 114q-37 50 -103 50q-65 0 -102 -50q-27 -37 -38 -114q-6 -42 -6 -121q0 -54 3.5 -98.5z" />
    <glyph glyph-name="one" unicode="1" 
d="M348 700q8 -9 8 -26v-639q0 -16 -9 -25.5t-26 -9.5h-15q-16 0 -25.5 9.5t-9.5 25.5v473h-149q-16 0 -25.5 9.5t-9.5 25.5q0 32 34 34q61 5 98 25q47 26 64 76q5 16 14.5 23.5t24.5 7.5h2q16 0 24 -9z" />
    <glyph glyph-name="two" unicode="2" 
d="M95 458h-16q-17 0 -26.5 9t-8.5 26q5 87 55 145q30 34 74 52.5t99 18.5q46 0 86.5 -13.5t70.5 -38.5q31 -26 48 -65t17 -87q0 -84 -53 -147q-22 -26 -51 -48.5t-68 -47.5l-66 -39q-71 -42 -107 -89q-20 -26 -26 -59h329q17 0 26 -9t9 -26v-5q0 -16 -9 -25.5t-26 -9.5
h-391q-15 0 -24 8t-9 22l1 8q14 87 62 147q25 30 56 54t76 51q52 32 83.5 54.5t52.5 44.5q23 24 34 52.5t11 64.5q0 55 -40 93q-19 17 -44 26t-53 9q-68 0 -107 -56q-23 -33 -30 -86q-3 -34 -35 -34z" />
    <glyph glyph-name="three" unicode="3" 
d="M218 369v0q0 35 10 35h9h18q58 0 95 30q40 32 40 86q0 55 -35 84.5t-91 29.5q-65 0 -101 -46q-24 -30 -30 -74q-6 -34 -37 -34h-14q-18 0 -27 9.5t-7 27.5q12 79 55 128q58 64 161 64q96 0 154 -46q62 -49 62 -144q0 -47 -27 -84.5t-71 -56.5v-2q63 -14 95.5 -60
t32.5 -112q0 -52 -19 -92.5t-53 -68.5q-33 -27 -77 -41t-95 -14q-110 0 -173 61q-54 50 -61 134q-2 17 7 26.5t27 9.5h16q32 0 36 -33q11 -57 48.5 -90t99.5 -33q31 0 59 9.5t49 27.5q46 38 46 100q0 63 -44 102q-40 34 -107 34l-28 -1q-23 0 -23 34z" />
    <glyph glyph-name="four" unicode="4" 
d="M410 700q9 -9 9 -26v-433h61q17 0 26 -9t9 -26v-5q0 -16 -9 -25.5t-26 -9.5h-61v-131q0 -16 -9 -25.5t-26 -9.5h-10q-16 0 -25.5 9.5t-9.5 25.5v131h-276q-16 0 -25.5 9.5t-9.5 25.5v23q0 24 14 44l294 419q15 22 42 22h7q16 0 25 -9zM339 241v347h-2l-236 -347h238z" />
    <glyph glyph-name="five" unicode="5" 
d="M461 688q9 -9 9 -26v-5q0 -16 -9 -25.5t-26 -9.5h-251l-38 -204l2 -2q22 25 58 38t74 13q48 0 90 -15t72 -45q67 -67 67 -183q0 -46 -16 -88t-46 -75q-32 -34 -79 -53.5t-107 -19.5q-46 0 -87 13.5t-71 40.5q-52 44 -64 112q-1 3 -1 9q0 13 9.5 20.5t24.5 7.5h16
q29 0 38 -31q13 -37 39 -60q40 -37 104 -37q31 0 58 10.5t48 31.5q44 46 44 126q0 70 -44 116q-45 45 -116 45q-64 0 -114 -48q-11 -10 -21 -14.5t-23 -3.5l-10 1q-31 2 -31 30q0 6 1 9l53 299q6 32 38 32h283q17 0 26 -9z" />
    <glyph glyph-name="six" unicode="6" 
d="M177 335q-19 -22 -28.5 -51.5t-9.5 -62.5t10 -62t29 -50q19 -22 46.5 -34t61.5 -12q33 0 60.5 12.5t45.5 34.5q37 45 37 110q0 72 -35 114q-40 47 -108 47t-109 -46zM494 556q0 -13 -8.5 -20.5t-24.5 -7.5h-16q-15 0 -24 7.5t-14 23.5q-12 35 -41.5 55t-70.5 20
q-97 0 -138 -93q-32 -69 -34 -176l2 -2q57 93 177 93q50 0 91 -17.5t69 -48.5q27 -31 42 -73.5t15 -90.5q0 -41 -12.5 -82.5t-38.5 -75.5q-63 -80 -186 -80q-141 0 -201 115q-43 82 -43 226q0 165 55 263q66 117 206 117q78 0 128 -36.5t66 -106.5q1 -3 1 -10z" />
    <glyph glyph-name="seven" unicode="7" 
d="M500 688q9 -9 9 -26v-13q0 -14 -4 -23.5t-14 -19.5q-97 -105 -166 -264q-68 -156 -85 -309q-3 -33 -37 -33h-24q-17 0 -26 9.5t-8 27.5q17 155 87 303q72 153 190 277h-337q-16 0 -25.5 9.5t-9.5 25.5v10q0 17 9.5 26t25.5 9h389q17 0 26 -9z" />
    <glyph glyph-name="eight" unicode="8" 
d="M172 100q42 -37 109 -37q63 0 105 40q40 37 40 98q0 28 -11.5 53t-31.5 43q-44 39 -103 39q-64 0 -106 -37q-44 -38 -44 -99q0 -63 42 -100zM81.5 604q16.5 34 46.5 58q59 47 145 47q110 0 166 -56q25 -25 37 -57.5t12 -67.5q0 -48 -26.5 -87.5t-71.5 -59.5
q63 -20 94.5 -65t31.5 -112q0 -50 -18 -90.5t-50 -68.5q-31 -28 -74.5 -42.5t-92.5 -14.5q-106 0 -171 54q-70 57 -70 162q0 63 32 109.5t92 67.5q-45 18 -72 58.5t-27 88.5q0 42 16.5 76zM192 439q34 -28 89 -28q52 0 84.5 30.5t32.5 83.5q0 52 -32.5 80.5t-86.5 28.5
q-55 0 -87 -28q-37 -32 -37 -81q0 -55 37 -86z" />
    <glyph glyph-name="nine" unicode="9" 
d="M372 586q-40 48 -109 48q-71 0 -107 -51q-32 -47 -32 -117q0 -29 10.5 -56t29.5 -48q19 -22 44.5 -34t55.5 -12q32 0 59.5 12.5t46.5 34.5q39 44 39 109q0 68 -37 114zM54 143q0 13 9 20.5t24 7.5h16q15 0 23.5 -7.5t14.5 -23.5q13 -36 46.5 -56.5t76.5 -20.5
q78 0 117 67.5t43 206.5l-2 2q-24 -45 -68 -71.5t-96 -26.5q-105 0 -166 66q-58 63 -58 171q0 50 17 93t48 74q31 30 74.5 47t93.5 17q111 0 171 -69q72 -83 72 -270q0 -188 -60 -285t-186 -97q-93 0 -148 46q-45 37 -61 99q-1 4 -1 10z" />
    <glyph glyph-name="colon" unicode=":" horiz-adv-x="278" 
d="M92.5 9.5q-9.5 9.5 -9.5 25.5v41q0 17 9.5 26t25.5 9h41q17 0 26 -9t9 -26v-41q0 -16 -9 -25.5t-26 -9.5h-41q-16 0 -25.5 9.5zM185 508q9 -9 9 -26v-41q0 -16 -9 -25.5t-26 -9.5h-41q-16 0 -25.5 9.5t-9.5 25.5v41q0 17 9.5 26t25.5 9h41q17 0 26 -9z" />
    <glyph glyph-name="semicolon" unicode=";" horiz-adv-x="278" 
d="M91 9q-8 9 -8 26v41q0 17 9.5 26t25.5 9h41q17 0 26 -9t9 -26v-66q2 -96 -69 -139q-8 -5 -17 -5q-11 0 -17.5 9t-6.5 23q0 2 7.5 7t16.5 12q14 11 23 29q13 26 11 54h-29q-14 0 -22 9zM185 508q9 -9 9 -26v-41q0 -16 -9 -25.5t-26 -9.5h-41q-16 0 -25.5 9.5t-9.5 25.5v41
q0 17 9.5 26t25.5 9h41q17 0 26 -9z" />
    <glyph glyph-name="less" unicode="&#x3c;" horiz-adv-x="600" 
d="M530 499q11 0 17.5 -8t6.5 -22q0 -23 -26 -35l-399 -181l399 -181q26 -12 26 -41q0 -25 -22 -25q-7 0 -19 5l-441 199q-26 12 -26 41v4q0 29 26 41l441 199q8 4 17 4z" />
    <glyph glyph-name="equal" unicode="=" horiz-adv-x="600" 
d="M543 379q9 -9 9 -26q0 -16 -9 -24.5t-26 -8.5h-434q-16 0 -25.5 9.5t-9.5 25.5t9 24.5t26 8.5h434q17 0 26 -9zM57.5 127.5q-9.5 9.5 -9.5 25.5t9 24.5t26 8.5h434q17 0 26 -9t9 -26q0 -16 -9 -24.5t-26 -8.5h-434q-16 0 -25.5 9.5z" />
    <glyph glyph-name="greater" unicode="&#x3e;" horiz-adv-x="600" 
d="M70 7q-11 0 -17.5 8t-6.5 22q0 23 26 35l399 181l-399 181q-26 12 -26 41q0 25 22 25q7 0 19 -5l441 -199q26 -12 26 -41v-4q0 -29 -26 -41l-441 -199q-8 -4 -17 -4z" />
    <glyph glyph-name="question" unicode="?" 
d="M106 491h-15q-17 0 -26.5 9.5t-8.5 26.5q9 83 58 136q30 33 72 50.5t93 17.5q46 0 85 -13.5t67 -38.5q59 -54 59 -148q0 -54 -27 -100q-11 -18 -24.5 -33.5t-34.5 -36.5q-16 -15 -32.5 -31.5t-26.5 -31.5q-28 -40 -28 -85v-4q0 -16 -9 -25.5t-26 -9.5h-15
q-16 0 -25.5 9.5t-9.5 25.5v12q0 51 30 99q15 23 35.5 43.5l24.5 24.5q3 3 22.5 22t33.5 41q23 35 23 75q0 61 -32.5 95.5t-89.5 34.5q-67 0 -105 -48q-26 -31 -32 -83q-5 -34 -36 -34zM227.5 9.5q-9.5 9.5 -9.5 25.5v41q0 17 9.5 26t25.5 9h41q17 0 26 -9t9 -26v-41
q0 -16 -9 -25.5t-26 -9.5h-41q-16 0 -25.5 9.5z" />
    <glyph glyph-name="at" unicode="@" horiz-adv-x="800" 
d="M356.5 485.5q-29.5 -19.5 -51.5 -52.5q-21 -31 -33 -67.5t-12 -69.5q0 -42 24 -69.5t62 -27.5q32 0 60 20.5t50 55.5q21 32 33 69t12 68q0 18 -6.5 35t-18.5 30q-26 28 -56 28q-34 0 -63.5 -19.5zM609 532q0 -8 -3 -17l-72 -245q-11 -37 -11 -51q0 -31 24 -31
q23 0 47 20.5t45 54.5t33.5 75t12.5 80q0 58 -22 106t-61 83q-38 33 -87 51t-101 18q-63 0 -118.5 -25t-97.5 -70t-65 -103t-23 -123q0 -66 24.5 -124t67.5 -101q43 -44 99 -68t118 -24q65 0 126 27t105 74q10 11 20 15.5t23 4.5q9 0 14 -4.5t5 -12.5q0 -11 -12 -26
q-41 -52 -102 -86q-85 -47 -181 -47q-78 0 -146.5 28.5t-119.5 80.5q-52 52 -80.5 120.5t-28.5 147.5q0 76 29 143.5t81 119.5q51 51 118.5 79.5t142.5 28.5q68 0 130.5 -22.5t109.5 -63.5t73.5 -98.5t26.5 -123.5q0 -62 -22 -115.5t-60 -94.5q-35 -38 -75.5 -59t-76.5 -21
q-27 0 -44.5 16.5t-19.5 48.5h-3q-26 -29 -58 -48t-66 -19q-31 0 -57.5 12t-45.5 34q-19 21 -29.5 50t-10.5 62q0 52 17 103t48 91q31 42 75 66t95 24q81 0 112 -82l13 35q10 28 40 28h2q22 0 22 -22z" />
    <glyph glyph-name="A" unicode="A" horiz-adv-x="648" 
d="M6 24q0 7 3 16l252 646q11 28 41 28h45q31 0 41 -27l252 -647q3 -9 3 -16q0 -24 -30 -24h-32q-30 0 -40 28l-68 187h-302l-70 -187q-10 -28 -40 -28h-25q-30 0 -30 24zM201 295h242l-119 333h-2z" />
    <glyph glyph-name="B" unicode="B" horiz-adv-x="685" 
d="M173 80h238q63 0 98.5 34t35.5 94q0 65 -47 95q-39 24 -108 24h-217v-247zM87.5 9.5q-9.5 9.5 -9.5 25.5v644q0 17 9.5 26t25.5 9h224q67 0 102 -3q61 -7 87 -23q38 -23 61 -60.5t23 -88.5q0 -57 -27.5 -98.5t-78.5 -61.5v-2q65 -14 100.5 -59.5t35.5 -112.5
q0 -39 -14 -76t-41 -65q-62 -64 -162 -64h-310q-16 0 -25.5 9.5zM173 407h190q80 0 116 28t36 86q0 68 -45 94q-19 11 -45.5 15t-61.5 4h-190v-227z" />
    <glyph glyph-name="C" unicode="C" horiz-adv-x="722" 
d="M669 526q0 -13 -9 -20t-24 -7h-25q-28 0 -39 30q-22 60 -72.5 91t-119.5 31q-120 0 -184 -88q-29 -39 -43.5 -91t-14.5 -110q0 -63 14.5 -117t43.5 -93q30 -42 76.5 -65.5t108.5 -23.5q90 0 147 59q43 44 55 114q6 33 37 33h24q16 0 25 -8t9 -22l-1 -8
q-23 -119 -100.5 -183.5t-203.5 -64.5q-159 0 -248 108q-41 50 -61.5 117.5t-20.5 146.5q0 78 22 146.5t65 119.5q43 53 106.5 81.5t144.5 28.5q116 0 195 -59q67 -50 91 -134q2 -8 2 -12z" />
    <glyph glyph-name="D" unicode="D" horiz-adv-x="704" 
d="M87.5 9.5q-9.5 9.5 -9.5 25.5v644q0 17 9.5 26t25.5 9h210q167 0 255 -85t88 -255q0 -184 -82 -276q-86 -98 -261 -98h-210q-16 0 -25.5 9.5zM173 80h158q49 0 91 15q64 21 101 76q48 70 48 190q0 134 -53 200q-59 73 -185 73h-160v-554z" />
    <glyph glyph-name="E" unicode="E" horiz-adv-x="611" 
d="M87.5 9.5q-9.5 9.5 -9.5 25.5v644q0 17 9.5 26t25.5 9h423q17 0 26 -9t9 -26v-10q0 -16 -9 -25.5t-26 -9.5h-363v-227h336q17 0 26 -9t9 -26v-10q0 -16 -9 -25.5t-26 -9.5h-336v-247h366q17 0 26 -9t9 -26v-10q0 -16 -9 -25.5t-26 -9.5h-426q-16 0 -25.5 9.5z" />
    <glyph glyph-name="F" unicode="F" horiz-adv-x="574" 
d="M87.5 9.5q-9.5 9.5 -9.5 25.5v644q0 17 9.5 26t25.5 9h399q17 0 26 -9t9 -26v-10q0 -16 -9 -25.5t-26 -9.5h-339v-227h293q17 0 26 -9t9 -26v-10q0 -16 -9 -25.5t-26 -9.5h-293v-292q0 -16 -9 -25.5t-26 -9.5h-25q-16 0 -25.5 9.5z" />
    <glyph glyph-name="G" unicode="G" horiz-adv-x="759" 
d="M629 30l-17 59q-41 -54 -104 -81q-59 -25 -125 -25q-78 0 -141 29t-109 81q-44 50 -67 115t-23 135q0 79 22 149t64 123q43 55 107.5 85.5t146.5 30.5q124 0 202 -56q71 -52 97 -142q1 -4 1 -11q0 -13 -8.5 -20.5t-23.5 -7.5h-25q-15 0 -24.5 7.5t-14.5 22.5
q-18 57 -65 89q-56 38 -139 38q-63 0 -109.5 -25t-77.5 -69q-29 -41 -43.5 -95.5t-14.5 -113.5q0 -57 16 -108t47 -90q32 -41 78 -64t104 -23q54 0 97.5 18t74.5 50q30 32 44.5 74.5t12.5 90.5h-193q-16 0 -25.5 9.5t-9.5 25.5v10q0 17 9.5 26t25.5 9h243q17 0 26 -9t9 -26
v-306q0 -35 -30 -35q-29 0 -38 30z" />
    <glyph glyph-name="H" unicode="H" horiz-adv-x="722" 
d="M87.5 9.5q-9.5 9.5 -9.5 25.5v644q0 17 9.5 26t25.5 9h25q17 0 26 -9t9 -26v-272h376v272q0 17 9.5 26t25.5 9h25q17 0 26 -9t9 -26v-644q0 -16 -9 -25.5t-26 -9.5h-25q-16 0 -25.5 9.5t-9.5 25.5v292h-376v-292q0 -16 -9 -25.5t-26 -9.5h-25q-16 0 -25.5 9.5z" />
    <glyph glyph-name="I" unicode="I" horiz-adv-x="259" 
d="M91.5 9.5q-9.5 9.5 -9.5 25.5v644q0 17 9.5 26t25.5 9h25q17 0 26 -9t9 -26v-644q0 -16 -9 -25.5t-26 -9.5h-25q-16 0 -25.5 9.5z" />
    <glyph glyph-name="J" unicode="J" horiz-adv-x="519" 
d="M432 705q9 -9 9 -26v-501q0 -82 -45 -133q-55 -62 -166 -62q-100 0 -154 53.5t-54 154.5v9q0 17 9.5 26t25.5 9h25q35 0 35 -30q0 -68 23 -102q26 -40 92 -40q62 0 88 33t26 96v487q0 17 9.5 26t25.5 9h25q17 0 26 -9z" />
    <glyph glyph-name="K" unicode="K" horiz-adv-x="667" 
d="M87.5 9.5q-9.5 9.5 -9.5 25.5v644q0 17 9.5 26t25.5 9h25q17 0 26 -9t9 -26v-321l344 338q20 18 43 18h36q14 0 22 -5.5t8 -13.5q0 -12 -13 -24l-256 -245l282 -383q8 -11 8 -22q0 -9 -8 -15t-22 -6h-40q-28 0 -43 22l-242 339l-119 -111v-215q0 -16 -9 -25.5t-26 -9.5
h-25q-16 0 -25.5 9.5z" />
    <glyph glyph-name="L" unicode="L" 
d="M87.5 9.5q-9.5 9.5 -9.5 25.5v644q0 17 9.5 26t25.5 9h25q17 0 26 -9t9 -26v-599h343q17 0 26 -9t9 -26v-10q0 -16 -9 -25.5t-26 -9.5h-403q-16 0 -25.5 9.5z" />
    <glyph glyph-name="M" unicode="M" horiz-adv-x="871" 
d="M89.5 9.5q-9.5 9.5 -9.5 25.5v644q0 17 9.5 26t25.5 9h65q30 0 40 -28l215 -572l216 572q10 28 40 28h65q17 0 26 -9t9 -26v-644q0 -16 -9 -25.5t-26 -9.5h-20q-16 0 -25.5 9.5t-9.5 25.5v559h-2l-213 -566q-10 -28 -40 -28h-21q-30 0 -40 28l-213 566h-2v-559
q0 -16 -9 -25.5t-26 -9.5h-20q-16 0 -25.5 9.5z" />
    <glyph glyph-name="N" unicode="N" horiz-adv-x="722" 
d="M86.5 9.5q-9.5 9.5 -9.5 25.5v644q0 17 9.5 26t25.5 9h39q28 0 42 -23l361 -556h2v544q0 17 9.5 26t25.5 9h20q17 0 26 -9t9 -26v-644q0 -16 -9 -25.5t-26 -9.5h-42q-28 0 -42 23l-358 550h-2v-538q0 -16 -9 -25.5t-26 -9.5h-20q-16 0 -25.5 9.5z" />
    <glyph glyph-name="O" unicode="O" horiz-adv-x="760" 
d="M60 498.5q22 67.5 64 118.5q44 54 109 84t147 30t147 -30t109 -84q42 -51 64 -118.5t22 -141.5t-22 -141.5t-64 -118.5q-44 -54 -109 -84t-147 -30t-147 30t-109 84q-42 51 -64 118.5t-22 141.5t22 141.5zM147.5 249q14.5 -52 43.5 -93q31 -44 78.5 -68.5t110.5 -24.5
t110.5 24.5t78.5 68.5q29 41 43.5 93t14.5 108t-14.5 108t-43.5 93q-31 44 -78.5 68.5t-110.5 24.5t-110.5 -24.5t-78.5 -68.5q-29 -41 -43.5 -93t-14.5 -108t14.5 -108z" />
    <glyph glyph-name="P" unicode="P" horiz-adv-x="648" 
d="M87.5 9.5q-9.5 9.5 -9.5 25.5v644q0 17 9.5 26t25.5 9h278q107 0 163 -55t56 -156t-56 -156.5t-163 -54.5h-218v-257q0 -16 -9 -25.5t-26 -9.5h-25q-16 0 -25.5 9.5zM173 372h186q156 -1 156 131q0 131 -156 131h-186v-262z" />
    <glyph glyph-name="Q" unicode="Q" horiz-adv-x="760" 
d="M695 -6q0 -11 -9 -23l-4 -5q-13 -16 -26 -16q-10 0 -23 10l-82 66q-70 -43 -171 -43q-82 0 -147 30t-109 84q-42 51 -64 118.5t-22 141.5t22 141.5t64 118.5q44 54 109 84t147 30t147 -30t109 -84q42 -51 64 -118.5t22 -141.5q0 -83 -27.5 -157t-80.5 -127l67 -53
q14 -12 14 -26zM413 150q0 12 10 23l4 5q12 14 27 14q11 0 23 -9l68 -55q41 41 61.5 101t20.5 128q0 56 -14.5 108t-43.5 93q-31 44 -78.5 68.5t-110.5 24.5t-110.5 -24.5t-78.5 -68.5q-29 -41 -43.5 -93t-14.5 -108t14.5 -108t43.5 -93q31 -44 78.5 -68.5t110.5 -24.5
q50 0 99 20l-51 41q-15 12 -15 26z" />
    <glyph glyph-name="R" unicode="R" horiz-adv-x="685" 
d="M371 385q78 0 116 25q49 31 49 102q0 57 -31.5 89.5t-95.5 32.5h-236v-249h198zM87.5 9.5q-9.5 9.5 -9.5 25.5v644q0 17 9.5 26t25.5 9h301q102 0 159.5 -50t57.5 -137q0 -68 -30.5 -116t-93.5 -65v-2q56 -11 82 -53q18 -31 25 -94l3 -53q1 -54 17 -102v-1
q3 -10 -2.5 -25.5t-22.5 -15.5h-31q-33 0 -40 24q-4 15 -6 49l-2 50q-1 44 -16 103q-13 49 -53 69q-21 10 -56 10h-232v-270q0 -16 -9 -25.5t-26 -9.5h-25q-16 0 -25.5 9.5z" />
    <glyph glyph-name="S" unicode="S" horiz-adv-x="648" 
d="M571 514.5q-9 -9.5 -27 -9.5h-21q-29 0 -38 32q-15 58 -59 86t-112 28q-69 0 -110 -26q-50 -32 -50 -96q0 -59 72 -87q31 -13 73 -21q42 -9 87 -19.5t81 -22.5q88 -29 125 -95q19 -34 19 -88t-24.5 -95t-66.5 -68q-39 -25 -88 -37.5t-100 -12.5q-61 0 -114 15.5t-93 45.5
q-75 57 -86 155q-2 17 7 26.5t27 9.5h21q16 0 24.5 -8.5t11.5 -25.5q12 -61 61 -97q56 -41 144 -41q76 0 123 27q58 31 58 103q0 35 -18.5 58.5t-52.5 39.5q-25 11 -55.5 19t-78.5 18l-23 5q-51 11 -89.5 23.5t-67.5 31.5q-72 46 -72 134q0 52 21.5 92t59.5 67
q35 25 81.5 37.5t96.5 12.5q115 0 185 -54q61 -48 75 -135q2 -18 -7 -27.5z" />
    <glyph glyph-name="T" unicode="T" horiz-adv-x="574" 
d="M249.5 9.5q-9.5 9.5 -9.5 25.5v599h-203q-16 0 -25.5 9.5t-9.5 25.5v10q0 17 9.5 26t25.5 9h501q17 0 26 -9t9 -26v-10q0 -16 -9 -25.5t-26 -9.5h-203v-599q0 -16 -9 -25.5t-26 -9.5h-25q-16 0 -25.5 9.5z" />
    <glyph glyph-name="U" unicode="U" horiz-adv-x="722" 
d="M639 705q9 -9 9 -26v-421q0 -136 -72.5 -205.5t-208.5 -69.5q-142 0 -215 66q-78 70 -78 209v421q0 17 9.5 26t25.5 9h25q17 0 26 -9t9 -26v-421q0 -96 51 -145.5t147 -49.5q91 0 138.5 49.5t47.5 145.5v421q0 17 9.5 26t25.5 9h25q17 0 26 -9z" />
    <glyph glyph-name="V" unicode="V" horiz-adv-x="611" 
d="M593.5 707.5q8.5 -6.5 8.5 -18.5q0 -7 -3 -15l-230 -646q-10 -28 -40 -28h-48q-30 0 -40 28l-228 646q-2 5 -2 14q0 12 8 19t23 7h30q30 0 39 -29l195 -590h2l196 590q9 29 40 29h26q15 0 23.5 -6.5z" />
    <glyph glyph-name="W" unicode="W" horiz-adv-x="926" 
d="M906 687q0 -4 -2 -12l-173 -645q-7 -30 -39 -30h-37q-31 0 -39 30l-155 570h-2l-157 -570q-7 -30 -39 -30h-37q-32 0 -39 30l-165 645l-2 12q0 27 32 27h26q30 0 38 -31l133 -563h2l152 564q8 30 39 30h41q32 0 39 -30l150 -564h2l138 564q7 30 38 30h24q32 0 32 -27z
" />
    <glyph glyph-name="X" unicode="X" horiz-adv-x="611" 
d="M28 5.5q-8 5.5 -8 15.5q0 8 8 21l220 325l-206 305q-8 13 -8 21q0 10 8 15.5t22 5.5h36q28 0 42 -23l163 -256l171 256q15 23 42 23h28q14 0 22 -5.5t8 -15.5q0 -8 -8 -21l-207 -305l222 -325q8 -13 8 -21q0 -10 -8 -15.5t-22 -5.5h-38q-28 0 -42 23l-177 272l-183 -272
q-15 -23 -42 -23h-29q-14 0 -22 5.5z" />
    <glyph glyph-name="Y" unicode="Y" horiz-adv-x="648" 
d="M618 708q8 -6 8 -16q0 -9 -7 -20l-246 -380v-257q0 -16 -9 -25.5t-26 -9.5h-25q-16 0 -25.5 9.5t-9.5 25.5v257l-248 380q-7 11 -7 20q0 10 8 16t22 6h35q15 0 25 -5.5t17 -17.5l199 -317l195 317q7 12 17 17.5t25 5.5h30q14 0 22 -6z" />
    <glyph glyph-name="Z" unicode="Z" horiz-adv-x="611" 
d="M31.5 9.5q-9.5 9.5 -9.5 25.5v21q0 25 15 43l429 535h-375q-16 0 -25.5 9.5t-9.5 25.5v10q0 17 9.5 26t25.5 9h452q17 0 26 -9t9 -26v-21q0 -25 -15 -43l-428 -535h420q17 0 26 -9t9 -26v-10q0 -16 -9 -25.5t-26 -9.5h-498q-16 0 -25.5 9.5z" />
    <glyph glyph-name="bracketleft" unicode="[" horiz-adv-x="259" 
d="M250 722q9 -9 9 -26q0 -16 -9 -24.5t-26 -8.5h-72v-793h72q17 0 26 -9.5t9 -25.5t-9 -24.5t-26 -8.5h-117q-16 0 -25.5 9t-9.5 26v859q0 17 9.5 26t25.5 9h117q17 0 26 -9z" />
    <glyph glyph-name="backslash" unicode="\" horiz-adv-x="333" 
d="M66 704l269 -680q3 -9 3 -15q0 -12 -8 -19t-23 -7q-30 0 -40 27l-269 680q-3 9 -3 15q0 12 8 19t23 7v0q30 0 40 -27z" />
    <glyph glyph-name="bracketright" unicode="]" horiz-adv-x="259" 
d="M9.5 -189q-9.5 9 -9.5 26q0 16 9 24.5t26 8.5h72v793h-72q-16 0 -25.5 9.5t-9.5 25.5t9 24.5t26 8.5h117q17 0 26 -9t9 -26v-859q0 -17 -9 -26t-26 -9h-117q-16 0 -25.5 9z" />
    <glyph glyph-name="asciicircum" unicode="^" horiz-adv-x="600" 
d="M70.5 269q-5.5 5 -5.5 14q0 10 6 22l184 367q13 25 41 25h8q28 0 41 -25l184 -367q5 -12 5 -19q0 -10 -8 -16t-22 -6q-24 0 -37 25l-168 335l-165 -334q-14 -26 -42 -26h-6q-10 0 -15.5 5z" />
    <glyph glyph-name="underscore" unicode="_" horiz-adv-x="500" 
d="M9.5 -116q-9.5 9 -9.5 26q0 7 9.5 11t25.5 4h430q17 0 26 -9.5t9 -25.5q0 -7 -9.5 -11t-25.5 -4h-430q-16 0 -25.5 9z" />
    <glyph glyph-name="grave" unicode="`" horiz-adv-x="222" 
d="M91 607l-74 81q-11 11 -11 23q0 9 7.5 14.5t21.5 5.5h23q28 0 42 -24l47 -77q8 -14 8 -24q0 -18 -21 -18q-25 0 -43 19z" />
    <glyph glyph-name="a" unicode="a" horiz-adv-x="537" 
d="M384 267q-20 -15 -67 -22q-21 -5 -43 -6q-53 -7 -84 -17q-39 -12 -55 -43q-9 -16 -9 -40q0 -38 31 -59q26 -17 69 -17q78 0 121 41q18 17 27.5 37t9.5 39v87zM518.5 55.5q3.5 -9.5 3.5 -26.5q0 -32 -27 -37q-13 -4 -34 -4q-34 0 -53 19.5t-19 60.5q-67 -80 -182 -80
q-77 0 -121 34q-50 37 -50 111q0 78 55 118q22 16 51 25t69 16q19 4 67 11q68 6 93 29q14 12 14 36q0 51 -37 71q-28 15 -78 15q-49 0 -81 -15t-43 -51q-5 -16 -13.5 -24t-23.5 -8h-16q-15 0 -24 7.5t-9 20.5q0 6 1 9q13 64 63 98q56 38 151 38q86 0 132 -25q62 -35 62 -117
v-266q0 -34 4 -46t23 -12q3 0 6 1t8 1t8.5 -9.5z" />
    <glyph glyph-name="b" unicode="b" horiz-adv-x="593" 
d="M429 395q-20 28 -51 43.5t-71 15.5q-80 0 -122 -61q-36 -53 -36 -134q0 -83 38 -136q43 -60 125 -60q41 0 71.5 16.5t49.5 45.5q34 52 34 138q0 79 -38 132zM76.5 9.5q-9.5 9.5 -9.5 25.5v644q0 17 9.5 26t25.5 9h15q17 0 26 -9t9 -26v-232h2q20 41 64 61.5t101 20.5
q114 0 179 -81q29 -37 44 -86.5t15 -104.5q0 -56 -14.5 -105t-43.5 -84q-65 -80 -178 -80q-46 0 -89 18q-52 20 -78 63h-2v-34q0 -16 -9 -25.5t-26 -9.5h-15q-16 0 -25.5 9.5z" />
    <glyph glyph-name="c" unicode="c" horiz-adv-x="537" 
d="M497 379q0 -13 -9 -20.5t-24 -7.5h-18q-28 0 -40 29q-14 36 -44.5 55t-74.5 19q-86 0 -126 -62q-35 -52 -35 -140q0 -79 35 -130q39 -59 116 -59q53 0 87 24.5t48 70.5q9 31 39 31h16q15 0 23.5 -7.5t8.5 -20.5q0 -7 -1 -11q-21 -79 -76.5 -120.5t-143.5 -41.5
q-58 0 -104 19t-76 55q-62 71 -62 190q0 59 15.5 109.5t45.5 87.5q64 80 183 80q92 0 151 -43q48 -37 65 -97q1 -4 1 -10z" />
    <glyph glyph-name="d" unicode="d" horiz-adv-x="593" 
d="M517 705q9 -9 9 -26v-644q0 -16 -9 -25.5t-26 -9.5h-15q-16 0 -25.5 9.5t-9.5 25.5v35h-2q-20 -41 -64 -61.5t-101 -20.5q-58 0 -103 21.5t-75 60.5q-30 37 -45 86t-15 104q0 56 15 104.5t44 84.5q30 38 74.5 59t102.5 21q45 0 89 -17q52 -22 78 -64h2v231q0 17 9.5 26
t25.5 9h15q17 0 26 -9zM136 182.5q10 -34.5 29 -60.5q43 -59 121 -59q80 0 122 62q36 52 36 133q0 85 -37 136q-43 60 -126 60q-81 0 -121 -62q-34 -52 -34 -138q0 -37 10 -71.5z" />
    <glyph glyph-name="e" unicode="e" horiz-adv-x="537" 
d="M427 157q9 7 24 7h13q15 0 24 -6.5t9 -19.5q0 -6 -3 -14q-24 -67 -78 -101.5t-132 -34.5q-118 0 -184 77q-59 69 -64 195q0 57 18 107t51 86q33 37 77 56.5t97 19.5q125 0 188 -101q22 -36 34 -78t12 -84q0 -16 -9.5 -24.5t-25.5 -8.5h-352q-2 -74 37 -118
q44 -52 124 -52q94 0 125 72q6 15 15 22zM423 308q-2 31 -13.5 58t-30.5 46q-42 42 -105 42q-65 0 -105 -43q-38 -41 -43 -103h297z" />
    <glyph glyph-name="f" unicode="f" horiz-adv-x="296" 
d="M108.5 9.5q-9.5 9.5 -9.5 25.5v407h-52q-16 0 -25.5 9.5t-9.5 25.5v5q0 17 9.5 26t25.5 9h52v77q0 63 36.5 95.5t106.5 32.5q6 0 24 -2q15 -1 23 -11.5t8 -26.5v-4q0 -33 -20 -33q-8 0 -14.5 1t-13.5 1q-33 0 -49 -13t-16 -45v-72h65q17 0 26 -9t9 -26v-5q0 -16 -9 -25.5
t-26 -9.5h-65v-407q0 -16 -9 -25.5t-26 -9.5h-15q-16 0 -25.5 9.5z" />
    <glyph glyph-name="g" unicode="g" horiz-adv-x="574" 
d="M391 133q17 28 26 63.5t9 72.5q0 75 -33 127q-40 58 -114 58q-78 0 -117 -57q-36 -50 -36 -131q0 -82 31 -133q39 -64 115 -64q79 0 119 64zM501 508q9 -9 9 -26v-438q0 -129 -58.5 -191.5t-181.5 -62.5q-38 0 -75 8.5t-66 25.5q-51 29 -66 80l-2 12q0 13 9 19.5t24 6.5
h16q14 0 22.5 -7t16.5 -22q11 -22 40 -36q38 -19 86 -19q79 0 119 55q36 49 36 141v34h-2q-21 -46 -64.5 -70t-96.5 -24q-110 0 -173 78q-29 35 -43.5 82.5t-14.5 101.5q0 49 13 96.5t39 85.5q64 91 187 91q50 0 90.5 -22t63.5 -64h1v39q0 17 9.5 26t25.5 9h10q17 0 26 -9z
" />
    <glyph glyph-name="h" unicode="h" 
d="M73.5 9.5q-9.5 9.5 -9.5 25.5v644q0 17 9.5 26t25.5 9h15q17 0 26 -9t9 -26v-238h2q18 44 69 68q43 20 94 20q95 0 140 -53q38 -45 38 -136v-305q0 -16 -9 -25.5t-26 -9.5h-15q-16 0 -25.5 9.5t-9.5 25.5v315q0 48 -28 76t-77 28q-75 0 -115 -46q-38 -44 -38 -116v-257
q0 -16 -9 -25.5t-26 -9.5h-15q-16 0 -25.5 9.5z" />
    <glyph glyph-name="i" unicode="i" horiz-adv-x="222" 
d="M78.5 9.5q-9.5 9.5 -9.5 25.5v447q0 17 9.5 26t25.5 9h15q17 0 26 -9t9 -26v-447q0 -16 -9 -25.5t-26 -9.5h-15q-16 0 -25.5 9.5zM145 705q9 -9 9 -26v-34q0 -16 -9 -25.5t-26 -9.5h-15q-16 0 -25.5 9.5t-9.5 25.5v34q0 17 9.5 26t25.5 9h15q17 0 26 -9z" />
    <glyph glyph-name="j" unicode="j" horiz-adv-x="222" 
d="M145 508q9 -9 9 -26v-548q0 -67 -32.5 -99.5t-91.5 -32.5h-11q-16 1 -24.5 11t-8.5 26v3q0 36 9 36q3 -1 9 -1h17q28 0 38 15.5t10 55.5v534q0 17 9.5 26t25.5 9h15q17 0 26 -9zM145 705q9 -9 9 -26v-34q0 -16 -9 -25.5t-26 -9.5h-15q-16 0 -25.5 9.5t-9.5 25.5v34
q0 17 9.5 26t25.5 9h15q17 0 26 -9z" />
    <glyph glyph-name="k" unicode="k" horiz-adv-x="519" 
d="M78.5 9.5q-9.5 9.5 -9.5 25.5v644q0 17 9.5 26t25.5 9h15q17 0 26 -9t9 -26v-388l218 209q17 17 43 17h25q15 0 22.5 -5t7.5 -14q0 -12 -13 -24l-158 -145l192 -287q7 -11 7 -20q0 -10 -8 -16t-22 -6h-30q-28 0 -42 23l-162 247l-80 -74v-161q0 -16 -9 -25.5t-26 -9.5
h-15q-16 0 -25.5 9.5z" />
    <glyph glyph-name="l" unicode="l" horiz-adv-x="222" 
d="M78.5 9.5q-9.5 9.5 -9.5 25.5v644q0 17 9.5 26t25.5 9h15q17 0 26 -9t9 -26v-644q0 -16 -9 -25.5t-26 -9.5h-15q-16 0 -25.5 9.5z" />
    <glyph glyph-name="m" unicode="m" horiz-adv-x="853" 
d="M73.5 9.5q-9.5 9.5 -9.5 25.5v447q0 17 9.5 26t25.5 9h10q17 0 26 -9t9 -26v-41h2q58 88 167 88q52 0 89.5 -21t52.5 -67q26 42 68.5 65t93.5 23q81 0 125 -35q47 -38 47 -115v-344q0 -16 -9 -25.5t-26 -9.5h-15q-16 0 -25.5 9.5t-9.5 25.5v304q0 55 -19 82
q-25 33 -81 33q-63 0 -99 -36t-36 -96v-287q0 -16 -9 -25.5t-26 -9.5h-15q-16 0 -25.5 9.5t-9.5 25.5v304q0 55 -20 83q-24 32 -77 32q-66 0 -106 -51q-15 -20 -23.5 -42.5t-8.5 -38.5v-287q0 -16 -9 -25.5t-26 -9.5h-15q-16 0 -25.5 9.5z" />
    <glyph glyph-name="n" unicode="n" 
d="M73.5 9.5q-9.5 9.5 -9.5 25.5v447q0 17 9.5 26t25.5 9h10q17 0 26 -9t9 -26v-47h2q52 94 168 94q95 0 140 -53q38 -45 38 -136v-305q0 -16 -9 -25.5t-26 -9.5h-15q-16 0 -25.5 9.5t-9.5 25.5v315q0 48 -28 76t-77 28q-75 0 -115 -46q-38 -44 -38 -116v-257
q0 -16 -9 -25.5t-26 -9.5h-15q-16 0 -25.5 9.5z" />
    <glyph glyph-name="o" unicode="o" horiz-adv-x="574" 
d="M52 365.5q16 49.5 48 85.5q70 78 187 78q59 0 106.5 -20.5t80.5 -57.5q32 -36 48 -85.5t16 -107.5t-16 -106.5t-48 -84.5q-33 -38 -80.5 -58.5t-106.5 -20.5q-118 0 -187 79q-32 36 -48 84.5t-16 106.5t16 107.5zM173 114q22 -25 51.5 -38t62.5 -13t62.5 13t51.5 38
q47 52 47 144t-47 145q-22 25 -51.5 38t-62.5 13t-62.5 -13t-51.5 -38q-47 -53 -47 -145t47 -144z" />
    <glyph glyph-name="p" unicode="p" horiz-adv-x="593" 
d="M429 395q-20 28 -51 43.5t-71 15.5q-80 0 -122 -61q-36 -53 -36 -134q0 -83 38 -136q43 -60 125 -60q41 0 71.5 16.5t49.5 45.5q34 52 34 138q0 79 -38 132zM76.5 -189q-9.5 9 -9.5 26v645q0 17 9.5 26t25.5 9h15q17 0 26 -9t9 -26v-35h2q20 41 64 61.5t101 20.5
q114 0 179 -81q29 -37 44 -86.5t15 -104.5q0 -56 -14.5 -105t-43.5 -84q-65 -80 -178 -80q-46 0 -89 18q-52 20 -78 63h-2v-232q0 -17 -9 -26t-26 -9h-15q-16 0 -25.5 9z" />
    <glyph glyph-name="q" unicode="q" horiz-adv-x="593" 
d="M517 508q9 -9 9 -26v-645q0 -17 -9 -26t-26 -9h-15q-16 0 -25.5 9t-9.5 26v233h-2q-20 -41 -64 -61.5t-101 -20.5q-58 0 -103 21.5t-75 60.5q-30 37 -45 86t-15 104q0 56 15 104.5t44 84.5q30 38 74.5 59t102.5 21q45 0 89 -17q52 -22 78 -64h2v34q0 17 9.5 26t25.5 9h15
q17 0 26 -9zM136 182.5q10 -34.5 29 -60.5q43 -59 121 -59q80 0 122 62q36 52 36 133q0 85 -37 136q-43 60 -126 60q-81 0 -121 -62q-34 -52 -34 -138q0 -37 10 -71.5z" />
    <glyph glyph-name="r" unicode="r" horiz-adv-x="333" 
d="M70.5 9.5q-9.5 9.5 -9.5 25.5v447q0 17 9.5 26t25.5 9h10q17 0 26 -9t9 -26v-74h2q26 55 63.5 84.5t90.5 35.5q17 1 26.5 -8t9.5 -27v-20q0 -31 -35 -36q-73 -7 -110 -53q-42 -52 -42 -154v-195q0 -16 -9 -25.5t-26 -9.5h-15q-16 0 -25.5 9.5z" />
    <glyph glyph-name="s" unicode="s" horiz-adv-x="500" 
d="M35 135q0 13 9 20.5t24 7.5h16q15 0 23 -7.5t14 -24.5q11 -30 40 -46q36 -22 94 -22q51 0 83 14q42 19 42 63t-52 66q-19 8 -54 17q-82 16 -125 30q-65 19 -92 67q-15 26 -15 62q0 72 63 113q26 17 60.5 25.5t69.5 8.5q95 0 147 -33q46 -30 60 -91q1 -3 1 -9
q0 -13 -9.5 -21t-24.5 -8h-16q-15 0 -23 7.5t-15 22.5q-10 25 -34 38q-34 19 -79 19q-47 0 -74 -13q-17 -8 -26.5 -21.5t-9.5 -31.5q0 -22 14.5 -36t40.5 -24q22 -10 54 -16q87 -20 123 -31q63 -21 92 -68q14 -26 14 -62q0 -86 -70 -128q-59 -35 -150 -35q-94 0 -151 40
q-50 33 -63 98q-1 3 -1 9z" />
    <glyph glyph-name="t" unicode="t" horiz-adv-x="315" 
d="M173 663q9 -9 9 -26v-120h68q17 0 26 -9t9 -26v-5q0 -16 -9 -25.5t-26 -9.5h-68v-321q0 -15 2.5 -24t9.5 -14q6 -5 18 -6.5t34 -1.5h4q17 0 26 -9t9 -26v-5q0 -16 -9 -25.5t-26 -9.5h-30q-35 0 -57.5 4.5t-36.5 16.5q-15 12 -22 34t-7 58v329h-53q-16 0 -25.5 9.5
t-9.5 25.5v5q0 17 9.5 26t25.5 9h53v120q0 17 9.5 26t25.5 9h15q17 0 26 -9z" />
    <glyph glyph-name="u" unicode="u" 
d="M483 508q9 -9 9 -26v-447q0 -16 -9 -25.5t-26 -9.5h-10q-16 0 -25.5 9.5t-9.5 25.5v47h-2q-52 -94 -168 -94q-95 0 -140 53q-38 45 -38 136v305q0 17 9.5 26t25.5 9h15q17 0 26 -9t9 -26v-315q0 -48 28 -76t77 -28q75 0 115 46q38 44 38 116v257q0 17 9.5 26t25.5 9h15
q17 0 26 -9z" />
    <glyph glyph-name="v" unicode="v" horiz-adv-x="500" 
d="M466 510.5q8 -6.5 8 -17.5q0 -7 -3 -16l-164 -449q-10 -28 -40 -28h-31q-30 0 -40 28l-167 449q-3 9 -3 16q0 11 8 17.5t23 6.5h22q31 0 40 -29l135 -402h2l132 402q9 29 39 29h16q15 0 23 -6.5z" />
    <glyph glyph-name="w" unicode="w" horiz-adv-x="758" 
d="M730 491q0 -9 -2 -14l-143 -448q-9 -29 -39 -29h-29q-32 0 -39 30l-97 381h-2l-96 -381q-7 -30 -39 -30h-31q-30 0 -39 29l-144 448q-2 5 -2 14q0 26 31 26h21q32 0 39 -30l109 -393h2l97 393q7 30 38 30h31q32 0 39 -30l100 -393h2l108 393q8 30 39 30h15q31 0 31 -26z
" />
    <glyph glyph-name="x" unicode="x" horiz-adv-x="518" 
d="M39 6q-8 6 -8 16q0 12 8 21l164 229l-149 202q-8 11 -8 22q0 9 8 15t22 6h29q27 0 42 -22l109 -159l113 159q15 22 43 22h22q14 0 22 -6t8 -15q0 -10 -9 -22l-146 -195l169 -236q9 -12 9 -22q0 -9 -8 -15t-22 -6h-30q-27 0 -42 22l-129 192l-129 -192q-15 -22 -42 -22
h-24q-14 0 -22 6z" />
    <glyph glyph-name="y" unicode="y" horiz-adv-x="500" 
d="M479 493q0 -7 -3 -16l-209 -546q-30 -76 -61 -106q-35 -32 -89 -32q-19 0 -29 2q-30 4 -30 38v7q0 19 6.5 27.5t18.5 4.5q16 -4 25 -4q25 0 41 11.5t29 35.5l35 88l-189 473q-4 12 -4 16q0 12 8.5 18.5t23.5 6.5h22q30 0 40 -28l141 -395h2l135 395q9 28 40 28h17
q30 0 30 -24z" />
    <glyph glyph-name="z" unicode="z" horiz-adv-x="480" 
d="M31.5 9.5q-9.5 9.5 -9.5 25.5v5q0 25 16 44l296 358h-257q-16 0 -25.5 9.5t-9.5 25.5v5q0 17 9.5 26t25.5 9h332q17 0 26 -9t9 -26q0 -23 -16 -42l-300 -365h295q17 0 26 -9t9 -26v-5q0 -16 -9 -25.5t-26 -9.5h-366q-16 0 -25.5 9.5z" />
    <glyph glyph-name="braceleft" unicode="{" horiz-adv-x="333" 
d="M300 722q9 -9 9 -26q0 -12 -9 -18.5t-26 -6.5h-15q-26 0 -38 -27q-10 -20 -10 -59v-183q0 -61 -35 -100q-25 -27 -52 -34v-3q10 -1 24.5 -8.5t27.5 -21.5q35 -39 35 -104v-183q0 -38 10 -58q12 -28 38 -28h15q17 0 26 -9.5t9 -25.5q0 -12 -9 -18.5t-26 -6.5h-35
q-19 0 -38 9t-34 25q-36 38 -36 97v182q0 53 -25 86q-11 14 -28 24q-16 7 -23 15.5t-7 22.5v6q0 14 7 22.5t22 16.5q16 7 29 25q25 33 25 85v182q0 60 36 98q15 16 34 24.5t38 8.5h35q17 0 26 -9z" />
    <glyph glyph-name="bar" unicode="|" horiz-adv-x="222" 
d="M86 -205q-9 9 -9 26v930q0 17 9.5 26t25.5 9t24.5 -9t8.5 -26v-930q0 -17 -9 -26t-25 -9t-25 9z" />
    <glyph glyph-name="braceright" unicode="}" horiz-adv-x="333" 
d="M33.5 -189q-9.5 9 -9.5 26q0 12 9 18.5t26 6.5h15q26 0 39 27q9 21 9 59v183q0 61 35 100q25 27 52 34v3q-10 1 -24.5 8.5t-27.5 22.5q-35 37 -35 103v181q0 39 -9 61q-13 27 -39 27h-15q-16 0 -25.5 9.5t-9.5 25.5q0 12 9 18.5t26 6.5h35q19 0 38.5 -8.5t34.5 -24.5
q35 -38 35 -98v-182q0 -53 26 -86q12 -16 28 -25q15 -7 22 -15.5t7 -22.5v-6q0 -14 -7 -22.5t-22 -16.5q-16 -7 -28 -24q-26 -34 -26 -85v-182q0 -59 -35 -97q-16 -16 -35 -25t-38 -9h-35q-16 0 -25.5 9z" />
    <glyph glyph-name="asciitilde" unicode="~" horiz-adv-x="600" 
d="M499.5 306q9.5 -6 20.5 -22q4 -5 4 -13q0 -12 -11 -26q-14 -20 -32 -35q-34 -27 -75 -27q-26 0 -50 8.5t-52 24.5q-31 19 -57.5 29t-57.5 10q-29 0 -52 -25q-5 -5 -10 -13q-12 -17 -25 -17q-12 0 -23 15q-4 5 -4 13q0 11 9 26q14 21 31 34q34 27 79 27q24 0 49.5 -8
t61.5 -24q19 -8 55 -26q28 -14 47 -14q28 0 51 25q7 7 19 25l9 13q4 6 13.5 0z" />
    <glyph glyph-name="Adieresis" unicode="&#xc4;" horiz-adv-x="648" 
d="M6 24q0 7 3 16l252 646q11 28 41 28h45q31 0 41 -27l252 -647q3 -9 3 -16q0 -24 -30 -24h-32q-30 0 -40 28l-68 187h-302l-70 -187q-10 -28 -40 -28h-25q-30 0 -30 24zM201 295h242l-119 333h-2zM382.5 778.5q-9.5 9.5 -9.5 25.5v34q0 17 9.5 26t25.5 9h20q17 0 26 -9
t9 -26v-34q0 -16 -9 -25.5t-26 -9.5h-20q-16 0 -25.5 9.5zM194.5 778.5q-9.5 9.5 -9.5 25.5v34q0 17 9.5 26t25.5 9h20q17 0 26 -9t9 -26v-34q0 -16 -9 -25.5t-26 -9.5h-20q-16 0 -25.5 9.5z" />
    <glyph glyph-name="Aring" unicode="&#xc5;" horiz-adv-x="648" 
d="M6 24q0 7 3 16l252 646q11 28 41 28h45q31 0 41 -27l252 -647q3 -9 3 -16q0 -24 -30 -24h-32q-30 0 -40 28l-68 187h-302l-70 -187q-10 -28 -40 -28h-25q-30 0 -30 24zM201 295h242l-119 333h-2zM275.5 790.5q19.5 -19.5 48.5 -19.5t48.5 19.5t19.5 48.5t-19.5 48.5
t-48.5 19.5t-48.5 -19.5t-19.5 -48.5t19.5 -48.5zM245 919q33 33 79 33q45 0 80 -33q33 -35 33 -80q0 -46 -33 -79q-34 -34 -80 -34q-47 0 -79 34q-34 32 -34 79q0 46 34 80z" />
    <glyph glyph-name="Ccedilla" unicode="&#xc7;" horiz-adv-x="722" 
d="M669 526q0 -13 -9 -20t-24 -7h-25q-28 0 -39 30q-22 60 -72.5 91t-119.5 31q-120 0 -184 -88q-29 -39 -43.5 -91t-14.5 -110q0 -63 14.5 -117t43.5 -93q30 -42 76.5 -65.5t108.5 -23.5q90 0 147 59q43 44 55 114q6 33 37 33h24q16 0 24.5 -7.5t8.5 -20.5q0 -7 -1 -10
q-22 -116 -98 -180.5t-197 -66.5l-29 -37l2 -2q10 7 33 7q35 0 59.5 -19t24.5 -54q0 -45 -41 -69q-34 -20 -83 -20q-27 0 -57 8q-25 6 -25 28q0 9 4 17q1 4 10 4t24 -3q13 -4 31 -4q24 0 41 7q21 9 21 24q0 14 -13 22.5t-34 8.5q-8 0 -11 -1q-16 -2 -27 2.5t-19 16.5
q-1 2 17 25l31 40q-74 6 -130 36t-93 81q-37 49 -55.5 113.5t-18.5 139.5q0 78 22 146.5t65 119.5q43 53 106.5 81.5t144.5 28.5q116 0 195 -59q67 -50 91 -134q2 -8 2 -12z" />
    <glyph glyph-name="Eacute" unicode="&#xc9;" horiz-adv-x="611" 
d="M87.5 9.5q-9.5 9.5 -9.5 25.5v644q0 17 9.5 26t25.5 9h423q17 0 26 -9t9 -26v-10q0 -16 -9 -25.5t-26 -9.5h-363v-227h336q17 0 26 -9t9 -26v-10q0 -16 -9 -25.5t-26 -9.5h-336v-247h366q17 0 26 -9t9 -26v-10q0 -16 -9 -25.5t-26 -9.5h-426q-16 0 -25.5 9.5zM261 781
q0 11 9 26l47 77q14 24 42 24h23q14 0 22 -5.5t8 -14.5q0 -12 -11 -23l-75 -81q-18 -19 -43 -19h-6q-16 0 -16 16z" />
    <glyph glyph-name="Ntilde" unicode="&#xd1;" horiz-adv-x="722" 
d="M86.5 9.5q-9.5 9.5 -9.5 25.5v644q0 17 9.5 26t25.5 9h39q28 0 42 -23l361 -556h2v544q0 17 9.5 26t25.5 9h20q17 0 26 -9t9 -26v-644q0 -16 -9 -25.5t-26 -9.5h-42q-28 0 -42 23l-358 550h-2v-538q0 -16 -9 -25.5t-26 -9.5h-20q-16 0 -25.5 9.5zM489 882q9 6 23 6
q8 0 12.5 -5.5t4.5 -15.5q0 -7 -3 -18q-6 -18 -22 -41q-28 -31 -79 -31q-22 0 -66 20q-4 1 -27 10t-40 9q-10 0 -21 -4.5t-18 -12.5q-3 -3 -9.5 -11t-12.5 -11t-15 -3q-7 0 -11 5t-4 14q0 8 5 21q10 23 21 37q26 33 70 33q32 0 74 -20t66 -20q20 0 33 18q10 14 19 20z" />
    <glyph glyph-name="Odieresis" unicode="&#xd6;" horiz-adv-x="760" 
d="M60 498.5q22 67.5 64 118.5q44 54 109 84t147 30t147 -30t109 -84q42 -51 64 -118.5t22 -141.5t-22 -141.5t-64 -118.5q-44 -54 -109 -84t-147 -30t-147 30t-109 84q-42 51 -64 118.5t-22 141.5t22 141.5zM147.5 249q14.5 -52 43.5 -93q31 -44 78.5 -68.5t110.5 -24.5
t110.5 24.5t78.5 68.5q29 41 43.5 93t14.5 108t-14.5 108t-43.5 93q-31 44 -78.5 68.5t-110.5 24.5t-110.5 -24.5t-78.5 -68.5q-29 -41 -43.5 -93t-14.5 -108t14.5 -108zM438.5 778.5q-9.5 9.5 -9.5 25.5v34q0 17 9.5 26t25.5 9h20q17 0 26 -9t9 -26v-34q0 -16 -9 -25.5
t-26 -9.5h-20q-16 0 -25.5 9.5zM250.5 778.5q-9.5 9.5 -9.5 25.5v34q0 17 9.5 26t25.5 9h20q17 0 26 -9t9 -26v-34q0 -16 -9 -25.5t-26 -9.5h-20q-16 0 -25.5 9.5z" />
    <glyph glyph-name="Udieresis" unicode="&#xdc;" horiz-adv-x="722" 
d="M639 705q9 -9 9 -26v-421q0 -136 -72.5 -205.5t-208.5 -69.5q-142 0 -215 66q-78 70 -78 209v421q0 17 9.5 26t25.5 9h25q17 0 26 -9t9 -26v-421q0 -96 51 -145.5t147 -49.5q91 0 138.5 49.5t47.5 145.5v421q0 17 9.5 26t25.5 9h25q17 0 26 -9zM419.5 778.5
q-9.5 9.5 -9.5 25.5v34q0 17 9.5 26t25.5 9h20q17 0 26 -9t9 -26v-34q0 -16 -9 -25.5t-26 -9.5h-20q-16 0 -25.5 9.5zM231.5 778.5q-9.5 9.5 -9.5 25.5v34q0 17 9.5 26t25.5 9h20q17 0 26 -9t9 -26v-34q0 -16 -9 -25.5t-26 -9.5h-20q-16 0 -25.5 9.5z" />
    <glyph glyph-name="aacute" unicode="&#xe1;" horiz-adv-x="537" 
d="M384 267q-20 -15 -67 -22q-21 -5 -43 -6q-53 -7 -84 -17q-39 -12 -55 -43q-9 -16 -9 -40q0 -38 31 -59q26 -17 69 -17q78 0 121 41q18 17 27.5 37t9.5 39v87zM518.5 55.5q3.5 -9.5 3.5 -26.5q0 -32 -27 -37q-13 -4 -34 -4q-34 0 -53 19.5t-19 60.5q-67 -80 -182 -80
q-77 0 -121 34q-50 37 -50 111q0 78 55 118q22 16 51 25t69 16q19 4 67 11q68 6 93 29q14 12 14 36q0 51 -37 71q-28 15 -78 15q-49 0 -81 -15t-43 -51q-5 -16 -13.5 -24t-23.5 -8h-16q-15 0 -24 7.5t-9 20.5q0 6 1 9q13 64 63 98q56 38 151 38q86 0 132 -25q62 -35 62 -117
v-266q0 -34 4 -46t23 -12q3 0 6 1t8 1t8.5 -9.5zM224 604q0 11 9 26l47 77q14 24 42 24h23q14 0 22 -5.5t8 -14.5q0 -12 -11 -23l-75 -81q-18 -19 -43 -19h-6q-16 0 -16 16z" />
    <glyph glyph-name="agrave" unicode="&#xe0;" horiz-adv-x="537" 
d="M384 267q-20 -15 -67 -22q-21 -5 -43 -6q-53 -7 -84 -17q-39 -12 -55 -43q-9 -16 -9 -40q0 -38 31 -59q26 -17 69 -17q78 0 121 41q18 17 27.5 37t9.5 39v87zM518.5 55.5q3.5 -9.5 3.5 -26.5q0 -32 -27 -37q-13 -4 -34 -4q-34 0 -53 19.5t-19 60.5q-67 -80 -182 -80
q-77 0 -121 34q-50 37 -50 111q0 78 55 118q22 16 51 25t69 16q19 4 67 11q68 6 93 29q14 12 14 36q0 51 -37 71q-28 15 -78 15q-49 0 -81 -15t-43 -51q-5 -16 -13.5 -24t-23.5 -8h-16q-15 0 -24 7.5t-9 20.5q0 6 1 9q13 64 63 98q56 38 151 38q86 0 132 -25q62 -35 62 -117
v-266q0 -34 4 -46t23 -12q3 0 6 1t8 1t8.5 -9.5zM249 607l-74 81q-11 11 -11 23q0 9 7.5 14.5t21.5 5.5h23q28 0 42 -24l47 -77q8 -14 8 -24q0 -18 -21 -18q-25 0 -43 19z" />
    <glyph glyph-name="acircumflex" unicode="&#xe2;" horiz-adv-x="537" 
d="M384 267q-20 -15 -67 -22q-21 -5 -43 -6q-53 -7 -84 -17q-39 -12 -55 -43q-9 -16 -9 -40q0 -38 31 -59q26 -17 69 -17q78 0 121 41q18 17 27.5 37t9.5 39v87zM518.5 55.5q3.5 -9.5 3.5 -26.5q0 -32 -27 -37q-13 -4 -34 -4q-34 0 -53 19.5t-19 60.5q-67 -80 -182 -80
q-77 0 -121 34q-50 37 -50 111q0 78 55 118q22 16 51 25t69 16q19 4 67 11q68 6 93 29q14 12 14 36q0 51 -37 71q-28 15 -78 15q-49 0 -81 -15t-43 -51q-5 -16 -13.5 -24t-23.5 -8h-16q-15 0 -24 7.5t-9 20.5q0 6 1 9q13 64 63 98q56 38 151 38q86 0 132 -25q62 -35 62 -117
v-266q0 -34 4 -46t23 -12q3 0 6 1t8 1t8.5 -9.5zM144 592.5q-5 4.5 -5 12.5q0 10 11 26l56 78q15 22 43 22h39q27 0 43 -22l57 -78q8 -11 8 -21t-8 -16t-22 -6h-4q-28 0 -43 22l-53 74l-54 -74q-16 -22 -43 -22h-11q-9 0 -14 4.5z" />
    <glyph glyph-name="adieresis" unicode="&#xe4;" horiz-adv-x="537" 
d="M384 267q-20 -15 -67 -22q-21 -5 -43 -6q-53 -7 -84 -17q-39 -12 -55 -43q-9 -16 -9 -40q0 -38 31 -59q26 -17 69 -17q78 0 121 41q18 17 27.5 37t9.5 39v87zM518.5 55.5q3.5 -9.5 3.5 -26.5q0 -32 -27 -37q-13 -4 -34 -4q-34 0 -53 19.5t-19 60.5q-67 -80 -182 -80
q-77 0 -121 34q-50 37 -50 111q0 78 55 118q22 16 51 25t69 16q19 4 67 11q68 6 93 29q14 12 14 36q0 51 -37 71q-28 15 -78 15q-49 0 -81 -15t-43 -51q-5 -16 -13.5 -24t-23.5 -8h-16q-15 0 -24 7.5t-9 20.5q0 6 1 9q13 64 63 98q56 38 151 38q86 0 132 -25q62 -35 62 -117
v-266q0 -34 4 -46t23 -12q3 0 6 1t8 1t8.5 -9.5zM327.5 601.5q-9.5 9.5 -9.5 25.5v34q0 17 9.5 26t25.5 9h20q17 0 26 -9t9 -26v-34q0 -16 -9 -25.5t-26 -9.5h-20q-16 0 -25.5 9.5zM139.5 601.5q-9.5 9.5 -9.5 25.5v34q0 17 9.5 26t25.5 9h20q17 0 26 -9t9 -26v-34
q0 -16 -9 -25.5t-26 -9.5h-20q-16 0 -25.5 9.5z" />
    <glyph glyph-name="atilde" unicode="&#xe3;" horiz-adv-x="537" 
d="M384 267q-20 -15 -67 -22q-21 -5 -43 -6q-53 -7 -84 -17q-39 -12 -55 -43q-9 -16 -9 -40q0 -38 31 -59q26 -17 69 -17q78 0 121 41q18 17 27.5 37t9.5 39v87zM518.5 55.5q3.5 -9.5 3.5 -26.5q0 -32 -27 -37q-13 -4 -34 -4q-34 0 -53 19.5t-19 60.5q-67 -80 -182 -80
q-77 0 -121 34q-50 37 -50 111q0 78 55 118q22 16 51 25t69 16q19 4 67 11q68 6 93 29q14 12 14 36q0 51 -37 71q-28 15 -78 15q-49 0 -81 -15t-43 -51q-5 -16 -13.5 -24t-23.5 -8h-16q-15 0 -24 7.5t-9 20.5q0 6 1 9q13 64 63 98q56 38 151 38q86 0 132 -25q62 -35 62 -117
v-266q0 -34 4 -46t23 -12q3 0 6 1t8 1t8.5 -9.5zM397 705q9 6 23 6q8 0 12.5 -5.5t4.5 -15.5q0 -7 -3 -18q-6 -18 -22 -41q-28 -31 -79 -31q-22 0 -66 20q-4 1 -27 10t-40 9q-10 0 -21 -4.5t-18 -12.5q-3 -3 -9.5 -11t-12.5 -11t-15 -3q-7 0 -11 5t-4 14q0 8 5 21
q10 23 21 37q26 33 70 33q32 0 74 -20t66 -20q20 0 33 18q10 14 19 20z" />
    <glyph glyph-name="aring" unicode="&#xe5;" horiz-adv-x="537" 
d="M384 267q-20 -15 -67 -22q-21 -5 -43 -6q-53 -7 -84 -17q-39 -12 -55 -43q-9 -16 -9 -40q0 -38 31 -59q26 -17 69 -17q78 0 121 41q18 17 27.5 37t9.5 39v87zM518.5 55.5q3.5 -9.5 3.5 -26.5q0 -32 -27 -37q-13 -4 -34 -4q-34 0 -53 19.5t-19 60.5q-67 -80 -182 -80
q-77 0 -121 34q-50 37 -50 111q0 78 55 118q22 16 51 25t69 16q19 4 67 11q68 6 93 29q14 12 14 36q0 51 -37 71q-28 15 -78 15q-49 0 -81 -15t-43 -51q-5 -16 -13.5 -24t-23.5 -8h-16q-15 0 -24 7.5t-9 20.5q0 6 1 9q13 64 63 98q56 38 151 38q86 0 132 -25q62 -35 62 -117
v-266q0 -34 4 -46t23 -12q3 0 6 1t8 1t8.5 -9.5zM220.5 613.5q19.5 -19.5 48.5 -19.5t48.5 19.5t19.5 48.5t-19.5 48.5t-48.5 19.5t-48.5 -19.5t-19.5 -48.5t19.5 -48.5zM190 742q33 33 79 33q45 0 80 -33q33 -35 33 -80q0 -46 -33 -79q-34 -34 -80 -34q-47 0 -79 34
q-34 32 -34 79q0 46 34 80z" />
    <glyph glyph-name="ccedilla" unicode="&#xe7;" horiz-adv-x="537" 
d="M497 379q0 -13 -9 -20.5t-24 -7.5h-18q-28 0 -40 29q-14 36 -44.5 55t-74.5 19q-86 0 -126 -62q-35 -52 -35 -140q0 -79 35 -130q39 -59 116 -59q53 0 87 24.5t48 70.5q9 31 39 31h16q15 0 23.5 -7.5t8.5 -20.5q0 -7 -1 -11q-21 -74 -73.5 -116t-131.5 -45l-33 -42l2 -2
q10 7 33 7q35 0 59.5 -19t24.5 -54q0 -45 -41 -69q-34 -20 -83 -20q-27 0 -57 8q-25 6 -25 28q0 9 4 17q1 4 10 4t24 -3q13 -4 31 -4q24 0 41 7q21 9 21 24q0 14 -13 22.5t-34 8.5q-8 0 -11 -1q-16 -2 -27 2.5t-19 16.5q-1 2 17 25l35 45q-103 7 -161 81q-55 70 -55 181
q0 59 15.5 109.5t45.5 87.5q64 80 183 80q92 0 151 -43q48 -37 65 -97q1 -4 1 -10z" />
    <glyph glyph-name="eacute" unicode="&#xe9;" horiz-adv-x="537" 
d="M427 157q9 7 24 7h13q15 0 24 -6.5t9 -19.5q0 -6 -3 -14q-24 -67 -78 -101.5t-132 -34.5q-118 0 -184 77q-59 69 -64 195q0 57 18 107t51 86q33 37 77 56.5t97 19.5q125 0 188 -101q22 -36 34 -78t12 -84q0 -16 -9.5 -24.5t-25.5 -8.5h-352q-2 -74 37 -118
q44 -52 124 -52q94 0 125 72q6 15 15 22zM423 308q-2 31 -13.5 58t-30.5 46q-42 42 -105 42q-65 0 -105 -43q-38 -41 -43 -103h297zM224 604q0 11 9 26l47 77q14 24 42 24h23q14 0 22 -5.5t8 -14.5q0 -12 -11 -23l-75 -81q-18 -19 -43 -19h-6q-16 0 -16 16z" />
    <glyph glyph-name="egrave" unicode="&#xe8;" horiz-adv-x="537" 
d="M427 157q9 7 24 7h13q15 0 24 -6.5t9 -19.5q0 -6 -3 -14q-24 -67 -78 -101.5t-132 -34.5q-118 0 -184 77q-59 69 -64 195q0 57 18 107t51 86q33 37 77 56.5t97 19.5q125 0 188 -101q22 -36 34 -78t12 -84q0 -16 -9.5 -24.5t-25.5 -8.5h-352q-2 -74 37 -118
q44 -52 124 -52q94 0 125 72q6 15 15 22zM423 308q-2 31 -13.5 58t-30.5 46q-42 42 -105 42q-65 0 -105 -43q-38 -41 -43 -103h297zM249 607l-74 81q-11 11 -11 23q0 9 7.5 14.5t21.5 5.5h23q28 0 42 -24l47 -77q8 -14 8 -24q0 -18 -21 -18q-25 0 -43 19z" />
    <glyph glyph-name="ecircumflex" unicode="&#xea;" horiz-adv-x="537" 
d="M427 157q9 7 24 7h13q15 0 24 -6.5t9 -19.5q0 -6 -3 -14q-24 -67 -78 -101.5t-132 -34.5q-118 0 -184 77q-59 69 -64 195q0 57 18 107t51 86q33 37 77 56.5t97 19.5q125 0 188 -101q22 -36 34 -78t12 -84q0 -16 -9.5 -24.5t-25.5 -8.5h-352q-2 -74 37 -118
q44 -52 124 -52q94 0 125 72q6 15 15 22zM423 308q-2 31 -13.5 58t-30.5 46q-42 42 -105 42q-65 0 -105 -43q-38 -41 -43 -103h297zM144 592.5q-5 4.5 -5 12.5q0 10 11 26l56 78q15 22 43 22h39q27 0 43 -22l57 -78q8 -11 8 -21t-8 -16t-22 -6h-4q-28 0 -43 22l-53 74
l-54 -74q-16 -22 -43 -22h-11q-9 0 -14 4.5z" />
    <glyph glyph-name="edieresis" unicode="&#xeb;" horiz-adv-x="537" 
d="M427 157q9 7 24 7h13q15 0 24 -6.5t9 -19.5q0 -6 -3 -14q-24 -67 -78 -101.5t-132 -34.5q-118 0 -184 77q-59 69 -64 195q0 57 18 107t51 86q33 37 77 56.5t97 19.5q125 0 188 -101q22 -36 34 -78t12 -84q0 -16 -9.5 -24.5t-25.5 -8.5h-352q-2 -74 37 -118
q44 -52 124 -52q94 0 125 72q6 15 15 22zM423 308q-2 31 -13.5 58t-30.5 46q-42 42 -105 42q-65 0 -105 -43q-38 -41 -43 -103h297zM327.5 601.5q-9.5 9.5 -9.5 25.5v34q0 17 9.5 26t25.5 9h20q17 0 26 -9t9 -26v-34q0 -16 -9 -25.5t-26 -9.5h-20q-16 0 -25.5 9.5z
M139.5 601.5q-9.5 9.5 -9.5 25.5v34q0 17 9.5 26t25.5 9h20q17 0 26 -9t9 -26v-34q0 -16 -9 -25.5t-26 -9.5h-20q-16 0 -25.5 9.5z" />
    <glyph glyph-name="iacute" unicode="&#xed;" horiz-adv-x="222" 
d="M145 9.5q-9 -9.5 -26 -9.5h-15q-16 0 -25.5 9.5t-9.5 25.5v447q0 17 9.5 26t25.5 9h15q17 0 26 -9t9 -26v-447q0 -16 -9 -25.5zM66 604q0 11 9 26l47 77q14 24 42 24h23q14 0 22 -5.5t8 -14.5q0 -12 -11 -23l-75 -81q-18 -19 -43 -19h-6q-16 0 -16 16z" />
    <glyph glyph-name="igrave" unicode="&#xec;" horiz-adv-x="222" 
d="M145 9.5q-9 -9.5 -26 -9.5h-15q-16 0 -25.5 9.5t-9.5 25.5v447q0 17 9.5 26t25.5 9h15q17 0 26 -9t9 -26v-447q0 -16 -9 -25.5zM91 607l-74 81q-11 11 -11 23q0 9 7.5 14.5t21.5 5.5h23q28 0 42 -24l47 -77q8 -14 8 -24q0 -18 -21 -18q-25 0 -43 19z" />
    <glyph glyph-name="icircumflex" unicode="&#xee;" horiz-adv-x="222" 
d="M145 9.5q-9 -9.5 -26 -9.5h-15q-16 0 -25.5 9.5t-9.5 25.5v447q0 17 9.5 26t25.5 9h15q17 0 26 -9t9 -26v-447q0 -16 -9 -25.5zM-19 604q0 11 11 27l56 78q15 22 43 22h39q27 0 43 -22l57 -78q8 -11 8 -21t-8 -16t-22 -6h-4q-28 0 -43 22l-53 74l-54 -74q-16 -22 -43 -22
h-12q-18 0 -18 16z" />
    <glyph glyph-name="idieresis" unicode="&#xef;" horiz-adv-x="222" 
d="M145 9.5q-9 -9.5 -26 -9.5h-15q-16 0 -25.5 9.5t-9.5 25.5v447q0 17 9.5 26t25.5 9h15q17 0 26 -9t9 -26v-447q0 -16 -9 -25.5zM169.5 601.5q-9.5 9.5 -9.5 25.5v34q0 17 9.5 26t25.5 9h20q17 0 26 -9t9 -26v-34q0 -16 -9 -25.5t-26 -9.5h-20q-16 0 -25.5 9.5zM-19 601.5
q-9 9.5 -9 25.5v34q0 17 9 26t26 9h20q17 0 26 -9t9 -26v-34q0 -16 -9 -25.5t-26 -9.5h-20q-17 0 -26 9.5z" />
    <glyph glyph-name="ntilde" unicode="&#xf1;" 
d="M73.5 9.5q-9.5 9.5 -9.5 25.5v447q0 17 9.5 26t25.5 9h10q17 0 26 -9t9 -26v-47h2q52 94 168 94q95 0 140 -53q38 -45 38 -136v-305q0 -16 -9 -25.5t-26 -9.5h-15q-16 0 -25.5 9.5t-9.5 25.5v315q0 48 -28 76t-77 28q-75 0 -115 -46q-38 -44 -38 -116v-257
q0 -16 -9 -25.5t-26 -9.5h-15q-16 0 -25.5 9.5zM406 705q9 6 23 6q8 0 12.5 -5.5t4.5 -15.5q0 -7 -3 -18q-6 -18 -22 -41q-28 -31 -79 -31q-22 0 -66 20q-4 1 -27 10t-40 9q-10 0 -21 -4.5t-18 -12.5q-3 -3 -9.5 -11t-12.5 -11t-15 -3q-7 0 -11 5t-4 14q0 8 5 21
q10 23 21 37q26 33 70 33q32 0 74 -20t66 -20q20 0 33 18q10 14 19 20z" />
    <glyph glyph-name="oacute" unicode="&#xf3;" horiz-adv-x="574" 
d="M52 365.5q16 49.5 48 85.5q70 78 187 78q59 0 106.5 -20.5t80.5 -57.5q32 -36 48 -85.5t16 -107.5t-16 -106.5t-48 -84.5q-33 -38 -80.5 -58.5t-106.5 -20.5q-118 0 -187 79q-32 36 -48 84.5t-16 106.5t16 107.5zM173 114q22 -25 51.5 -38t62.5 -13t62.5 13t51.5 38
q47 52 47 144t-47 145q-22 25 -51.5 38t-62.5 13t-62.5 -13t-51.5 -38q-47 -53 -47 -145t47 -144zM242 604q0 11 9 26l47 77q14 24 42 24h23q14 0 22 -5.5t8 -14.5q0 -12 -11 -23l-75 -81q-18 -19 -43 -19h-6q-16 0 -16 16z" />
    <glyph glyph-name="ograve" unicode="&#xf2;" horiz-adv-x="574" 
d="M52 365.5q16 49.5 48 85.5q70 78 187 78q59 0 106.5 -20.5t80.5 -57.5q32 -36 48 -85.5t16 -107.5t-16 -106.5t-48 -84.5q-33 -38 -80.5 -58.5t-106.5 -20.5q-118 0 -187 79q-32 36 -48 84.5t-16 106.5t16 107.5zM173 114q22 -25 51.5 -38t62.5 -13t62.5 13t51.5 38
q47 52 47 144t-47 145q-22 25 -51.5 38t-62.5 13t-62.5 -13t-51.5 -38q-47 -53 -47 -145t47 -144zM267 607l-74 81q-11 11 -11 23q0 9 7.5 14.5t21.5 5.5h23q28 0 42 -24l47 -77q8 -14 8 -24q0 -18 -21 -18q-25 0 -43 19z" />
    <glyph glyph-name="ocircumflex" unicode="&#xf4;" horiz-adv-x="574" 
d="M52 365.5q16 49.5 48 85.5q70 78 187 78q59 0 106.5 -20.5t80.5 -57.5q32 -36 48 -85.5t16 -107.5t-16 -106.5t-48 -84.5q-33 -38 -80.5 -58.5t-106.5 -20.5q-118 0 -187 79q-32 36 -48 84.5t-16 106.5t16 107.5zM173 114q22 -25 51.5 -38t62.5 -13t62.5 13t51.5 38
q47 52 47 144t-47 145q-22 25 -51.5 38t-62.5 13t-62.5 -13t-51.5 -38q-47 -53 -47 -145t47 -144zM162 592.5q-5 4.5 -5 12.5q0 10 11 26l56 78q15 22 43 22h39q27 0 43 -22l57 -78q8 -11 8 -21t-8 -16t-22 -6h-4q-28 0 -43 22l-53 74l-54 -74q-16 -22 -43 -22h-11
q-9 0 -14 4.5z" />
    <glyph glyph-name="odieresis" unicode="&#xf6;" horiz-adv-x="574" 
d="M52 365.5q16 49.5 48 85.5q70 78 187 78q59 0 106.5 -20.5t80.5 -57.5q32 -36 48 -85.5t16 -107.5t-16 -106.5t-48 -84.5q-33 -38 -80.5 -58.5t-106.5 -20.5q-118 0 -187 79q-32 36 -48 84.5t-16 106.5t16 107.5zM173 114q22 -25 51.5 -38t62.5 -13t62.5 13t51.5 38
q47 52 47 144t-47 145q-22 25 -51.5 38t-62.5 13t-62.5 -13t-51.5 -38q-47 -53 -47 -145t47 -144zM345.5 601.5q-9.5 9.5 -9.5 25.5v34q0 17 9.5 26t25.5 9h20q17 0 26 -9t9 -26v-34q0 -16 -9 -25.5t-26 -9.5h-20q-16 0 -25.5 9.5zM157.5 601.5q-9.5 9.5 -9.5 25.5v34
q0 17 9.5 26t25.5 9h20q17 0 26 -9t9 -26v-34q0 -16 -9 -25.5t-26 -9.5h-20q-16 0 -25.5 9.5z" />
    <glyph glyph-name="otilde" unicode="&#xf5;" horiz-adv-x="574" 
d="M52 365.5q16 49.5 48 85.5q70 78 187 78q59 0 106.5 -20.5t80.5 -57.5q32 -36 48 -85.5t16 -107.5t-16 -106.5t-48 -84.5q-33 -38 -80.5 -58.5t-106.5 -20.5q-118 0 -187 79q-32 36 -48 84.5t-16 106.5t16 107.5zM173 114q22 -25 51.5 -38t62.5 -13t62.5 13t51.5 38
q47 52 47 144t-47 145q-22 25 -51.5 38t-62.5 13t-62.5 -13t-51.5 -38q-47 -53 -47 -145t47 -144zM415 705q9 6 23 6q8 0 12.5 -5.5t4.5 -15.5q0 -7 -3 -18q-6 -18 -22 -41q-28 -31 -79 -31q-22 0 -66 20q-4 1 -27 10t-40 9q-10 0 -21 -4.5t-18 -12.5q-3 -3 -9.5 -11
t-12.5 -11t-15 -3q-7 0 -11 5t-4 14q0 8 5 21q10 23 21 37q26 33 70 33q32 0 74 -20t66 -20q20 0 33 18q10 14 19 20z" />
    <glyph glyph-name="uacute" unicode="&#xfa;" 
d="M483 508q9 -9 9 -26v-447q0 -16 -9 -25.5t-26 -9.5h-10q-16 0 -25.5 9.5t-9.5 25.5v47h-2q-52 -94 -168 -94q-95 0 -140 53q-38 45 -38 136v305q0 17 9.5 26t25.5 9h15q17 0 26 -9t9 -26v-315q0 -48 28 -76t77 -28q75 0 115 46q38 44 38 116v257q0 17 9.5 26t25.5 9h15
q17 0 26 -9zM233 604q0 11 9 26l47 77q14 24 42 24h23q14 0 22 -5.5t8 -14.5q0 -12 -11 -23l-75 -81q-18 -19 -43 -19h-6q-16 0 -16 16z" />
    <glyph glyph-name="ugrave" unicode="&#xf9;" 
d="M483 508q9 -9 9 -26v-447q0 -16 -9 -25.5t-26 -9.5h-10q-16 0 -25.5 9.5t-9.5 25.5v47h-2q-52 -94 -168 -94q-95 0 -140 53q-38 45 -38 136v305q0 17 9.5 26t25.5 9h15q17 0 26 -9t9 -26v-315q0 -48 28 -76t77 -28q75 0 115 46q38 44 38 116v257q0 17 9.5 26t25.5 9h15
q17 0 26 -9zM258 607l-74 81q-11 11 -11 23q0 9 7.5 14.5t21.5 5.5h23q28 0 42 -24l47 -77q8 -14 8 -24q0 -18 -21 -18q-25 0 -43 19z" />
    <glyph glyph-name="ucircumflex" unicode="&#xfb;" 
d="M483 508q9 -9 9 -26v-447q0 -16 -9 -25.5t-26 -9.5h-10q-16 0 -25.5 9.5t-9.5 25.5v47h-2q-52 -94 -168 -94q-95 0 -140 53q-38 45 -38 136v305q0 17 9.5 26t25.5 9h15q17 0 26 -9t9 -26v-315q0 -48 28 -76t77 -28q75 0 115 46q38 44 38 116v257q0 17 9.5 26t25.5 9h15
q17 0 26 -9zM153 592.5q-5 4.5 -5 12.5q0 10 11 26l56 78q15 22 43 22h39q27 0 43 -22l57 -78q8 -11 8 -21t-8 -16t-22 -6h-4q-28 0 -43 22l-53 74l-54 -74q-16 -22 -43 -22h-11q-9 0 -14 4.5z" />
    <glyph glyph-name="udieresis" unicode="&#xfc;" 
d="M483 508q9 -9 9 -26v-447q0 -16 -9 -25.5t-26 -9.5h-10q-16 0 -25.5 9.5t-9.5 25.5v47h-2q-52 -94 -168 -94q-95 0 -140 53q-38 45 -38 136v305q0 17 9.5 26t25.5 9h15q17 0 26 -9t9 -26v-315q0 -48 28 -76t77 -28q75 0 115 46q38 44 38 116v257q0 17 9.5 26t25.5 9h15
q17 0 26 -9zM336.5 601.5q-9.5 9.5 -9.5 25.5v34q0 17 9.5 26t25.5 9h20q17 0 26 -9t9 -26v-34q0 -16 -9 -25.5t-26 -9.5h-20q-16 0 -25.5 9.5zM148.5 601.5q-9.5 9.5 -9.5 25.5v34q0 17 9.5 26t25.5 9h20q17 0 26 -9t9 -26v-34q0 -16 -9 -25.5t-26 -9.5h-20
q-16 0 -25.5 9.5z" />
    <glyph glyph-name="dagger" unicode="&#x2020;" 
d="M245.5 -146q-9.5 9 -9.5 26v562h-159q-16 0 -25.5 9.5t-9.5 25.5v5q0 17 9.5 26t25.5 9h159v162q0 17 9.5 26t25.5 9h10q17 0 26 -9t9 -26v-162h163q17 0 26 -9t9 -26v-5q0 -16 -9 -25.5t-26 -9.5h-163v-562q0 -17 -9 -26t-26 -9h-10q-16 0 -25.5 9z" />
    <glyph glyph-name="degree" unicode="&#xb0;" horiz-adv-x="400" 
d="M67 620.5q11 26.5 31 46.5t46.5 31t55.5 11t55.5 -11t46.5 -31t31 -46.5t11 -55.5t-11 -55.5t-31 -46.5t-46.5 -31t-55.5 -11t-55.5 11t-46.5 31t-31 46.5t-11 55.5t11 55.5zM131 501q27 -30 69 -30t69 30q25 28 25 64q0 37 -25 65q-26 29 -69 29t-69 -29
q-25 -28 -25 -65q0 -36 25 -64z" />
    <glyph glyph-name="cent" unicode="&#xa2;" 
d="M272 454q-74 -10 -106 -68q-30 -53 -30 -134q0 -75 32 -126q36 -57 104 -63v391zM277.5 -106.5q-5.5 9.5 -5.5 25.5v69q-108 4 -167 79q-29 35 -44 82.5t-15 102.5t14.5 103.5t42.5 85.5q61 81 169 88v60q0 17 9.5 26t25.5 9q4 0 4 -35v-60q83 -2 137 -45q41 -34 58 -94
q2 -8 2 -12q0 -13 -9 -20t-24 -7h-17q-28 0 -40 29q-14 34 -41 53.5t-66 20.5v-391q86 8 114 95q5 16 13.5 23.5t24.5 7.5h15q15 0 24 -7.5t9 -20.5q0 -6 -1 -10q-14 -57 -53 -99q-59 -64 -146 -64v-69q0 -17 -5 -26t-14 -9t-14.5 9.5z" />
    <glyph glyph-name="sterling" unicode="&#xa3;" 
d="M56.5 336.5q-9.5 9.5 -9.5 25.5q0 5 9.5 7.5t25.5 2.5h23q-23 38 -35 74.5t-12 81.5q0 92 69 149q31 26 72 40t87 14q105 0 166.5 -56.5t68.5 -165.5q1 -17 -8 -26.5t-26 -9.5h-16q-33 0 -36 34q-8 73 -44 111t-100 38q-59 0 -101 -37q-20 -18 -31 -42.5t-11 -51.5
q0 -42 17 -83q10 -24 17 -35l18 -35h124q17 0 26 -9t9 -26q0 -5 -9.5 -7.5t-25.5 -2.5h-102q20 -38 20 -75q0 -58 -36 -109q-14 -20 -32.5 -37.5t-47.5 -41.5l2 -2q36 16 57 22.5t48 6.5q26 0 46 -3.5t49 -11.5q7 -2 23.5 -7t31.5 -8t29 -3q29 0 60 18q14 7 22 7
q15 0 26 -17l5 -8q8 -13 8 -23q0 -16 -17 -26q-48 -26 -118 -26q-22 0 -44.5 5t-54.5 15q-31 10 -55 15.5t-50 5.5q-37 0 -71 -18q-12 -6 -22 -6q-15 0 -27 16l-8 11q-8 13 -8 21q0 14 16 28q30 23 50 54q33 51 33 104q0 37 -25 93h-50q-16 0 -25.5 9.5z" />
    <glyph glyph-name="section" unicode="&#xa7;" 
d="M138 385q-21 -25 -21 -56q0 -42 34 -74q19 -17 34 -25l37 -23q80 -42 140 -83q32 13 52 37t20 56q0 37 -37 70q-19 17 -69 48l-69 42q-23 13 -69 43q-31 -10 -52 -35zM455 555.5q-9 -9.5 -27 -9.5h-15q-29 0 -37 33q-9 35 -34 56t-63 21q-42 0 -68.5 -21.5t-26.5 -64.5
t52 -80q23 -18 55.5 -35.5t40.5 -22.5l18 -9q43 -24 68 -40t46 -37q52 -52 52 -117q0 -49 -29 -89t-75 -58q59 -44 59 -120q0 -35 -14 -65t-39 -51t-59.5 -32.5t-74.5 -11.5q-79 0 -130 40t-66 112q-1 3 -1 9q0 13 9.5 20.5t24.5 7.5h14q30 0 37 -33q10 -37 39 -59t71 -22
q40 0 69 21q32 24 32 62q0 46 -54 86q-34 24 -98 58l-22 12q-40 21 -68.5 40t-50.5 41q-55 55 -55 128q0 47 32 87q31 39 75 51q-23 24 -34.5 49.5t-11.5 56.5q0 74 58 120q53 42 127 42q75 0 122.5 -37.5t58.5 -110.5q2 -18 -7 -27.5z" />
    <glyph glyph-name="bullet" unicode="&#x2022;" horiz-adv-x="500" 
d="M86 426q14 33 38 57t57 38t69 14t69 -13.5t58 -38.5q24 -24 38 -57t14 -69t-14 -69t-38 -57q-25 -25 -58 -39t-69 -14t-69 14t-57 39q-24 24 -38 57t-14 69t14 69z" />
    <glyph glyph-name="paragraph" unicode="&#xb6;" horiz-adv-x="600" 
d="M506 705q9 -9 9 -26v-799q0 -17 -9 -26t-26 -9q-16 0 -24.5 9t-8.5 26v779h-122v-779q0 -17 -9 -26t-26 -9q-16 0 -24.5 9t-8.5 26v442q-45 0 -83.5 14.5t-66.5 39.5t-43.5 59t-15.5 73q0 98 60.5 152t167.5 54h204q17 0 26 -9z" />
    <glyph glyph-name="germandbls" unicode="&#xdf;" 
d="M73.5 9.5q-9.5 9.5 -9.5 25.5v496q0 89 54 145q55 55 144 55q37 0 74.5 -11.5t66.5 -32.5q31 -23 48.5 -56.5t17.5 -74.5q0 -60 -24.5 -99t-79.5 -56v-2q63 -7 102 -61q34 -47 34 -118q0 -50 -17 -93.5t-47 -73.5q-31 -31 -74 -48t-93 -17h-10q-16 1 -24.5 11t-8.5 26v4
q0 34 16 34h18q69 0 109.5 40t40.5 106q0 91 -50 124q-34 22 -99 25q-35 2 -35 36q0 30 35 33q42 3 71 22q46 30 46 94q0 48 -32 80q-33 33 -79 33q-57 0 -86 -28q-33 -33 -33 -112v-481q0 -16 -9 -25.5t-26 -9.5h-15q-16 0 -25.5 9.5z" />
    <glyph glyph-name="registered" unicode="&#xae;" horiz-adv-x="800" 
d="M53.5 504.5q29.5 68.5 82.5 119.5q52 51 120.5 79t144.5 28q75 0 144 -28t120 -79q52 -52 81.5 -120t29.5 -145q0 -79 -29.5 -147.5t-81.5 -120.5q-51 -51 -120 -79.5t-144 -28.5q-76 0 -144.5 28t-120.5 80q-53 52 -82.5 120.5t-29.5 147.5q0 77 29.5 145.5zM115 232
q23 -59 66 -102q42 -44 98.5 -68t121.5 -24q64 0 120 24t99 68q42 43 65 102t23 127q0 66 -23 124.5t-65 101.5q-43 43 -99 67t-120 24q-65 0 -121.5 -24t-98.5 -67t-65.5 -101.5t-23.5 -124.5q0 -68 23 -127zM264 148q-9 9 -9 26v367q0 17 9.5 26t25.5 9h134
q78 0 115.5 -31t37.5 -94q0 -56 -31 -84.5t-84 -34.5l98 -151q7 -11 7 -20q0 -10 -8 -16t-22 -6q-24 0 -38 23l-104 165h-72v-153q0 -17 -9 -26t-25 -9t-25 9zM323 382h71q57 0 80 10q35 15 35 62q0 40 -30 55q-24 12 -66 12h-90v-139z" />
    <glyph glyph-name="copyright" unicode="&#xa9;" horiz-adv-x="800" 
d="M53.5 504.5q29.5 68.5 82.5 119.5q52 51 120.5 79t144.5 28q75 0 144 -28t120 -79q52 -52 81.5 -120t29.5 -145q0 -79 -29.5 -147.5t-81.5 -120.5q-51 -51 -120 -79.5t-144 -28.5q-76 0 -144.5 28t-120.5 80q-53 52 -82.5 120.5t-29.5 147.5q0 77 29.5 145.5zM115 232
q23 -59 66 -102q42 -44 98.5 -68t121.5 -24q64 0 120 24t99 68q42 43 65 102t23 127q0 66 -23 124t-65 101q-43 44 -99 68t-120 24q-65 0 -121.5 -24t-98.5 -68q-43 -43 -66 -101t-23 -124q0 -68 23 -127zM542 277.5q9 7.5 24 7.5q11 0 17.5 -6.5t6.5 -17.5q0 -7 -3 -16
q-23 -55 -69 -86t-105 -31q-50 0 -91 17t-71 49q-29 30 -44.5 72t-15.5 91q0 50 15 92t43 72q28 31 69.5 47.5t91.5 16.5q64 0 110.5 -29t67.5 -84q3 -7 3 -14q0 -12 -9 -18.5t-24 -6.5q-11 0 -18.5 7t-13.5 22q-15 32 -44.5 50t-70.5 18q-36 0 -65 -12.5t-48 -36.5
q-39 -50 -39 -122q0 -36 10.5 -67.5t30.5 -55.5q45 -53 113 -53q41 0 70.5 19.5t43.5 52.5q6 15 15 22.5z" />
    <glyph glyph-name="trademark" unicode="&#x2122;" horiz-adv-x="990" 
d="M381 705q9 -9 9 -26q0 -20 -35 -20h-94v-322q0 -16 -9 -25.5t-26 -9.5q-16 0 -24.5 9t-8.5 26v322h-94q-16 0 -25.5 9.5t-9.5 25.5q0 20 35 20h256q17 0 26 -9zM918 705q9 -9 9 -26v-342q0 -16 -9 -25.5t-26 -9.5q-16 0 -24.5 9t-8.5 26v309h-2l-124 -317
q-10 -27 -41 -27q-14 0 -24 27l-124 317h-2v-309q0 -16 -9 -25.5t-26 -9.5q-16 0 -24.5 9t-8.5 26v342q0 17 9.5 26t25.5 9h41q30 0 40 -27l112 -286l110 285q11 28 41 28h39q17 0 26 -9z" />
    <glyph glyph-name="acute" unicode="&#xb4;" horiz-adv-x="222" 
d="M66 604q0 11 9 26l47 77q14 24 42 24h23q14 0 22 -5.5t8 -14.5q0 -12 -11 -23l-75 -81q-18 -19 -43 -19h-6q-16 0 -16 16z" />
    <glyph glyph-name="dieresis" unicode="&#xa8;" horiz-adv-x="222" 
d="M169.5 601.5q-9.5 9.5 -9.5 25.5v34q0 17 9.5 26t25.5 9h20q17 0 26 -9t9 -26v-34q0 -16 -9 -25.5t-26 -9.5h-20q-16 0 -25.5 9.5zM-19 601.5q-9 9.5 -9 25.5v34q0 17 9 26t26 9h20q17 0 26 -9t9 -26v-34q0 -16 -9 -25.5t-26 -9.5h-20q-17 0 -26 9.5z" />
    <glyph glyph-name="notequal" unicode="&#x2260;" horiz-adv-x="593" 
d="M538 128q-9 -8 -26 -8h-252l-60 -113q-11 -20 -28 -20q-10 0 -19 5q-11 6 -11 19q0 11 6 23l46 86h-114q-16 0 -25.5 9.5t-9.5 25.5q0 12 9 18.5t26 6.5h146l68 130h-214q-16 0 -25.5 9.5t-9.5 25.5q0 12 9 18.5t26 6.5h247l61 116q11 20 27 20q10 0 20 -6q11 -6 11 -19
q0 -11 -6 -23l-47 -88h119q17 0 26 -9t9 -26q0 -12 -9 -18.5t-26 -6.5h-151l-69 -130h220q35 0 35 -30q0 -14 -9 -22z" />
    <glyph glyph-name="AE" unicode="&#xc6;" horiz-adv-x="926" 
d="M17 6q-8 6 -8 16q0 7 5 19l327 648q13 25 41 25h472q17 0 26 -9t9 -26v-10q0 -16 -9 -25.5t-26 -9.5h-316v-227h295q17 0 26 -9t9 -26v-10q0 -16 -9 -25.5t-26 -9.5h-295v-247h322q17 0 26 -9t9 -26v-10q0 -16 -9 -25.5t-26 -9.5h-377q-16 0 -25.5 9.5t-9.5 25.5v173
h-246l-89 -182q-12 -26 -42 -26h-32q-14 0 -22 6zM407 634l-168 -346h209v346h-41z" />
    <glyph glyph-name="Oslash" unicode="&#xd8;" horiz-adv-x="760" 
d="M552 577q-64 74 -172 74q-63 0 -110.5 -24.5t-78.5 -68.5q-29 -41 -43.5 -93t-14.5 -108q0 -111 50 -187zM210 134q63 -71 170 -71q63 0 110.5 24.5t78.5 68.5q29 41 43.5 93t14.5 108q0 51 -12 98.5t-36 85.5zM692 717q12 0 25 -11q6 -6 -17 -31l-59 -65
q81 -100 81 -253q0 -74 -22 -141.5t-64 -118.5q-44 -54 -109 -84t-147 -30q-138 0 -229 86l-57 -63q-12 -13 -25 -13q-14 0 -25 11q-6 6 17 32l60 66q-41 50 -62 115.5t-21 139.5t22 141.5t64 118.5q44 54 109 84t147 30q144 0 232 -88l55 61q12 13 25 13z" />
    <glyph glyph-name="infinity" unicode="&#x221e;" horiz-adv-x="741" 
d="M662 147q-38 -43 -102 -43q-52 0 -104 35q-35 22 -85 72q-23 -18 -43 -37q-49 -44 -91 -60q-24 -10 -56 -10q-62 0 -101 42q-39 41 -39 103t37 105q38 43 101 43q52 0 106 -37q21 -15 43.5 -35.5t27.5 -25.5l15 -14l41 39q45 45 91 64q24 10 55 10q64 0 103 -41
q19 -19 29 -46.5t10 -58.5q0 -62 -38 -105zM621.5 315q-21.5 26 -61.5 26q-38 0 -81 -33q-20 -15 -37 -31l-33 -29q42 -38 71 -57q44 -29 83 -29q37 0 58.5 24.5t21.5 62.5q0 40 -21.5 66zM304.5 273.5q-21.5 18.5 -42.5 33.5q-49 33 -84 33q-18 0 -33.5 -7.5t-25.5 -19.5
q-21 -27 -21 -63q0 -39 22.5 -63.5t61.5 -24.5q36 0 82 30q22 14 43 33.5t26 23.5q-7 6 -28.5 24.5z" />
    <glyph glyph-name="plusminus" unicode="&#xb1;" horiz-adv-x="600" 
d="M57.5 280.5q-9.5 9.5 -9.5 25.5t9 24.5t26 8.5h183v131q0 17 9.5 26t25.5 9t24.5 -9t8.5 -26v-131h183q17 0 26 -9t9 -26q0 -16 -9 -24.5t-26 -8.5h-183v-132q0 -16 -9 -25.5t-26 -9.5q-16 0 -24.5 9t-8.5 26v132h-183q-16 0 -25.5 9.5zM57.5 9.5q-9.5 9.5 -9.5 25.5
t9 24.5t26 8.5h434q17 0 26 -9t9 -26q0 -16 -9 -24.5t-26 -8.5h-434q-16 0 -25.5 9.5z" />
    <glyph glyph-name="lessequal" unicode="&#x2264;" horiz-adv-x="593" 
d="M525 86q-9 0 -18 4l-434 163q-28 10 -28 40v5q0 30 28 40l434 164q9 3 15 3q25 0 25 -31q0 -22 -28 -32l-391 -147l391 -145q28 -10 28 -40v-2q0 -22 -22 -22zM538 -19q-9 -8 -26 -8h-432q-16 0 -25.5 9t-9.5 26q0 11 9.5 17.5t25.5 6.5h432q17 0 26 -7.5t9 -21.5t-9 -22
z" />
    <glyph glyph-name="greaterequal" unicode="&#x2265;" horiz-adv-x="593" 
d="M519 253l-434 -163q-9 -3 -15 -3q-25 0 -25 31q0 22 28 32l392 145l-392 147q-28 10 -28 40q0 11 6 17.5t16 6.5q4 0 18 -4l434 -164q28 -10 28 -40v-5q0 -30 -28 -40zM538 -19q-9 -8 -26 -8h-432q-16 0 -25.5 9t-9.5 26q0 11 9.5 17.5t25.5 6.5h432q17 0 26 -7.5
t9 -21.5t-9 -22z" />
    <glyph glyph-name="yen" unicode="&#xa5;" 
d="M241.5 9.5q-9.5 9.5 -9.5 25.5v139h-106q-16 0 -25.5 9.5t-9.5 25.5q0 12 9 18.5t26 6.5h106v42l-18 33h-88q-16 0 -25.5 9.5t-9.5 25.5q0 12 9 18.5t26 6.5h57l-161 303q-5 9 -5 19q0 11 8 17t22 6h33q28 0 42 -26l161 -327l157 327q12 26 41 26h28q15 0 23 -6.5
t8 -17.5q0 -6 -5 -18l-157 -303h58q17 0 26 -9t9 -26q0 -12 -9 -18.5t-26 -6.5h-91l-18 -33v-42h109q17 0 26 -9t9 -26q0 -12 -9 -18.5t-26 -6.5h-109v-139q0 -16 -9 -25.5t-26 -9.5h-25q-16 0 -25.5 9.5z" />
    <glyph glyph-name="uni00B5" unicode="&#xb5;" 
d="M483 508q9 -9 9 -26v-447q0 -16 -9 -25.5t-26 -9.5h-10q-16 0 -25.5 9.5t-9.5 25.5v47h-2q-52 -94 -168 -94q-67 0 -91 38h-2v-189q0 -17 -9 -26t-26 -9h-15q-16 0 -25.5 9t-9.5 26v645q0 17 9.5 26t25.5 9h15q17 0 26 -9t9 -26v-315q0 -48 28 -76t77 -28q75 0 115 46
q38 44 38 116v257q0 17 9.5 26t25.5 9h15q17 0 26 -9z" />
    <glyph glyph-name="partialdiff" unicode="&#x2202;" horiz-adv-x="496" 
d="M415 121q-56 -133 -185 -133q-90 0 -146 68q-25 31 -39 71.5t-14 84.5q0 43 13 82t38 68q25 30 61.5 46.5t81.5 16.5q48 0 91.5 -22.5t74.5 -61.5q0 17 1 26v26q0 46 -9 92.5t-28 85.5q-48 95 -142 95q-44 0 -85 -26q-11 -8 -23 -8q-15 0 -26 14q-5 7 -5 12q0 14 19 27
q55 36 117 36q91 0 149 -58q50 -50 75 -138q21 -74 21 -162q0 -148 -40 -242zM316 343.5q-40 25.5 -85 25.5q-64 0 -102 -48q-17 -21 -26 -50t-9 -61q0 -31 9 -61t26 -53q38 -55 102 -55q77 0 119 84q30 60 36 153q-30 40 -70 65.5z" />
    <glyph glyph-name="summation" unicode="&#x2211;" horiz-adv-x="604" 
d="M569 -206q-9 -8 -26 -8h-483q-16 0 -25.5 9t-9.5 26q0 19 14 39l315 429l-301 421q-14 20 -14 44q0 15 9.5 23.5t25.5 8.5h457q17 0 26 -9t9 -26q0 -13 -9 -20t-26 -7h-407l291 -410q9 -12 9 -24q0 -11 -9 -25l-310 -418h438q17 0 26 -8t9 -23q0 -14 -9 -22z" />
    <glyph glyph-name="product" unicode="&#x220f;" horiz-adv-x="711" 
d="M632 -205q-9 -9 -26 -9q-15 0 -23 9t-8 26v903h-438v-903q0 -17 -9 -26t-26 -9q-15 0 -23 9t-8 26v930q0 17 9.5 26t25.5 9h500q17 0 26 -9t9 -26v-930q0 -17 -9 -26z" />
    <glyph glyph-name="pi" unicode="&#x3c0;" horiz-adv-x="563" 
d="M540 20q0 -11 -27 -20q-18 -6 -37 -6q-53 0 -69 36q-7 15 -9 34t-2 47v308h-260v-384q0 -16 -9 -25.5t-26 -9.5q-14 0 -21.5 9.5t-7.5 25.5v384h-35q-16 0 -25.5 9.5t-9.5 25.5q0 11 9.5 17.5t25.5 6.5h464q17 0 26 -9t9 -26q0 -11 -9.5 -17.5t-25.5 -6.5h-41v-315
q0 -27 7 -40.5t31 -13.5q10 0 22 3q20 5 20 -33z" />
    <glyph glyph-name="integral" unicode="&#x222b;" horiz-adv-x="543" 
d="M396 710.5q-10 -8.5 -27 -8.5q-13 0 -19.5 5t-12.5 15q-4 8 -9 14t-11 6q-22 0 -29 -45q-8 -40 -6 -87q0 -27 1 -38v-21v-504v-39.5t-3 -65t-10 -57.5q-27 -98 -109 -98q-24 0 -42 12t-18 35q0 14 9.5 23t23.5 9q19 0 32 -19q2 -3 5 -8.5t6 -8t7 -2.5q22 0 30 74
q2 38 2 54v31l1 21v495q0 33 -1 53q-2 74 8 123q11 64 55 93q23 14 57 14q28 0 47 -11q23 -13 23 -39q0 -17 -10 -25.5z" />
    <glyph glyph-name="ordfeminine" unicode="&#xaa;" horiz-adv-x="378" 
d="M317 462q0 -17 3 -25q3 -7 11 -7h11q5 0 11 2v-13q0 -33 -21 -37q-14 -2 -22 -2q-48 0 -51 46q-43 -46 -117 -46q-53 0 -82 21q-35 25 -35 68q0 48 38 74q30 20 82 25q72 8 93 15q12 5 17 10.5t5 16.5q0 30 -24 41q-17 8 -53 8q-56 0 -74 -27q-10 -16 -17.5 -22.5
t-21.5 -6.5q-11 0 -18 6.5t-7 16.5q0 8 3 15q9 25 38 44q38 24 101 24q55 0 88 -16q42 -23 42 -71v-160zM234 453q11 9 17 21.5t6 24.5v47q-15 -9 -44 -14q-39 -5 -62 -10t-39 -14q-19 -10 -19 -37q0 -24 16.5 -32.5t45.5 -8.5q51 0 79 23z" />
    <glyph glyph-name="ordmasculine" unicode="&#xba;" horiz-adv-x="384" 
d="M316 662q43 -46 43 -119q0 -74 -43 -118.5t-123 -44.5q-79 0 -123 46q-45 45 -45 117q0 34 11 65t32 53q45 48 124 48q80 0 124 -47zM120.5 629.5q-27.5 -29.5 -27.5 -86.5q0 -49 23 -79q26 -34 77 -34q50 0 76 34q22 29 22 78q0 65 -33 95q-26 22 -66 22
q-44 0 -71.5 -29.5z" />
    <glyph glyph-name="uni2126" unicode="&#x2126;" horiz-adv-x="744" 
d="M675.5 7.5q-9.5 -7.5 -25.5 -7.5h-181q-16 0 -25.5 9.5t-9.5 25.5v115q0 16 7.5 24.5t23.5 13.5q67 21 107 73q46 61 46 154q0 53 -19 98t-54 79q-34 33 -80 50.5t-99 17.5q-52 0 -98.5 -18t-80.5 -51q-35 -34 -54 -79t-19 -97q0 -94 47 -154q40 -54 106 -73
q31 -9 31 -39v-114q0 -16 -9 -25.5t-26 -9.5h-181q-16 0 -25.5 9.5t-9.5 25.5q0 11 9 17t26 6h162v82q-90 24 -145 104q-52 73 -52 172q0 66 25 122.5t70 97.5t102.5 63t122.5 22q64 0 122 -22t102 -63t69 -97.5t25 -121.5q0 -48 -13 -92.5t-38 -81.5q-53 -78 -146 -103v-82
h162q17 0 26 -7.5t9 -21.5t-9.5 -21.5z" />
    <glyph glyph-name="ae" unicode="&#xe6;" horiz-adv-x="870" 
d="M756 308q-1 30 -11 57.5t-28 46.5q-39 42 -104 42q-68 0 -107 -41q-19 -19 -29 -46.5t-10 -58.5h289zM157 80q26 -17 69 -17q79 0 123 41q19 17 28.5 37t9.5 39v87q-22 -14 -71 -21q-16 -3 -43 -7q-51 -7 -83 -17q-39 -12 -55 -43q-9 -16 -9 -40q0 -38 31 -59zM837 242.5
q-9 -9.5 -26 -9.5h-344q0 -72 38 -119q19 -24 49 -37.5t68 -13.5q42 0 73.5 18t47.5 53q7 15 16.5 22t23.5 7h16q15 0 23.5 -7t8.5 -19q0 -6 -3 -14q-25 -65 -80 -100t-132 -35q-66 0 -110 22q-53 24 -77 79q-28 -51 -85 -76t-133 -25q-80 0 -124 34q-51 37 -51 111
q0 78 55 118q22 16 51 25t69 16q54 11 81 14q35 6 55.5 13.5t29.5 19.5q10 11 10 35q0 47 -37 67q-26 13 -80 13q-49 0 -81 -15t-43 -51q-5 -16 -13.5 -24t-23.5 -8h-16q-15 0 -24 7.5t-9 20.5q0 6 1 9q13 64 63 98q56 38 151 38q59 0 97 -13q54 -19 76 -62q25 38 69.5 56.5
t95.5 18.5q126 0 184 -87q43 -64 48 -173q1 -17 -8 -26.5z" />
    <glyph glyph-name="oslash" unicode="&#xf8;" horiz-adv-x="574" 
d="M398 407q-44 47 -111 47q-33 0 -62.5 -13t-51.5 -38q-47 -53 -47 -145q0 -69 30 -121zM178 108q45 -45 109 -45q33 0 62.5 13t51.5 38q47 52 47 144q0 68 -28 119zM532 511q0 -13 -15 -28l-37 -40q58 -70 58 -185q0 -58 -16 -106.5t-48 -84.5q-33 -38 -80.5 -58.5
t-106.5 -20.5q-100 0 -165 57l-37 -41q-12 -13 -25 -13t-24 10q-2 2 25 31l35 39q-60 74 -60 187q0 58 16 107.5t48 85.5q70 78 187 78q103 0 168 -59l34 39q15 17 28 17q6 0 10 -4q5 -5 5 -11z" />
    <glyph glyph-name="questiondown" unicode="&#xbf;" 
d="M452 30h15q18 0 27 -9.5t7 -26.5q-8 -81 -57 -135q-30 -33 -72 -51t-93 -18q-94 0 -152 53q-59 54 -59 147q0 56 26 100q20 33 60 70q16 15 32.5 31.5t27.5 32.5q27 39 27 84q0 15 9 23t26 8h15q17 0 26 -9t9 -26v-4q0 -51 -30 -99q-15 -23 -35.5 -43.5l-24.5 -24.5
q-3 -3 -22.5 -22t-32.5 -40q-24 -36 -24 -76q0 -61 32.5 -95.5t89.5 -34.5q66 0 106 48q25 32 31 83q5 34 36 34zM328 508q9 -9 9 -26v-41q0 -16 -9 -25.5t-26 -9.5h-41q-16 0 -25.5 9.5t-9.5 25.5v41q0 17 9.5 26t25.5 9h41q17 0 26 -9z" />
    <glyph glyph-name="exclamdown" unicode="&#xa1;" horiz-adv-x="259" 
d="M91.5 -189q-9.5 9 -9.5 26v185l22 277q3 34 37 34q11 0 14 -34l22 -277v-185q0 -17 -9 -26t-26 -9h-25q-16 0 -25.5 9zM176 508q9 -9 9 -26v-41q0 -16 -9 -25.5t-26 -9.5h-41q-16 0 -25.5 9.5t-9.5 25.5v41q0 17 9.5 26t25.5 9h41q17 0 26 -9z" />
    <glyph glyph-name="logicalnot" unicode="&#xac;" horiz-adv-x="600" 
d="M543 379q9 -9 9 -26v-209q0 -16 -9 -25.5t-26 -9.5q-16 0 -24.5 9t-8.5 26v176h-401q-16 0 -25.5 9.5t-9.5 25.5t9 24.5t26 8.5h434q17 0 26 -9z" />
    <glyph glyph-name="radical" unicode="&#x221a;" horiz-adv-x="493" 
d="M495 760q0 -8 -1 -12l-195 -931q-6 -31 -39 -31h-5q-29 0 -41 26l-152 314l-14 -7q-10 -5 -18 -5q-18 0 -29 22q-4 8 2 16.5t21 16.5l36 18q10 5 17 5q19 0 30 -22l143 -300l183 885q6 31 38 31v0q24 0 24 -26z" />
    <glyph glyph-name="florin" unicode="&#x192;" 
d="M486 685q0 -6 -1 -9l-1 -6q-6 -31 -38 -31h-27q-27 0 -41.5 -12.5t-20.5 -39.5l-31 -138h63q15 0 23.5 -7.5t8.5 -20.5q0 -20 -10.5 -30t-28.5 -10h-68l-55 -311q-12 -70 -27.5 -115t-37.5 -71t-52 -37.5t-73 -11.5h-27q-16 0 -24.5 7.5t-8.5 21.5q0 6 1 9l1 6
q6 31 39 32q50 2 70 16q14 10 22 29.5t14 55.5l70 369h-53q-16 0 -24.5 7.5t-8.5 21.5q0 19 10.5 29t28.5 10h59l26 136q12 59 52 94t102 35h37q31 0 31 -29z" />
    <glyph glyph-name="approxequal" unicode="&#x2248;" horiz-adv-x="593" 
d="M547 402q8 0 8 -17q0 -9 -3 -21q-10 -35 -28 -57q-34 -42 -88 -42q-29 0 -59.5 9t-84.5 28q-52 19 -81 27.5t-53 8.5t-42 -14t-28 -37q-7 -15 -16.5 -22t-23.5 -7q-10 0 -10 19q0 9 3 19q10 35 28 58q33 43 89 43q29 0 62 -9t81 -27q54 -20 82 -28.5t54 -8.5q50 0 70 49
q12 29 40 29zM546 232q4 0 6.5 -5t2.5 -13t-3 -20q-10 -35 -28 -57q-33 -43 -89 -43q-29 0 -61.5 9.5t-82.5 27.5t-79.5 27t-53.5 9t-42 -14t-28 -37q-7 -15 -16.5 -22t-23.5 -7q-4 0 -6.5 5t-2.5 13t3 20q9 33 27 58q31 44 88 44q30 0 63.5 -9.5t80.5 -26.5
q54 -20 82 -28.5t54 -8.5q49 0 69 49q12 29 40 29z" />
    <glyph glyph-name="uni2206" unicode="&#x2206;" horiz-adv-x="670" 
d="M645 25q0 -12 -8.5 -18.5t-23.5 -6.5h-554q-15 0 -23 7t-8 19q0 6 3 15l254 644q10 27 40 27h16q30 0 40 -27l260 -644q4 -12 4 -16zM332 645l-226 -583h455z" />
    <glyph glyph-name="guillemotleft" unicode="&#xab;" horiz-adv-x="463" 
d="M381 136q-11 0 -26 12l-88 70q-11 9 -16 19t-5 23v36q0 14 5 23.5t16 18.5l88 70q12 9 22 9q9 0 15 -8t6 -22v-5q0 -13 -5 -23t-16 -19l-79 -62l79 -62q11 -9 16 -18.5t5 -23.5v-17q0 -21 -17 -21zM185 136q-11 0 -26 12l-88 70q-11 9 -16 19t-5 23v36q0 14 5 23.5
t16 18.5l88 70q12 9 22 9q9 0 15 -8t6 -22v-5q0 -13 -5 -23t-16 -19l-79 -62l79 -62q11 -9 16 -18.5t5 -23.5v-17q0 -21 -17 -21z" />
    <glyph glyph-name="guillemotright" unicode="&#xbb;" horiz-adv-x="463" 
d="M82 420q11 0 26 -12l88 -70q11 -9 16 -18.5t5 -23.5v-36q0 -13 -5 -23t-16 -19l-88 -70q-12 -9 -22 -9q-9 0 -15 8t-6 22v5q0 14 5 23.5t16 18.5l79 62l-79 62q-11 9 -16 19t-5 23v17q0 21 17 21zM278 420q11 0 26 -12l88 -70q11 -9 16 -18.5t5 -23.5v-36q0 -13 -5 -23
t-16 -19l-88 -70q-12 -9 -22 -9q-9 0 -15 8t-6 22v5q0 14 5 23.5t16 18.5l79 62l-79 62q-11 9 -16 19t-5 23v17q0 21 17 21z" />
    <glyph glyph-name="ellipsis" unicode="&#x2026;" horiz-adv-x="1000" 
d="M120.5 9.5q-9.5 9.5 -9.5 25.5v41q0 17 9.5 26t25.5 9h41q17 0 26 -9t9 -26v-41q0 -16 -9 -25.5t-26 -9.5h-41q-16 0 -25.5 9.5zM453.5 9.5q-9.5 9.5 -9.5 25.5v41q0 17 9.5 26t25.5 9h41q17 0 26 -9t9 -26v-41q0 -16 -9 -25.5t-26 -9.5h-41q-16 0 -25.5 9.5zM786.5 9.5
q-9.5 9.5 -9.5 25.5v41q0 17 9.5 26t25.5 9h41q17 0 26 -9t9 -26v-41q0 -16 -9 -25.5t-26 -9.5h-41q-16 0 -25.5 9.5z" />
    <glyph glyph-name="Agrave" unicode="&#xc0;" horiz-adv-x="648" 
d="M6 24q0 7 3 16l252 646q11 28 41 28h45q31 0 41 -27l252 -647q3 -9 3 -16q0 -24 -30 -24h-32q-30 0 -40 28l-68 187h-302l-70 -187q-10 -28 -40 -28h-25q-30 0 -30 24zM201 295h242l-119 333h-2zM304 784l-74 81q-11 11 -11 23q0 9 7.5 14.5t21.5 5.5h23q28 0 42 -24
l47 -77q8 -14 8 -24q0 -18 -21 -18q-25 0 -43 19z" />
    <glyph glyph-name="Atilde" unicode="&#xc3;" horiz-adv-x="648" 
d="M6 24q0 7 3 16l252 646q11 28 41 28h45q31 0 41 -27l252 -647q3 -9 3 -16q0 -24 -30 -24h-32q-30 0 -40 28l-68 187h-302l-70 -187q-10 -28 -40 -28h-25q-30 0 -30 24zM201 295h242l-119 333h-2zM452 882q9 6 23 6q8 0 12.5 -5.5t4.5 -15.5q0 -7 -3 -18q-6 -18 -22 -41
q-28 -31 -79 -31q-22 0 -66 20q-4 1 -27 10t-40 9q-10 0 -21 -4.5t-18 -12.5q-3 -3 -9.5 -11t-12.5 -11t-15 -3q-7 0 -11 5t-4 14q0 8 5 21q10 23 21 37q26 33 70 33q32 0 74 -20t66 -20q20 0 33 18q10 14 19 20z" />
    <glyph glyph-name="Otilde" unicode="&#xd5;" horiz-adv-x="760" 
d="M60 498.5q22 67.5 64 118.5q44 54 109 84t147 30t147 -30t109 -84q42 -51 64 -118.5t22 -141.5t-22 -141.5t-64 -118.5q-44 -54 -109 -84t-147 -30t-147 30t-109 84q-42 51 -64 118.5t-22 141.5t22 141.5zM147.5 249q14.5 -52 43.5 -93q31 -44 78.5 -68.5t110.5 -24.5
t110.5 24.5t78.5 68.5q29 41 43.5 93t14.5 108t-14.5 108t-43.5 93q-31 44 -78.5 68.5t-110.5 24.5t-110.5 -24.5t-78.5 -68.5q-29 -41 -43.5 -93t-14.5 -108t14.5 -108zM508 882q9 6 23 6q8 0 12.5 -5.5t4.5 -15.5q0 -7 -3 -18q-6 -18 -22 -41q-28 -31 -79 -31
q-22 0 -66 20q-4 1 -27 10t-40 9q-10 0 -21 -4.5t-18 -12.5q-3 -3 -9.5 -11t-12.5 -11t-15 -3q-7 0 -11 5t-4 14q0 8 5 21q10 23 21 37q26 33 70 33q32 0 74 -20t66 -20q20 0 33 18q10 14 19 20z" />
    <glyph glyph-name="OE" unicode="&#x152;" horiz-adv-x="1074" 
d="M441.5 73.5q33.5 10.5 57.5 29.5q24 18 38 44.5t14 56.5v301q0 22 -2.5 38t-12.5 31q-22 33 -65 55t-97 22q-116 0 -181 -89q-30 -41 -45 -95.5t-15 -115.5q0 -60 15.5 -112.5t45.5 -91.5q65 -84 178 -84q36 0 69.5 10.5zM560.5 9.5q-9.5 9.5 -9.5 25.5v34h-2
q-24 -39 -77 -64q-48 -22 -107 -22q-77 0 -138.5 28t-103.5 80q-42 50 -63.5 117.5t-21.5 146.5q0 81 22.5 149.5t65.5 119.5q44 51 106 79t141 28q54 0 102 -18q52 -21 74 -58h2v24q0 17 9.5 26t25.5 9h407q17 0 26 -9t9 -26v-10q0 -16 -9 -25.5t-26 -9.5h-347v-227h315
q17 0 26 -9t9 -26v-10q0 -16 -9 -25.5t-26 -9.5h-315v-247h353q17 0 26 -9t9 -26v-10q0 -16 -9 -25.5t-26 -9.5h-413q-16 0 -25.5 9.5z" />
    <glyph glyph-name="oe" unicode="&#x153;" horiz-adv-x="891" 
d="M855.5 242q-9.5 -9 -26.5 -9h-340q-2 -71 36 -118q39 -52 113 -52q43 0 76.5 19.5t52.5 54.5q7 14 16 20.5t24 6.5h9q15 0 23.5 -7t8.5 -18q0 -7 -3 -16q-58 -135 -207 -135q-144 0 -188 102q-23 -53 -70 -77.5t-109 -24.5q-59 0 -103.5 21t-74.5 59q-57 74 -57 191
q0 121 58 192q63 78 177 78q66 0 110 -20t69 -71q26 44 76 67.5t107 23.5q62 0 108 -23t75 -64q46 -64 49 -174q0 -17 -9.5 -26zM774 308q0 67 -37.5 106.5t-103.5 39.5t-105.5 -40.5t-38.5 -105.5h285zM387 393q-36 61 -116 61q-75 0 -113 -65q-32 -54 -32 -141
q0 -75 33 -125q38 -60 112 -60q78 0 115 64q29 50 29 133q0 84 -28 133z" />
    <glyph glyph-name="endash" unicode="&#x2013;" horiz-adv-x="500" 
d="M9.5 247.5q-9.5 9.5 -9.5 25.5v10q0 17 9.5 26t25.5 9h430q17 0 26 -9t9 -26v-10q0 -16 -9 -25.5t-26 -9.5h-430q-16 0 -25.5 9.5z" />
    <glyph glyph-name="emdash" unicode="&#x2014;" horiz-adv-x="1000" 
d="M139.5 247.5q-9.5 9.5 -9.5 25.5v10q0 17 9.5 26t25.5 9h670q17 0 26 -9t9 -26v-10q0 -16 -9 -25.5t-26 -9.5h-670q-16 0 -25.5 9.5z" />
    <glyph glyph-name="quotedblleft" unicode="&#x201c;" horiz-adv-x="426" 
d="M352.5 558q7.5 -9 7.5 -26v-41q0 -16 -9 -25.5t-26 -9.5h-41q-16 0 -25.5 9.5t-9.5 25.5v76q0 63 27 103q17 26 46 38q8 2 11 2q12 0 19 -9.5t7 -24.5q0 -3 -3.5 -6t-10 -6t-14.5 -8q-10 -8 -18 -23q-12 -25 -12 -66h30q14 0 21.5 -9zM169.5 558q7.5 -9 7.5 -26v-41
q0 -16 -9 -25.5t-26 -9.5h-41q-16 0 -25.5 9.5t-9.5 25.5v76q0 63 27 103q17 26 46 38q8 2 11 2q12 0 19 -9.5t7 -24.5q0 -3 -3.5 -6t-10 -6t-14.5 -8q-10 -8 -18 -23q-12 -25 -12 -66h30q14 0 21.5 -9z" />
    <glyph glyph-name="quotedblright" unicode="&#x201d;" horiz-adv-x="426" 
d="M257 612q-8 9 -8 26v41q0 17 9.5 26t25.5 9h41q17 0 26 -9t9 -26v-76q0 -64 -26 -103q-17 -27 -47 -37q-6 -3 -12 -3q-11 0 -18 10t-7 24q0 3 3.5 6t10 6t14.5 8q10 8 18 23q12 25 12 66h-29q-14 0 -22 9zM74 612q-8 9 -8 26v41q0 17 9.5 26t25.5 9h41q17 0 26 -9t9 -26
v-76q0 -64 -26 -103q-17 -27 -47 -37q-6 -3 -12 -3q-11 0 -18 9.5t-7 24.5q0 3 3.5 6t10 6t14.5 8q10 8 18 23q12 25 12 66h-29q-14 0 -22 9z" />
    <glyph glyph-name="quoteleft" unicode="&#x2018;" horiz-adv-x="278" 
d="M187.5 558q7.5 -9 7.5 -26v-41q0 -16 -9 -25.5t-26 -9.5h-41q-16 0 -25.5 9.5t-9.5 25.5v76q0 63 27 103q17 26 46 38q8 2 11 2q12 0 19 -9.5t7 -24.5q0 -3 -3.5 -6t-10 -6t-14.5 -8q-10 -8 -18 -23q-12 -25 -12 -66h30q14 0 21.5 -9z" />
    <glyph glyph-name="quoteright" unicode="&#x2019;" horiz-adv-x="278" 
d="M91 612q-8 9 -8 26v41q0 17 9.5 26t25.5 9h41q17 0 26 -9t9 -26v-76q0 -64 -26 -103q-17 -27 -47 -37q-6 -3 -12 -3q-11 0 -18 10t-7 24q0 3 3.5 6t10 6t14.5 8q10 8 18 23q12 25 12 66h-29q-14 0 -22 9z" />
    <glyph glyph-name="divide" unicode="&#xf7;" horiz-adv-x="600" 
d="M57.5 228.5q-9.5 9.5 -9.5 25.5t9 24.5t26 8.5h434q17 0 26 -9t9 -26q0 -16 -9 -24.5t-26 -8.5h-434q-16 0 -25.5 9.5zM255 504q19 19 45 19t45 -19t19 -45q0 -24 -19 -44t-44 -20q-26 0 -45.5 19t-19.5 45t19 45zM255 92q19 19 45 19t45 -19t19 -45q0 -24 -19 -44
t-44 -20q-26 0 -45.5 19t-19.5 45t19 45z" />
    <glyph glyph-name="lozenge" unicode="&#x25ca;" horiz-adv-x="593" 
d="M493 356q0 -13 -5 -23l-149 -341q-11 -27 -41 -27h-5q-30 0 -41 27l-147 341q-5 13 -5 23t5 23l147 341q11 27 41 27h5q30 0 41 -27l149 -341q5 -10 5 -23zM296 681l-136 -325l136 -325l137 325z" />
    <glyph glyph-name="ydieresis" unicode="&#xff;" horiz-adv-x="500" 
d="M479 493q0 -7 -3 -16l-209 -546q-30 -76 -61 -106q-35 -32 -89 -32q-19 0 -29 2q-30 4 -30 38v7q0 19 6.5 27.5t18.5 4.5q16 -4 25 -4q25 0 41 11.5t29 35.5l35 88l-189 473q-4 12 -4 16q0 12 8.5 18.5t23.5 6.5h22q30 0 40 -28l141 -395h2l135 395q9 28 40 28h17
q30 0 30 -24zM308.5 601.5q-9.5 9.5 -9.5 25.5v34q0 17 9.5 26t25.5 9h20q17 0 26 -9t9 -26v-34q0 -16 -9 -25.5t-26 -9.5h-20q-16 0 -25.5 9.5zM120.5 601.5q-9.5 9.5 -9.5 25.5v34q0 17 9.5 26t25.5 9h20q17 0 26 -9t9 -26v-34q0 -16 -9 -25.5t-26 -9.5h-20
q-16 0 -25.5 9.5z" />
    <glyph glyph-name="Ydieresis" unicode="&#x178;" horiz-adv-x="648" 
d="M618 708q8 -6 8 -16q0 -9 -7 -20l-246 -380v-257q0 -16 -9 -25.5t-26 -9.5h-25q-16 0 -25.5 9.5t-9.5 25.5v257l-248 380q-7 11 -7 20q0 10 8 16t22 6h35q15 0 25 -5.5t17 -17.5l199 -317l195 317q7 12 17 17.5t25 5.5h30q14 0 22 -6zM382.5 778.5q-9.5 9.5 -9.5 25.5v34
q0 17 9.5 26t25.5 9h20q17 0 26 -9t9 -26v-34q0 -16 -9 -25.5t-26 -9.5h-20q-16 0 -25.5 9.5zM194.5 778.5q-9.5 9.5 -9.5 25.5v34q0 17 9.5 26t25.5 9h20q17 0 26 -9t9 -26v-34q0 -16 -9 -25.5t-26 -9.5h-20q-16 0 -25.5 9.5z" />
    <glyph glyph-name="fraction" unicode="&#x2044;" horiz-adv-x="167" 
d="M-150 -12q0 13 8 26l397 687q14 24 42 24q20 0 20 -18q0 -10 -8 -24l-397 -687q-14 -24 -42 -24h-4q-16 0 -16 16z" />
    <glyph glyph-name="Euro" unicode="&#x20ac;" 
d="M548 652q0 -9 -6 -20l-11 -19q-10 -18 -25 -18q-11 0 -24 10q-55 43 -113 43q-71 0 -117 -55t-63 -143h238q14 0 22.5 -6.5t8.5 -17.5q0 -9 -4 -17q-9 -20 -38 -20h-234q-1 -5 -1 -16v-15v-11q0 -7 1 -10h205q15 0 23 -7t8 -18q0 -4 -4 -16q-9 -20 -38 -20h-189
q33 -215 190 -215q35 0 60.5 8t51.5 28q13 10 23 10q19 0 19 -28v-23q0 -29 -24 -42q-58 -30 -130 -30q-245 0 -287 292h-32q-14 0 -22.5 6.5t-8.5 17.5q0 9 4 17q9 20 38 20h17q-1 3 -1 10v10v17q0 10 1 15h-29q-15 0 -23 7t-8 18q0 4 4 16q9 20 38 20h25
q25 128 97.5 201.5t186.5 73.5q77 0 152 -45q19 -10 19 -28z" />
    <glyph glyph-name="guilsinglleft" unicode="&#x2039;" horiz-adv-x="259" 
d="M185 136q-11 0 -26 12l-88 70q-11 9 -16 19t-5 23v36q0 14 5 23.5t16 18.5l88 70q12 9 22 9q9 0 15 -8t6 -22v-5q0 -13 -5 -23t-16 -19l-79 -62l79 -62q11 -9 16 -18.5t5 -23.5v-17q0 -21 -17 -21z" />
    <glyph glyph-name="guilsinglright" unicode="&#x203a;" horiz-adv-x="259" 
d="M74 420q11 0 26 -12l88 -70q11 -9 16 -18.5t5 -23.5v-36q0 -13 -5 -23t-16 -19l-88 -70q-12 -9 -22 -9q-9 0 -15 8t-6 22v5q0 14 5 23.5t16 18.5l79 62l-79 62q-11 9 -16 19t-5 23v17q0 21 17 21z" />
    <glyph glyph-name="fi" unicode="&#xfb01;" horiz-adv-x="518" 
d="M108.5 9.5q-9.5 9.5 -9.5 25.5v407h-52q-16 0 -25.5 9.5t-9.5 25.5v5q0 17 9.5 26t25.5 9h52v77q0 63 36.5 95.5t106.5 32.5q6 0 24 -2q15 -1 23 -11.5t8 -26.5v-4q0 -33 -20 -33q-8 0 -14.5 1t-13.5 1q-33 0 -49 -13t-16 -45v-72h65q17 0 26 -9t9 -26v-5q0 -16 -9 -25.5
t-26 -9.5h-65v-407q0 -16 -9 -25.5t-26 -9.5h-15q-16 0 -25.5 9.5zM441 619.5q-9 -9.5 -26 -9.5h-15q-16 0 -25.5 9.5t-9.5 25.5v34q0 17 9.5 26t25.5 9h15q17 0 26 -9t9 -26v-34q0 -16 -9 -25.5zM441 9.5q-9 -9.5 -26 -9.5h-15q-16 0 -25.5 9.5t-9.5 25.5v447q0 17 9.5 26
t25.5 9h15q17 0 26 -9t9 -26v-447q0 -16 -9 -25.5z" />
    <glyph glyph-name="fl" unicode="&#xfb02;" horiz-adv-x="518" 
d="M108.5 9.5q-9.5 9.5 -9.5 25.5v407h-52q-16 0 -25.5 9.5t-9.5 25.5v5q0 17 9.5 26t25.5 9h52v77q0 63 36.5 95.5t106.5 32.5q6 0 24 -2q15 -1 23 -11.5t8 -26.5v-4q0 -33 -20 -33q-8 0 -14.5 1t-13.5 1q-33 0 -49 -13t-16 -45v-72h65q17 0 26 -9t9 -26v-5q0 -16 -9 -25.5
t-26 -9.5h-65v-407q0 -16 -9 -25.5t-26 -9.5h-15q-16 0 -25.5 9.5zM374.5 9.5q-9.5 9.5 -9.5 25.5v644q0 17 9.5 26t25.5 9h15q17 0 26 -9t9 -26v-644q0 -16 -9 -25.5t-26 -9.5h-15q-16 0 -25.5 9.5z" />
    <glyph glyph-name="daggerdbl" unicode="&#x2021;" 
d="M245.5 -146q-9.5 9 -9.5 26v162h-159q-16 0 -25.5 9.5t-9.5 25.5v5q0 17 9.5 26t25.5 9h159v325h-159q-16 0 -25.5 9.5t-9.5 25.5v5q0 17 9.5 26t25.5 9h159v162q0 17 9.5 26t25.5 9h10q17 0 26 -9t9 -26v-162h163q17 0 26 -9t9 -26v-5q0 -16 -9 -25.5t-26 -9.5h-163
v-325h163q17 0 26 -9t9 -26v-5q0 -16 -9 -25.5t-26 -9.5h-163v-162q0 -17 -9 -26t-26 -9h-10q-16 0 -25.5 9z" />
    <glyph glyph-name="periodcentered" unicode="&#xb7;" horiz-adv-x="278" 
d="M94 356q19 19 45 19t45 -19t19 -45q0 -24 -19 -44t-44 -20q-26 0 -45.5 19t-19.5 45t19 45z" />
    <glyph glyph-name="quotesinglbase" unicode="&#x201a;" horiz-adv-x="278" 
d="M91 9q-8 9 -8 26v41q0 17 9.5 26t25.5 9h41q17 0 26 -9t9 -26v-76q0 -64 -26 -103q-17 -27 -47 -37q-6 -3 -12 -3q-11 0 -18 9.5t-7 24.5q0 3 3.5 6t10 6t14.5 8q10 8 18 23q12 25 12 66h-29q-14 0 -22 9z" />
    <glyph glyph-name="quotedblbase" unicode="&#x201e;" horiz-adv-x="426" 
d="M74 9q-8 9 -8 26v41q0 17 9.5 26t25.5 9h41q17 0 26 -9t9 -26v-76q0 -64 -26 -103q-17 -27 -47 -37q-6 -3 -12 -3q-11 0 -18 9.5t-7 24.5q0 3 3.5 6t10 6t14.5 8q10 8 18 23q12 25 12 66h-29q-14 0 -22 9zM257 9q-8 9 -8 26v41q0 17 9.5 26t25.5 9h41q17 0 26 -9t9 -26
v-76q0 -64 -26 -103q-17 -27 -47 -37q-6 -3 -12 -3q-11 0 -18 9.5t-7 24.5q0 3 3.5 6t10 6t14.5 8q10 8 18 23q12 25 12 66h-29q-14 0 -22 9z" />
    <glyph glyph-name="perthousand" unicode="&#x2030;" horiz-adv-x="1148" 
d="M106 659q37 50 114 50q75 0 113 -48q33 -43 33 -121q0 -77 -40 -127q-37 -45 -108 -45q-74 0 -112 48q-34 43 -34 119q0 79 34 124zM160 461q17 -38 59 -38q39 0 58 39q14 28 14 75q0 46 -12 75q-17 42 -56 42q-41 0 -60 -39q-16 -31 -16 -77q0 -47 13 -77zM111 -3
q0 11 10 24l491 679q15 22 43 22h5q14 0 22 -6t8 -16t-8 -21l-490 -679q-15 -22 -43 -22h-16q-22 0 -22 19zM471 279q37 50 114 50q75 0 113 -48q33 -43 33 -121q0 -77 -40 -127q-37 -45 -108 -45q-74 0 -112 48q-34 43 -34 119q0 79 34 124zM525 81q17 -38 59 -38
q39 0 58 39q14 28 14 75q0 46 -12 75q-17 42 -56 42q-41 0 -60 -39q-16 -31 -16 -77q0 -47 13 -77zM816 279q37 50 114 50q75 0 113 -48q33 -43 33 -121q0 -77 -40 -127q-37 -45 -108 -45q-74 0 -112 48q-34 43 -34 119q0 79 34 124zM870 81q17 -38 59 -38q39 0 58 39
q14 28 14 75q0 46 -12 75q-17 42 -56 42q-41 0 -60 -39q-16 -31 -16 -77q0 -47 13 -77z" />
    <glyph glyph-name="Acircumflex" unicode="&#xc2;" horiz-adv-x="648" 
d="M6 24q0 7 3 16l252 646q11 28 41 28h45q31 0 41 -27l252 -647q3 -9 3 -16q0 -24 -30 -24h-32q-30 0 -40 28l-68 187h-302l-70 -187q-10 -28 -40 -28h-25q-30 0 -30 24zM201 295h242l-119 333h-2zM199 769.5q-5 4.5 -5 12.5q0 10 11 26l56 78q15 22 43 22h39q27 0 43 -22
l57 -78q8 -11 8 -21t-8 -16t-22 -6h-4q-28 0 -43 22l-53 74l-54 -74q-16 -22 -43 -22h-11q-9 0 -14 4.5z" />
    <glyph glyph-name="Ecircumflex" unicode="&#xca;" horiz-adv-x="611" 
d="M87.5 9.5q-9.5 9.5 -9.5 25.5v644q0 17 9.5 26t25.5 9h423q17 0 26 -9t9 -26v-10q0 -16 -9 -25.5t-26 -9.5h-363v-227h336q17 0 26 -9t9 -26v-10q0 -16 -9 -25.5t-26 -9.5h-336v-247h366q17 0 26 -9t9 -26v-10q0 -16 -9 -25.5t-26 -9.5h-426q-16 0 -25.5 9.5zM181 769.5
q-5 4.5 -5 12.5q0 10 11 26l56 78q15 22 43 22h39q27 0 43 -22l57 -78q8 -11 8 -21t-8 -16t-22 -6h-4q-28 0 -43 22l-53 74l-54 -74q-16 -22 -43 -22h-11q-9 0 -14 4.5z" />
    <glyph glyph-name="Aacute" unicode="&#xc1;" horiz-adv-x="648" 
d="M6 24q0 7 3 16l252 646q11 28 41 28h45q31 0 41 -27l252 -647q3 -9 3 -16q0 -24 -30 -24h-32q-30 0 -40 28l-68 187h-302l-70 -187q-10 -28 -40 -28h-25q-30 0 -30 24zM201 295h242l-119 333h-2zM279 781q0 11 9 26l47 77q14 24 42 24h23q14 0 22 -5.5t8 -14.5
q0 -12 -11 -23l-75 -81q-18 -19 -43 -19h-6q-16 0 -16 16z" />
    <glyph glyph-name="Edieresis" unicode="&#xcb;" horiz-adv-x="611" 
d="M87.5 9.5q-9.5 9.5 -9.5 25.5v644q0 17 9.5 26t25.5 9h423q17 0 26 -9t9 -26v-10q0 -16 -9 -25.5t-26 -9.5h-363v-227h336q17 0 26 -9t9 -26v-10q0 -16 -9 -25.5t-26 -9.5h-336v-247h366q17 0 26 -9t9 -26v-10q0 -16 -9 -25.5t-26 -9.5h-426q-16 0 -25.5 9.5z
M364.5 778.5q-9.5 9.5 -9.5 25.5v34q0 17 9.5 26t25.5 9h20q17 0 26 -9t9 -26v-34q0 -16 -9 -25.5t-26 -9.5h-20q-16 0 -25.5 9.5zM176.5 778.5q-9.5 9.5 -9.5 25.5v34q0 17 9.5 26t25.5 9h20q17 0 26 -9t9 -26v-34q0 -16 -9 -25.5t-26 -9.5h-20q-16 0 -25.5 9.5z" />
    <glyph glyph-name="Egrave" unicode="&#xc8;" horiz-adv-x="611" 
d="M87.5 9.5q-9.5 9.5 -9.5 25.5v644q0 17 9.5 26t25.5 9h423q17 0 26 -9t9 -26v-10q0 -16 -9 -25.5t-26 -9.5h-363v-227h336q17 0 26 -9t9 -26v-10q0 -16 -9 -25.5t-26 -9.5h-336v-247h366q17 0 26 -9t9 -26v-10q0 -16 -9 -25.5t-26 -9.5h-426q-16 0 -25.5 9.5zM286 784
l-74 81q-11 11 -11 23q0 9 7.5 14.5t21.5 5.5h23q28 0 42 -24l47 -77q8 -14 8 -24q0 -18 -21 -18q-25 0 -43 19z" />
    <glyph glyph-name="Iacute" unicode="&#xcd;" horiz-adv-x="259" 
d="M91.5 9.5q-9.5 9.5 -9.5 25.5v644q0 17 9.5 26t25.5 9h25q17 0 26 -9t9 -26v-644q0 -16 -9 -25.5t-26 -9.5h-25q-16 0 -25.5 9.5zM85 781q0 11 9 26l47 77q14 24 42 24h23q14 0 22 -5.5t8 -14.5q0 -12 -11 -23l-75 -81q-18 -19 -43 -19h-6q-16 0 -16 16z" />
    <glyph glyph-name="Icircumflex" unicode="&#xce;" horiz-adv-x="259" 
d="M91.5 9.5q-9.5 9.5 -9.5 25.5v644q0 17 9.5 26t25.5 9h25q17 0 26 -9t9 -26v-644q0 -16 -9 -25.5t-26 -9.5h-25q-16 0 -25.5 9.5zM5 769.5q-5 4.5 -5 12.5q0 10 11 26l56 78q15 22 43 22h39q27 0 43 -22l57 -78q8 -11 8 -21t-8 -16t-22 -6h-4q-28 0 -43 22l-53 74
l-54 -74q-16 -22 -43 -22h-11q-9 0 -14 4.5z" />
    <glyph glyph-name="Idieresis" unicode="&#xcf;" horiz-adv-x="259" 
d="M91.5 9.5q-9.5 9.5 -9.5 25.5v644q0 17 9.5 26t25.5 9h25q17 0 26 -9t9 -26v-644q0 -16 -9 -25.5t-26 -9.5h-25q-16 0 -25.5 9.5zM188.5 778.5q-9.5 9.5 -9.5 25.5v34q0 17 9.5 26t25.5 9h20q17 0 26 -9t9 -26v-34q0 -16 -9 -25.5t-26 -9.5h-20q-16 0 -25.5 9.5z
M0.5 778.5q-9.5 9.5 -9.5 25.5v34q0 17 9.5 26t25.5 9h20q17 0 26 -9t9 -26v-34q0 -16 -9 -25.5t-26 -9.5h-20q-16 0 -25.5 9.5z" />
    <glyph glyph-name="Igrave" unicode="&#xcc;" horiz-adv-x="259" 
d="M91.5 9.5q-9.5 9.5 -9.5 25.5v644q0 17 9.5 26t25.5 9h25q17 0 26 -9t9 -26v-644q0 -16 -9 -25.5t-26 -9.5h-25q-16 0 -25.5 9.5zM110 784l-74 81q-11 11 -11 23q0 9 7.5 14.5t21.5 5.5h23q28 0 42 -24l47 -77q8 -14 8 -24q0 -18 -21 -18q-25 0 -43 19z" />
    <glyph glyph-name="Oacute" unicode="&#xd3;" horiz-adv-x="760" 
d="M60 498.5q22 67.5 64 118.5q44 54 109 84t147 30t147 -30t109 -84q42 -51 64 -118.5t22 -141.5t-22 -141.5t-64 -118.5q-44 -54 -109 -84t-147 -30t-147 30t-109 84q-42 51 -64 118.5t-22 141.5t22 141.5zM147.5 249q14.5 -52 43.5 -93q31 -44 78.5 -68.5t110.5 -24.5
t110.5 24.5t78.5 68.5q29 41 43.5 93t14.5 108t-14.5 108t-43.5 93q-31 44 -78.5 68.5t-110.5 24.5t-110.5 -24.5t-78.5 -68.5q-29 -41 -43.5 -93t-14.5 -108t14.5 -108zM335 781q0 11 9 26l47 77q14 24 42 24h23q14 0 22 -5.5t8 -14.5q0 -12 -11 -23l-75 -81
q-18 -19 -43 -19h-6q-16 0 -16 16z" />
    <glyph glyph-name="Ocircumflex" unicode="&#xd4;" horiz-adv-x="760" 
d="M60 498.5q22 67.5 64 118.5q44 54 109 84t147 30t147 -30t109 -84q42 -51 64 -118.5t22 -141.5t-22 -141.5t-64 -118.5q-44 -54 -109 -84t-147 -30t-147 30t-109 84q-42 51 -64 118.5t-22 141.5t22 141.5zM147.5 249q14.5 -52 43.5 -93q31 -44 78.5 -68.5t110.5 -24.5
t110.5 24.5t78.5 68.5q29 41 43.5 93t14.5 108t-14.5 108t-43.5 93q-31 44 -78.5 68.5t-110.5 24.5t-110.5 -24.5t-78.5 -68.5q-29 -41 -43.5 -93t-14.5 -108t14.5 -108zM255 769.5q-5 4.5 -5 12.5q0 10 11 26l56 78q15 22 43 22h39q27 0 43 -22l57 -78q8 -11 8 -21t-8 -16
t-22 -6h-4q-28 0 -43 22l-53 74l-54 -74q-16 -22 -43 -22h-11q-9 0 -14 4.5z" />
    <glyph glyph-name="Ograve" unicode="&#xd2;" horiz-adv-x="760" 
d="M60 498.5q22 67.5 64 118.5q44 54 109 84t147 30t147 -30t109 -84q42 -51 64 -118.5t22 -141.5t-22 -141.5t-64 -118.5q-44 -54 -109 -84t-147 -30t-147 30t-109 84q-42 51 -64 118.5t-22 141.5t22 141.5zM147.5 249q14.5 -52 43.5 -93q31 -44 78.5 -68.5t110.5 -24.5
t110.5 24.5t78.5 68.5q29 41 43.5 93t14.5 108t-14.5 108t-43.5 93q-31 44 -78.5 68.5t-110.5 24.5t-110.5 -24.5t-78.5 -68.5q-29 -41 -43.5 -93t-14.5 -108t14.5 -108zM360 784l-74 81q-11 11 -11 23q0 9 7.5 14.5t21.5 5.5h23q28 0 42 -24l47 -77q8 -14 8 -24
q0 -18 -21 -18q-25 0 -43 19z" />
    <glyph glyph-name="Uacute" unicode="&#xda;" horiz-adv-x="722" 
d="M639 705q9 -9 9 -26v-421q0 -136 -72.5 -205.5t-208.5 -69.5q-142 0 -215 66q-78 70 -78 209v421q0 17 9.5 26t25.5 9h25q17 0 26 -9t9 -26v-421q0 -96 51 -145.5t147 -49.5q91 0 138.5 49.5t47.5 145.5v421q0 17 9.5 26t25.5 9h25q17 0 26 -9zM316 781q0 11 9 26l47 77
q14 24 42 24h23q14 0 22 -5.5t8 -14.5q0 -12 -11 -23l-75 -81q-18 -19 -43 -19h-6q-16 0 -16 16z" />
    <glyph glyph-name="Ucircumflex" unicode="&#xdb;" horiz-adv-x="722" 
d="M639 705q9 -9 9 -26v-421q0 -136 -72.5 -205.5t-208.5 -69.5q-142 0 -215 66q-78 70 -78 209v421q0 17 9.5 26t25.5 9h25q17 0 26 -9t9 -26v-421q0 -96 51 -145.5t147 -49.5q91 0 138.5 49.5t47.5 145.5v421q0 17 9.5 26t25.5 9h25q17 0 26 -9zM236 769.5q-5 4.5 -5 12.5
q0 10 11 26l56 78q15 22 43 22h39q27 0 43 -22l57 -78q8 -11 8 -21t-8 -16t-22 -6h-4q-28 0 -43 22l-53 74l-54 -74q-16 -22 -43 -22h-11q-9 0 -14 4.5z" />
    <glyph glyph-name="Ugrave" unicode="&#xd9;" horiz-adv-x="722" 
d="M639 705q9 -9 9 -26v-421q0 -136 -72.5 -205.5t-208.5 -69.5q-142 0 -215 66q-78 70 -78 209v421q0 17 9.5 26t25.5 9h25q17 0 26 -9t9 -26v-421q0 -96 51 -145.5t147 -49.5q91 0 138.5 49.5t47.5 145.5v421q0 17 9.5 26t25.5 9h25q17 0 26 -9zM341 784l-74 81
q-11 11 -11 23q0 9 7.5 14.5t21.5 5.5h23q28 0 42 -24l47 -77q8 -14 8 -24q0 -18 -21 -18q-25 0 -43 19z" />
    <glyph glyph-name="dotlessi" unicode="&#x131;" horiz-adv-x="222" 
d="M145 9.5q-9 -9.5 -26 -9.5h-15q-16 0 -25.5 9.5t-9.5 25.5v447q0 17 9.5 26t25.5 9h15q17 0 26 -9t9 -26v-447q0 -16 -9 -25.5z" />
    <glyph glyph-name="circumflex" unicode="&#x2c6;" horiz-adv-x="222" 
d="M-19 604q0 11 11 27l56 78q15 22 43 22h39q27 0 43 -22l57 -78q8 -11 8 -21t-8 -16t-22 -6h-4q-28 0 -43 22l-53 74l-54 -74q-16 -22 -43 -22h-12q-18 0 -18 16z" />
    <glyph glyph-name="tilde" unicode="&#x2dc;" horiz-adv-x="222" 
d="M239 705q9 6 23 6q8 0 12.5 -5.5t4.5 -15.5q0 -7 -3 -18q-6 -18 -22 -41q-28 -31 -79 -31q-22 0 -66 20q-4 1 -27 10t-40 9q-10 0 -21 -4.5t-18 -12.5q-3 -3 -9.5 -11t-12.5 -11t-15 -3q-7 0 -11 5t-4 14q0 8 5 21q10 23 21 37q26 33 70 33q32 0 74 -20t66 -20
q20 0 33 18q10 14 19 20z" />
    <glyph glyph-name="macron" unicode="&#xaf;" horiz-adv-x="222" 
d="M-50 629.5q-9 9.5 -9 25.5q0 20 35 20h271q17 0 26 -9t9 -26q0 -20 -35 -20h-271q-17 0 -26 9.5z" />
    <glyph glyph-name="breve" unicode="&#x2d8;" horiz-adv-x="222" 
d="M-38 704q0 13 9 20t24 7q4 0 9.5 -7.5t11.5 -20.5q29 -55 101 -55q33 0 53 14t34 42q14 27 41 27q7 0 11 -5.5t4 -14.5q0 -10 -4 -19q-17 -47 -55 -73t-92 -26q-114 0 -145 99z" />
    <glyph glyph-name="dotaccent" unicode="&#x2d9;" horiz-adv-x="222" 
d="M147 687q9 -9 9 -26v-34q0 -16 -9 -25.5t-26 -9.5h-20q-16 0 -25.5 9.5t-9.5 25.5v34q0 17 9.5 26t25.5 9h20q17 0 26 -9z" />
    <glyph glyph-name="ring" unicode="&#x2da;" horiz-adv-x="222" 
d="M62.5 613.5q19.5 -19.5 48.5 -19.5t48.5 19.5t19.5 48.5t-19.5 48.5t-48.5 19.5t-48.5 -19.5t-19.5 -48.5t19.5 -48.5zM32 742q33 33 79 33q45 0 80 -33q33 -35 33 -80q0 -46 -33 -79q-34 -34 -80 -34q-47 0 -79 34q-34 32 -34 79q0 46 34 80z" />
    <glyph glyph-name="cedilla" unicode="&#xb8;" horiz-adv-x="222" 
d="M15 -174q0 9 4 17q1 4 10 4t24 -3q13 -4 31 -4q24 0 41 7q21 9 21 24q0 14 -13 22.5t-34 8.5q-8 0 -11 -1q-16 -2 -27 2.5t-19 16.5q-1 2 17 25l27 34q15 21 42 21q6 0 0.5 -13t-18.5 -30l-8 -10l2 -2q10 7 33 7q35 0 59.5 -19t24.5 -54q0 -45 -41 -69q-34 -20 -83 -20
q-27 0 -57 8q-25 6 -25 28z" />
    <glyph glyph-name="hungarumlaut" unicode="&#x2dd;" horiz-adv-x="222" 
d="M-32 604q0 13 8 26l43 77q13 24 42 24h21q14 0 22 -5.5t8 -14.5q0 -12 -10 -23l-67 -80q-17 -20 -43 -20h-7q-17 0 -17 16zM124 604q0 13 8 26l43 77q13 24 42 24h21q14 0 22 -5.5t8 -14.5q0 -12 -10 -23l-67 -80q-17 -20 -43 -20h-7q-17 0 -17 16z" />
    <glyph glyph-name="ogonek" unicode="&#x2db;" horiz-adv-x="222" 
d="M213 3q6 0 0 -9.5t-21 -24.5q-20 -21 -31 -37q-17 -26 -17 -50q0 -17 9.5 -29.5t28.5 -12.5q26 0 40 10q18 10 29 10q10 0 19 -5q3 -2 -1.5 -12t-16.5 -22q-32 -31 -84 -31q-35 0 -55 11q-37 20 -37 71q0 21 19 50q24 34 75 68q18 13 43 13z" />
    <glyph glyph-name="caron" unicode="&#x2c7;" horiz-adv-x="222" 
d="M241 715q0 -11 -11 -27l-56 -78q-15 -22 -43 -22h-39q-27 0 -43 22l-57 78q-8 11 -8 21t8 16t22 6h4q28 0 43 -22l53 -74l54 74q16 22 43 22h12q18 0 18 -16z" />
    <glyph glyph-name="Lslash" unicode="&#x141;" 
d="M87.5 9.5q-9.5 9.5 -9.5 25.5v205l-36 -26q-11 -8 -21 -8t-16 8t-6 22q0 24 22 40l57 40v363q0 17 9.5 26t25.5 9h25q17 0 26 -9t9 -26v-295l185 130q13 8 21 8q10 0 16 -8t6 -22q0 -23 -22 -39l-206 -145v-228h343q17 0 26 -9t9 -26v-10q0 -16 -9 -25.5t-26 -9.5h-403
q-16 0 -25.5 9.5z" />
    <glyph glyph-name="Scaron" unicode="&#x160;" horiz-adv-x="648" 
d="M571 514.5q-9 -9.5 -27 -9.5h-21q-29 0 -38 32q-15 58 -59 86t-112 28q-69 0 -110 -26q-50 -32 -50 -96q0 -59 72 -87q31 -13 73 -21q42 -9 87 -19.5t81 -22.5q88 -29 125 -95q19 -34 19 -88t-24.5 -95t-66.5 -68q-39 -25 -88 -37.5t-100 -12.5q-61 0 -114 15.5t-93 45.5
q-75 57 -86 155q-2 17 7 26.5t27 9.5h21q16 0 24.5 -8.5t11.5 -25.5q12 -61 61 -97q56 -41 144 -41q76 0 123 27q58 31 58 103q0 35 -18.5 58.5t-52.5 39.5q-25 11 -55.5 19t-78.5 18l-23 5q-51 11 -89.5 23.5t-67.5 31.5q-72 46 -72 134q0 52 21.5 92t59.5 67
q35 25 81.5 37.5t96.5 12.5q115 0 185 -54q61 -48 75 -135q2 -18 -7 -27.5zM454 892q0 -11 -11 -27l-56 -78q-15 -22 -43 -22h-39q-27 0 -43 22l-57 78q-8 11 -8 21t8 16t22 6h4q28 0 43 -22l53 -74l54 74q16 22 43 22h12q18 0 18 -16z" />
    <glyph glyph-name="Yacute" unicode="&#xdd;" horiz-adv-x="648" 
d="M618 708q8 -6 8 -16q0 -9 -7 -20l-246 -380v-257q0 -16 -9 -25.5t-26 -9.5h-25q-16 0 -25.5 9.5t-9.5 25.5v257l-248 380q-7 11 -7 20q0 10 8 16t22 6h35q15 0 25 -5.5t17 -17.5l199 -317l195 317q7 12 17 17.5t25 5.5h30q14 0 22 -6zM279 781q0 11 9 26l47 77
q14 24 42 24h23q14 0 22 -5.5t8 -14.5q0 -12 -11 -23l-75 -81q-18 -19 -43 -19h-6q-16 0 -16 16z" />
    <glyph glyph-name="Zcaron" unicode="&#x17d;" horiz-adv-x="611" 
d="M31.5 9.5q-9.5 9.5 -9.5 25.5v21q0 25 15 43l429 535h-375q-16 0 -25.5 9.5t-9.5 25.5v10q0 17 9.5 26t25.5 9h452q17 0 26 -9t9 -26v-21q0 -25 -15 -43l-428 -535h420q17 0 26 -9t9 -26v-10q0 -16 -9 -25.5t-26 -9.5h-498q-16 0 -25.5 9.5zM436 892q0 -11 -11 -27
l-56 -78q-15 -22 -43 -22h-39q-27 0 -43 22l-57 78q-8 11 -8 21t8 16t22 6h4q28 0 43 -22l53 -74l54 74q16 22 43 22h12q18 0 18 -16z" />
    <glyph glyph-name="Eth" unicode="&#xd0;" horiz-adv-x="704" 
d="M87.5 9.5q-9.5 9.5 -9.5 25.5v304h-35q-16 0 -25.5 9.5t-9.5 25.5t9 24.5t26 8.5h35v272q0 17 9.5 26t25.5 9h210q167 0 255 -85t88 -255q0 -184 -82 -276q-86 -98 -261 -98h-210q-16 0 -25.5 9.5zM173 407h179q17 0 26 -9t9 -26q0 -16 -9 -24.5t-26 -8.5h-179v-259h158
q49 0 91 15q64 21 101 76q48 70 48 190q0 134 -53 200q-59 73 -185 73h-160v-227z" />
    <glyph glyph-name="Thorn" unicode="&#xde;" horiz-adv-x="648" 
d="M164 9.5q-9 -9.5 -26 -9.5h-25q-16 0 -25.5 9.5t-9.5 25.5v644q0 17 9.5 26t25.5 9h25q17 0 26 -9t9 -26v-79h218q107 0 163 -55.5t56 -156.5t-56 -156t-163 -54h-218v-143q0 -16 -9 -25.5zM173 258h186q156 -1 156 130q0 67 -38 99.5t-118 32.5h-186v-262z" />
    <glyph glyph-name="lslash" unicode="&#x142;" horiz-adv-x="222" 
d="M78.5 9.5q-9.5 9.5 -9.5 25.5v286l-27 -21q-11 -10 -23 -10q-9 0 -14.5 8t-5.5 22q0 9 5 16t16 17l49 40v286q0 17 9.5 26t25.5 9h15q17 0 26 -9t9 -26v-219l27 22q12 9 22 9q9 0 15 -8t6 -22t-21 -32l-49 -40v-354q0 -16 -9 -25.5t-26 -9.5h-15q-16 0 -25.5 9.5z" />
    <glyph glyph-name="scaron" unicode="&#x161;" horiz-adv-x="500" 
d="M35 135q0 13 9 20.5t24 7.5h16q15 0 23 -7.5t14 -24.5q11 -30 40 -46q36 -22 94 -22q51 0 83 14q42 19 42 63t-52 66q-19 8 -54 17q-82 16 -125 30q-65 19 -92 67q-15 26 -15 62q0 72 63 113q26 17 60.5 25.5t69.5 8.5q95 0 147 -33q46 -30 60 -91q1 -3 1 -9
q0 -13 -9.5 -21t-24.5 -8h-16q-15 0 -23 7.5t-15 22.5q-10 25 -34 38q-34 19 -79 19q-47 0 -74 -13q-17 -8 -26.5 -21.5t-9.5 -31.5q0 -22 14.5 -36t40.5 -24q22 -10 54 -16q87 -20 123 -31q63 -21 92 -68q14 -26 14 -62q0 -86 -70 -128q-59 -35 -150 -35q-94 0 -151 40
q-50 33 -63 98q-1 3 -1 9zM380 715q0 -11 -11 -27l-56 -78q-15 -22 -43 -22h-39q-27 0 -43 22l-57 78q-8 11 -8 21t8 16t22 6h4q28 0 43 -22l53 -74l54 74q16 22 43 22h12q18 0 18 -16z" />
    <glyph glyph-name="yacute" unicode="&#xfd;" horiz-adv-x="500" 
d="M479 493q0 -7 -3 -16l-209 -546q-30 -76 -61 -106q-35 -32 -89 -32q-19 0 -29 2q-30 4 -30 38v7q0 19 6.5 27.5t18.5 4.5q16 -4 25 -4q25 0 41 11.5t29 35.5l35 88l-189 473q-4 12 -4 16q0 12 8.5 18.5t23.5 6.5h22q30 0 40 -28l141 -395h2l135 395q9 28 40 28h17
q30 0 30 -24zM205 604q0 11 9 26l47 77q14 24 42 24h23q14 0 22 -5.5t8 -14.5q0 -12 -11 -23l-75 -81q-18 -19 -43 -19h-6q-16 0 -16 16z" />
    <glyph glyph-name="zcaron" unicode="&#x17e;" horiz-adv-x="480" 
d="M31.5 9.5q-9.5 9.5 -9.5 25.5v5q0 25 16 44l296 358h-257q-16 0 -25.5 9.5t-9.5 25.5v5q0 17 9.5 26t25.5 9h332q17 0 26 -9t9 -26q0 -23 -16 -42l-300 -365h295q17 0 26 -9t9 -26v-5q0 -16 -9 -25.5t-26 -9.5h-366q-16 0 -25.5 9.5zM370 715q0 -11 -11 -27l-56 -78
q-15 -22 -43 -22h-39q-27 0 -43 22l-57 78q-8 11 -8 21t8 16t22 6h4q28 0 43 -22l53 -74l54 74q16 22 43 22h12q18 0 18 -16z" />
    <glyph glyph-name="eth" unicode="&#xf0;" horiz-adv-x="574" 
d="M411 450h2q-24 50 -61 93q-33 39 -61 58l-88 -41q-12 -5 -19 -5q-15 0 -29 14q-4 4 -4 10q0 14 25 26l71 33q-17 16 -32 24q-16 12 -16 25q0 14 16 24l7 4q15 9 26 9q8 0 17 -6q3 -2 7.5 -5.5t10.5 -6.5q28 -20 41 -31l93 43q12 5 20 5q14 0 28 -14q6 -7 -0.5 -16
t-23.5 -17l-77 -35q174 -144 174 -383q0 -58 -16 -106.5t-48 -84.5q-33 -38 -80.5 -58.5t-106.5 -20.5q-118 0 -187 79q-32 36 -48 84.5t-16 106.5q0 49 15.5 94t45.5 79q31 36 75.5 55.5t99.5 19.5q90 0 139 -56zM166.5 384q-40.5 -47 -40.5 -126q0 -92 47 -144
q22 -25 51.5 -38t62.5 -13t62.5 13t51.5 38q47 52 47 144q0 75 -39 121q-44 52 -127 52q-75 0 -115.5 -47z" />
    <glyph glyph-name="thorn" unicode="&#xfe;" horiz-adv-x="593" 
d="M429 395q-20 28 -51 43.5t-71 15.5q-80 0 -122 -61q-36 -53 -36 -134q0 -83 38 -136q43 -60 125 -60q41 0 71.5 16.5t49.5 45.5q34 52 34 138q0 79 -38 132zM143 705q9 -9 9 -26v-232h2q20 41 64 61.5t101 20.5q114 0 179 -81q29 -37 44 -86.5t15 -104.5
q0 -56 -14.5 -105t-43.5 -84q-65 -80 -178 -80q-46 0 -89 18q-52 20 -78 63h-2v-232q0 -17 -9 -26t-26 -9h-15q-16 0 -25.5 9t-9.5 26v842q0 17 9.5 26t25.5 9h15q17 0 26 -9z" />
    <glyph glyph-name="brokenbar" unicode="&#xa6;" horiz-adv-x="222" 
d="M86 -80q-9 9 -9 26v180q0 17 9.5 26t25.5 9t24.5 -9t8.5 -26v-180q0 -17 -9 -26t-25 -9t-25 9zM136 652q9 -9 9 -26v-180q0 -16 -9 -25.5t-26 -9.5q-16 0 -24.5 9t-8.5 26v180q0 17 9 26t25 9t25 -9z" />
    <glyph glyph-name="currency" unicode="&#xa4;" 
d="M165 232q22 -23 51.5 -36t61.5 -13q33 0 63 13t52 37q21 24 33 54t12 62t-12 62t-33 54q-22 24 -52 37t-63 13t-62.5 -12.5t-50.5 -35.5q-22 -23 -34.5 -54t-12.5 -64q0 -68 47 -117zM36 147q0 12 12 24l32 32q-50 59 -50 146q0 92 50 148l-31 30q-12 12 -12 24
q0 13 12 25l1 2q12 12 25 12t25 -12l30 -30q29 23 68.5 36t79.5 13q42 0 81 -13t69 -36l29 30q12 12 24 12q13 0 26 -13l1 -1q11 -13 11 -25q0 -13 -12 -25l-29 -29q23 -26 35.5 -65.5t12.5 -82.5q0 -87 -48 -146l30 -32q11 -11 11 -25t-11 -25l-1 -1q-12 -12 -24 -12
t-25 13l-30 31q-29 -25 -68 -38t-82 -13q-91 0 -148 51l-30 -32q-12 -12 -25 -12t-25 12l-1 1q-13 13 -13 26z" />
    <glyph glyph-name="uni00B9" unicode="&#xb9;" horiz-adv-x="333" 
d="M242.5 700q6.5 -9 6.5 -26v-359q0 -16 -9 -25.5t-26 -9.5q-16 0 -24.5 9t-8.5 26v273h-80q-16 0 -25.5 9.5t-9.5 25.5q0 12 34 17q63 7 88 42q9 15 16.5 21t19.5 6t18.5 -9z" />
    <glyph glyph-name="uni00B2" unicode="&#xb2;" horiz-adv-x="333" 
d="M81.5 563q-8.5 -8 -24.5 -8q-17 0 -26 9.5t-6 27.5q11 54 51 85.5t99 31.5q61 0 105 -33q43 -33 43 -93q0 -48 -35 -88q-14 -16 -32.5 -28.5t-45.5 -28.5q-14 -9 -42 -25q-48 -26 -69 -49q-13 -12 -17 -29h200q17 0 26 -9t9 -26q0 -20 -35 -20h-231q-15 0 -24 7.5
t-9 21.5q0 6 1 9q8 43 35 73q15 17 34.5 31t50.5 32q37 22 56 34.5t32 25.5q15 15 21.5 31t6.5 39q0 32 -23.5 51t-59.5 19q-33 0 -53 -18t-26 -48q-3 -17 -11.5 -25z" />
    <glyph glyph-name="uni00B3" unicode="&#xb3;" horiz-adv-x="333" 
d="M136.5 486.5q-4.5 9.5 -4.5 25.5q0 15 24 15q36 0 59.5 16t23.5 49q0 29 -21.5 45.5t-55.5 16.5q-31 0 -50 -14.5t-26 -39.5q-5 -16 -13.5 -24t-23.5 -8q-14 0 -22 7t-8 20q0 7 1 11q12 49 49 76t93 27q64 0 104 -29q41 -32 41 -88q0 -28 -19.5 -50.5t-48.5 -34.5v-2
q44 -8 65.5 -35t21.5 -67q0 -64 -49 -98q-22 -15 -52 -23.5t-61 -8.5q-34 0 -63 9t-50 27q-33 25 -43 68q-1 3 -1 9q0 13 9.5 20.5t24.5 7.5q14 0 22 -7.5t14 -24.5q15 -54 87 -54q40 0 67 19.5t27 52.5q0 38 -29 60q-24 17 -64 17h-16q-8 0 -12.5 9.5z" />
    <glyph glyph-name="onequarter" unicode="&#xbc;" horiz-adv-x="834" 
d="M716.5 420q6.5 -9 6.5 -26v-243h25q17 0 26 -9t9 -26q0 -20 -35 -20h-25v-61q0 -16 -9 -25.5t-26 -9.5q-13 0 -20 9t-7 26v61h-164q-16 0 -25.5 9.5t-9.5 25.5q0 21 15 42l179 235q15 21 42 21q12 0 18.5 -9zM511 151h150v193h-2zM166 -12q0 13 8 26l397 687q14 24 42 24
q20 0 20 -18q0 -10 -8 -24l-397 -687q-13 -24 -42 -24h-4q-16 0 -16 16zM212.5 700q6.5 -9 6.5 -26v-359q0 -16 -9 -25.5t-26 -9.5q-16 0 -24.5 9t-8.5 26v273h-80q-16 0 -25.5 9.5t-9.5 25.5q0 12 34 17q63 7 88 42q9 15 16.5 21t19.5 6t18.5 -9z" />
    <glyph glyph-name="onehalf" unicode="&#xbd;" horiz-adv-x="834" 
d="M151 -12q0 13 8 26l397 687q14 24 42 24q20 0 20 -18q0 -10 -8 -24l-397 -687q-13 -24 -42 -24h-4q-16 0 -16 16zM212.5 700q6.5 -9 6.5 -26v-359q0 -16 -9 -25.5t-26 -9.5q-16 0 -24.5 9t-8.5 26v273h-80q-16 0 -25.5 9.5t-9.5 25.5q0 12 34 17q63 7 88 42q9 15 16.5 21
t19.5 6t18.5 -9zM561.5 283q-8.5 -8 -24.5 -8q-17 0 -26 9.5t-6 27.5q11 54 51 85.5t99 31.5q61 0 105 -33q43 -33 43 -93q0 -48 -35 -88q-14 -16 -32.5 -28.5t-45.5 -28.5q-14 -9 -42 -25q-48 -26 -69 -49q-12 -13 -17 -29h200q17 0 26 -9t9 -26q0 -20 -35 -20h-231
q-15 0 -24 7.5t-9 21.5q0 6 1 9q8 43 35 73q15 17 34.5 31t50.5 32q37 22 56 34.5t32 25.5q15 15 21.5 31t6.5 39q0 32 -23.5 51t-59.5 19q-33 0 -53 -18t-26 -48q-3 -17 -11.5 -25z" />
    <glyph glyph-name="threequarters" unicode="&#xbe;" horiz-adv-x="834" 
d="M733.5 420q6.5 -9 6.5 -26v-243h25q17 0 26 -9t9 -26q0 -20 -35 -20h-25v-61q0 -16 -9 -25.5t-26 -9.5q-13 0 -20 9t-7 26v61h-164q-16 0 -25.5 9.5t-9.5 25.5q0 21 15 42l179 235q15 21 42 21q12 0 18.5 -9zM529 147h150v193h-2zM231 -12q0 13 8 26l397 687q14 24 42 24
q20 0 20 -18q0 -10 -8 -24l-397 -687q-13 -24 -42 -24h-4q-16 0 -16 16zM181.5 486.5q-4.5 9.5 -4.5 25.5q0 15 24 15q36 0 59.5 16t23.5 49q0 29 -21.5 45.5t-55.5 16.5q-31 0 -50 -14.5t-26 -39.5q-5 -16 -13.5 -24t-23.5 -8q-14 0 -22 7t-8 20q0 7 1 11q12 49 49 76
t93 27q64 0 104 -29q41 -32 41 -88q0 -28 -19.5 -50.5t-48.5 -34.5v-2q44 -8 65.5 -35t21.5 -67q0 -64 -49 -98q-22 -15 -52 -23.5t-61 -8.5q-34 0 -63 9t-50 27q-33 25 -43 68q-1 3 -1 9q0 13 9.5 20.5t24.5 7.5q14 0 22 -7.5t14 -24.5q15 -54 87 -54q40 0 67 19.5t27 52.5
q0 38 -29 60q-24 17 -64 17h-16q-8 0 -12.5 9.5z" />
    <glyph glyph-name="minus" unicode="&#x2212;" horiz-adv-x="600" 
d="M57.5 228.5q-9.5 9.5 -9.5 25.5t9 24.5t26 8.5h434q17 0 26 -9t9 -26q0 -16 -9 -24.5t-26 -8.5h-434q-16 0 -25.5 9.5z" />
    <glyph glyph-name="multiply" unicode="&#xd7;" horiz-adv-x="600" 
d="M119 37q-13 0 -25 12q-11 11 -11 22q0 13 13 26l157 157l-156 155q-12 12 -12 25t12 25q11 11 22 11q13 0 26 -13l156 -155l155 155q12 12 25 12t25 -12q11 -11 11 -22q0 -13 -13 -26l-155 -155l156 -157q12 -12 12 -25t-12 -25q-11 -11 -22 -11q-13 0 -26 13l-156 157
l-157 -157q-12 -12 -25 -12z" />
    <glyph glyph-name="estimated" unicode="&#x212e;" horiz-adv-x="750" 
d="M688 335.5q-9 -9.5 -26 -9.5h-469v-228q72 -74 181 -74q71 0 124 29t98 92q12 18 28 18q10 0 20 -6q6 -4 6 -12q0 -10 -12 -27q-50 -69 -101 -99q-64 -40 -163 -40q-73 0 -132.5 26.5t-102.5 74.5q-42 48 -65 111t-23 135t23 135.5t65 110.5q43 48 102.5 73.5t132.5 25.5
q71 0 131 -25.5t103 -71.5q37 -41 60 -95t28 -117q1 -17 -8 -26.5zM556 371v181q-78 75 -183 75q-106 0 -180 -75v-181h363z" />
    <glyph glyph-name="uni2113" unicode="&#x2113;" horiz-adv-x="508" 
d="M411 62q15 0 27 -16q3 -5 -3 -12.5t-21 -16.5q-55 -32 -115 -32q-69 0 -107 35.5t-38 98.5v111l-46 -43q-16 -14 -26 -14t-16 9q0 13 1 21.5t12 17.5l74 65v272q0 82 46 134q21 24 49.5 37.5t61.5 13.5q60 0 94 -36.5t34 -99.5q0 -77 -48 -156t-148 -171v-143
q0 -51 28 -76q21 -20 59 -20q30 0 61 15q12 6 21 6zM356 668q-18 27 -46 27q-30 0 -49 -30t-19 -85v-247q67 72 99.5 140.5t32.5 125.5q0 42 -18 69z" />
    <glyph glyph-name="uni25CC" unicode="&#x25cc;" horiz-adv-x="911" 
d="M476 651q-8 -8 -20 -8q-11 0 -19.5 8t-8.5 20q0 11 8.5 19.5t19.5 8.5q12 0 20 -8.5t8 -19.5q0 -12 -8 -20zM603 624.5q-8 -8.5 -20 -8.5q-11 0 -19.5 8.5t-8.5 19.5q0 12 8.5 20t19.5 8q12 0 20 -8t8 -20q0 -11 -8 -19.5zM708 553.5q-8 -8.5 -20 -8.5t-20 8.5t-8 19.5
q0 12 8 20.5t20 8.5t20 -8.5t8 -20.5q0 -11 -8 -19.5zM778 447.5q-8 -8.5 -20 -8.5q-11 0 -19.5 8.5t-8.5 19.5q0 12 8.5 20t19.5 8q12 0 20 -8t8 -20q0 -11 -8 -19.5zM803 324q-8 -8 -20 -8q-11 0 -19.5 8t-8.5 20q0 11 8.5 19.5t19.5 8.5q12 0 20 -8.5t8 -19.5
q0 -12 -8 -20zM778 197q-8 -8 -20 -8q-11 0 -19.5 8t-8.5 20q0 11 8.5 19.5t19.5 8.5q12 0 20 -8.5t8 -19.5q0 -12 -8 -20zM708 92.5q-8 -8.5 -20 -8.5t-20 8.5t-8 19.5t8 19.5t20 8.5t20 -8.5t8 -19.5t-8 -19.5zM600 20.5q-8 -8.5 -20 -8.5q-11 0 -19.5 8.5t-8.5 19.5
q0 12 8.5 20t19.5 8q12 0 20 -8t8 -20q0 -11 -8 -19.5zM476 -3.5q-8 -8.5 -20 -8.5q-11 0 -19.5 8.5t-8.5 20.5q0 11 8.5 19.5t19.5 8.5q12 0 20 -8.5t8 -19.5q0 -12 -8 -20.5zM349.5 22q-8.5 -8 -19.5 -8q-12 0 -20 8t-8 20q0 11 8 19.5t20 8.5q11 0 19.5 -8.5t8.5 -19.5
q0 -12 -8.5 -20zM245 92.5q-8 -8.5 -20 -8.5t-20 8.5t-8 19.5t8 19.5t20 8.5t20 -8.5t8 -19.5t-8 -19.5zM172.5 200q-8.5 -8 -19.5 -8q-12 0 -20 8t-8 20q0 11 8 19.5t20 8.5q11 0 19.5 -8.5t8.5 -19.5q0 -12 -8.5 -20zM148 324q-8 -8 -20 -8t-20 8t-8 20q0 11 8 19.5
t20 8.5t20 -8.5t8 -19.5q0 -12 -8 -20zM174 451q-8 -8 -20 -8q-11 0 -19.5 8t-8.5 20q0 11 8.5 19.5t19.5 8.5q12 0 20 -8.5t8 -19.5q0 -12 -8 -20zM245 553.5q-8 -8.5 -20 -8.5t-20 8.5t-8 19.5q0 12 8 20.5t20 8.5t20 -8.5t8 -20.5q0 -11 -8 -19.5zM352.5 626
q-8.5 -8 -19.5 -8q-12 0 -20 8t-8 20q0 11 8 19.5t20 8.5q11 0 19.5 -8.5t8.5 -19.5q0 -12 -8.5 -20z" />
    <glyph glyph-name="uni200C" unicode="&#x200c;" horiz-adv-x="33" 
d="M29 1311.5q4 -9.5 4 -25.5v-1249v-7q-1 -13 -10 -13q-8 0 -15.5 10t-7.5 23v1236q0 35 17 35q8 0 12 -9.5z" />
    <glyph glyph-name="uni200D" unicode="&#x200d;" horiz-adv-x="33" 
d="M65.5 1263.5q-4.5 -4.5 -11.5 -4.5q-8 0 -17 9l-4 5v-1238v-7q-1 -13 -10 -13q-8 0 -15.5 10t-7.5 23v1228l-24 -24q-2 1 -7 5t-5 11t9 16l24 24l-39 39q1 2 5.5 6.5t10.5 4.5q9 0 18 -9l23 -23l39 39q2 -1 6 -5.5t4 -10.5q0 -9 -10 -19l-21 -21v-1l38 -38
q-1 -2 -5.5 -6.5z" />
    <glyph glyph-name="uni200E" unicode="&#x200e;" horiz-adv-x="32" 
d="M177 1308q0 -13 -12 -25l-13 -13q-12 -12 -23 -12q-9 0 -14.5 8t-5.5 22v0h-77v-1251v-6q-1 -13 -10 -13q-7 0 -14.5 9.5t-7.5 22.5v1236q0 17 9.5 26t25.5 9h74v7q0 14 5.5 22t14.5 8q11 0 23 -12l13 -13q12 -12 12 -25z" />
    <glyph glyph-name="uni200F" unicode="&#x200f;" horiz-adv-x="33" 
d="M-2 1321q17 0 26 -9t9 -26v-1249v-7q-1 -13 -10 -13q-8 0 -15.5 10t-7.5 23v1238h-77v0q0 -14 -5.5 -22t-14.5 -8q-11 0 -23 12l-13 13q-12 12 -12 25t12 25l13 13q12 12 23 12q9 0 14.5 -8t5.5 -22v-7h75z" />
    <glyph glyph-name="uni202A" unicode="&#x202a;" horiz-adv-x="500" 
 />
    <glyph glyph-name="uni202B" unicode="&#x202b;" horiz-adv-x="500" 
 />
    <glyph glyph-name="uni202C" unicode="&#x202c;" horiz-adv-x="500" 
 />
    <glyph glyph-name="uni202D" unicode="&#x202d;" horiz-adv-x="500" 
 />
    <glyph glyph-name="uni202E" unicode="&#x202e;" horiz-adv-x="500" 
 />
    <glyph glyph-name="uni2002" unicode="&#x2002;" horiz-adv-x="500" 
 />
    <glyph glyph-name="uni2003" unicode="&#x2003;" horiz-adv-x="1000" 
 />
    <glyph glyph-name="uni2009" unicode="&#x2009;" horiz-adv-x="100" 
 />
    <glyph glyph-name="uni200A" unicode="&#x200a;" horiz-adv-x="20" 
 />
    <glyph glyph-name="uni0621" unicode="&#x621;" horiz-adv-x="358" 
d="M318 63q9 -9 9 -26v-2q0 -16 -9 -25.5t-26 -9.5h-231q-16 0 -25.5 9.5t-9.5 25.5v2q0 17 9.5 26t25.5 9h38q-33 39 -33 94q0 73 46 114q20 18 46.5 27.5t54.5 9.5q22 0 48 -2q15 -1 23 -11.5t8 -26.5v-6q0 -35 -35 -30q-16 3 -36 3q-42 0 -63 -24t-21 -57q0 -41 23.5 -66
t72.5 -25h59q17 0 26 -9z" />
    <glyph glyph-name="uni0622" unicode="&#x622;" horiz-adv-x="222" 
d="M-32 829q-15 0 -26 17q-2 2 4.5 10t19.5 16q25 15 57 15q18 0 43.5 -8.5t51.5 -20.5q55 -26 85 -26q25 0 41 16q17 17 31 17q7 0 15 -3q1 -1 -2 -10t-10 -23q-12 -24 -29.5 -35.5t-45.5 -11.5q-25 0 -48 7.5t-51 20.5q-56 27 -89 27q-18 0 -29 -4q-9 -4 -18 -4zM83.5 705
q9.5 9 25.5 9h12q17 0 26 -9t9 -26v-644q0 -16 -9 -25.5t-26 -9.5h-12q-16 0 -25.5 9.5t-9.5 25.5v644q0 17 9.5 26z" />
    <glyph glyph-name="uni0623" unicode="&#x623;" horiz-adv-x="222" 
d="M195.5 825q7.5 -9 7.5 -26q0 -5 -9.5 -7.5t-25.5 -2.5h-113q-17 0 -26 9.5t-9 25.5q0 5 9.5 7.5t25.5 2.5h10q-14 23 -14 51q0 42 25 65.5t60 23.5q15 0 21 -1q27 -3 27 -37q0 -11 -12 -11q-6 0 -9 1q-14 2 -22 2q-23 0 -34.5 -13t-11.5 -32q0 -21 13.5 -35t38.5 -14h28
q13 0 20.5 -9zM79.5 705q9.5 9 25.5 9h12q17 0 26 -9t9 -26v-644q0 -16 -9 -25.5t-26 -9.5h-12q-16 0 -25.5 9.5t-9.5 25.5v644q0 17 9.5 26z" />
    <glyph glyph-name="uni0624" unicode="&#x624;" horiz-adv-x="485" 
d="M92 39q-54 44 -54 138q0 40 13 78.5t38 68.5q26 31 63 48.5t84 17.5q102 0 148 -73q41 -65 41 -187v-94q0 -140 -77 -197q-35 -26 -87.5 -37t-124.5 -11h-7q-16 0 -25.5 9t-9.5 26v13q0 17 8 26t23 9q55 0 92.5 4.5t63.5 17.5q30 15 45 42.5t15 71.5v19q-46 -29 -119 -29
q-85 0 -130 39zM230 80q36 0 65 9.5t46 22.5v37q0 75 -24 116q-28 46 -85 46q-55 0 -87 -42q-13 -18 -20 -39.5t-7 -43.5q0 -106 112 -106zM321 545q9 -9 9 -26q0 -8 -9.5 -13t-25.5 -5h-148q-16 0 -25.5 9.5t-9.5 25.5q0 8 9.5 13t25.5 5h16q-23 29 -23 68q0 53 33 83
q30 27 74 27q11 0 27 -2q31 -3 31 -37q0 -17 -17 -17q-6 0 -9 1q-16 2 -26 2q-30 0 -45.5 -17.5t-15.5 -41.5q0 -29 17.5 -47.5t51.5 -18.5h35q16 0 25 -9z" />
    <glyph glyph-name="uni0625" unicode="&#x625;" horiz-adv-x="222" 
d="M185.5 -212q7.5 -9 7.5 -26q0 -11 -35 -11h-113q-17 0 -26 9t-9 26q0 11 35 11h10q-14 23 -14 50q0 43 25 66.5t60 23.5q15 0 21 -1q27 -3 27 -37q0 -12 -12 -12q-6 0 -9 1q-14 2 -22 2q-23 0 -34.5 -13t-11.5 -32q0 -21 13.5 -34.5t38.5 -13.5h28q13 0 20.5 -9z
M79.5 705q9.5 9 25.5 9h12q17 0 26 -9t9 -26v-644q0 -16 -9 -25.5t-26 -9.5h-12q-16 0 -25.5 9.5t-9.5 25.5v644q0 17 9.5 26z" />
    <glyph glyph-name="uni0626" unicode="&#x626;" horiz-adv-x="735" 
d="M72 149q9 -9 9 -26v-96q0 -84 55 -127q61 -50 198 -50q109 0 184 29q79 31 79 81q0 23 -15 38.5t-57 36.5q-69 34 -99 67q-41 43 -41 101q0 39 14 78t41 70q60 70 165 70q35 0 59 -7h1q7 -3 17.5 -15t10.5 -25v-14q0 -32 -29 -32q-6 0 -9 1q-28 5 -52 5q-64 0 -100 -38
q-16 -17 -25 -38t-9 -42q0 -35 28 -61q11 -11 29 -21.5t38 -21.5q69 -38 94 -66t25 -64q0 -44 -19.5 -82.5t-60.5 -67.5q-94 -67 -269 -67q-178 0 -261 70q-73 60 -73 174v114q0 17 9.5 26t25.5 9h11q17 0 26 -9zM228 347q9 -9 9 -26q0 -8 -9.5 -13t-25.5 -5h-148
q-16 0 -25.5 9.5t-9.5 25.5q0 8 9.5 13t25.5 5h16q-23 29 -23 68q0 53 33 83q30 27 74 27q11 0 27 -2q31 -3 31 -37q0 -17 -17 -17q-6 0 -9 1q-16 2 -26 2q-30 0 -45.5 -17.5t-15.5 -41.5q0 -29 17.5 -47.5t51.5 -18.5h35q16 0 25 -9z" />
    <glyph glyph-name="uni0627" unicode="&#x627;" horiz-adv-x="222" 
d="M79.5 705q9.5 9 25.5 9h12q17 0 26 -9t9 -26v-644q0 -16 -9 -25.5t-26 -9.5h-12q-16 0 -25.5 9.5t-9.5 25.5v644q0 17 9.5 26z" />
    <glyph glyph-name="uni0628" unicode="&#x628;" horiz-adv-x="878" 
d="M799 376q9 -9 9 -26v-315q0 -16 -9 -25.5t-26 -9.5h-571q-58 0 -96.5 8t-61.5 26q-23 17 -33.5 44t-10.5 68v120q0 17 9.5 26t25.5 9h12q17 0 26 -9t9 -26v-90q0 -31 7.5 -49.5t25.5 -27.5q17 -9 47 -12.5t81 -3.5h483v267q0 17 9.5 26t25.5 9h12q17 0 26 -9z
M378.5 -114.5q15.5 15.5 37.5 15.5t37.5 -15.5t15.5 -37.5t-15.5 -37.5t-37.5 -15.5t-37.5 15.5t-15.5 37.5t15.5 37.5z" />
    <glyph glyph-name="uni0629" unicode="&#x629;" horiz-adv-x="428" 
d="M144 306.5q-21 -11.5 -37 -30.5q-15 -19 -23.5 -44t-8.5 -53q0 -52 34 -78q28 -24 79 -24q50 0 78 21q36 26 36 77q0 62 -34 104q-16 19 -36.5 29t-42.5 10q-24 0 -45 -11.5zM13.5 251.5q13.5 40.5 37.5 73.5q26 35 62 54.5t79 19.5q39 0 72.5 -15.5t59.5 -44.5
q54 -64 54 -168q0 -75 -44 -120q-54 -56 -148 -56q-87 0 -134 43q-52 46 -52 133q0 40 13.5 80.5zM79.5 590.5q15.5 15.5 37.5 15.5t37.5 -15.5t15.5 -37.5t-15.5 -37.5t-37.5 -15.5t-37.5 15.5t-15.5 37.5t15.5 37.5zM209.5 590.5q15.5 15.5 37.5 15.5t37.5 -15.5
t15.5 -37.5t-15.5 -37.5t-37.5 -15.5t-37.5 15.5t-15.5 37.5t15.5 37.5z" />
    <glyph glyph-name="uni062A" unicode="&#x62a;" horiz-adv-x="878" 
d="M799 376q9 -9 9 -26v-315q0 -16 -9 -25.5t-26 -9.5h-571q-58 0 -96.5 8t-61.5 26q-23 17 -33.5 44t-10.5 68v120q0 17 9.5 26t25.5 9h12q17 0 26 -9t9 -26v-90q0 -31 7.5 -49.5t25.5 -27.5q17 -9 47 -12.5t81 -3.5h483v267q0 17 9.5 26t25.5 9h12q17 0 26 -9z
M307.5 532.5q15.5 15.5 37.5 15.5t37.5 -15.5t15.5 -37.5t-15.5 -37.5t-37.5 -15.5t-37.5 15.5t-15.5 37.5t15.5 37.5zM437.5 532.5q15.5 15.5 37.5 15.5t37.5 -15.5t15.5 -37.5t-15.5 -37.5t-37.5 -15.5t-37.5 15.5t-15.5 37.5t15.5 37.5z" />
    <glyph glyph-name="uni062B" unicode="&#x62b;" horiz-adv-x="878" 
d="M799 376q9 -9 9 -26v-315q0 -16 -9 -25.5t-26 -9.5h-571q-58 0 -96.5 8t-61.5 26q-23 17 -33.5 44t-10.5 68v120q0 17 9.5 26t25.5 9h12q17 0 26 -9t9 -26v-90q0 -31 7.5 -49.5t25.5 -27.5q17 -9 47 -12.5t81 -3.5h483v267q0 17 9.5 26t25.5 9h12q17 0 26 -9z
M304.5 532.5q15.5 15.5 37.5 15.5t37.5 -15.5t15.5 -37.5t-15.5 -37.5t-37.5 -15.5t-37.5 15.5t-15.5 37.5t15.5 37.5zM434.5 532.5q15.5 15.5 37.5 15.5t37.5 -15.5t15.5 -37.5t-15.5 -37.5t-37.5 -15.5t-37.5 15.5t-15.5 37.5t15.5 37.5zM371.5 652.5q15.5 15.5 37.5 15.5
t37.5 -15.5t15.5 -37.5t-15.5 -37.5t-37.5 -15.5t-37.5 15.5t-15.5 37.5t15.5 37.5z" />
    <glyph glyph-name="uni062C" unicode="&#x62c;" horiz-adv-x="624" 
d="M488 83q0 120 -63 180q-56 52 -150 52q-27 0 -77 -8q-4 -1 -10 -1q-13 0 -20.5 8.5t-7.5 23.5v9q0 32 29 39q48 13 96 13q74 0 129.5 -25t91.5 -71q34 -44 51 -103t17 -127v-38q0 -16 -9 -25.5t-26 -9.5h-265q-78 0 -125 -29q-63 -37 -63 -122q0 -82 58 -125
q52 -39 139 -39q42 0 77 5t76 21q9 4 19 4q18 0 29 -20l2 -3q5 -9 5 -19q0 -19 -18 -29q-38 -20 -91 -33q-49 -11 -96 -11q-131 0 -206 60q-80 64 -80 180q0 131 90 194q71 49 185 49h213zM258.5 -114.5q15.5 15.5 37.5 15.5t37.5 -15.5t15.5 -37.5t-15.5 -37.5t-37.5 -15.5
t-37.5 15.5t-15.5 37.5t15.5 37.5z" />
    <glyph glyph-name="uni062D" unicode="&#x62d;" horiz-adv-x="624" 
d="M488 83q0 120 -63 180q-56 52 -150 52q-27 0 -77 -8q-4 -1 -10 -1q-13 0 -20.5 8.5t-7.5 23.5v9q0 32 29 39q48 13 96 13q74 0 129.5 -25t91.5 -71q34 -44 51 -103t17 -127v-38q0 -16 -9 -25.5t-26 -9.5h-265q-78 0 -125 -29q-63 -37 -63 -122q0 -82 58 -125
q52 -39 139 -39q42 0 77 5t76 21q9 4 19 4q18 0 29 -20l2 -3q5 -9 5 -19q0 -19 -18 -29q-38 -20 -91 -33q-49 -11 -96 -11q-131 0 -206 60q-80 64 -80 180q0 131 90 194q71 49 185 49h213z" />
    <glyph glyph-name="uni062E" unicode="&#x62e;" horiz-adv-x="624" 
d="M488 83q0 120 -63 180q-56 52 -150 52q-27 0 -77 -8q-4 -1 -10 -1q-13 0 -20.5 8.5t-7.5 23.5v9q0 32 29 39q48 13 96 13q74 0 129.5 -25t91.5 -71q34 -44 51 -103t17 -127v-38q0 -16 -9 -25.5t-26 -9.5h-265q-78 0 -125 -29q-63 -37 -63 -122q0 -82 58 -125
q52 -39 139 -39q42 0 77 5t76 21q9 4 19 4q18 0 29 -20l2 -3q5 -9 5 -19q0 -19 -18 -29q-38 -20 -91 -33q-49 -11 -96 -11q-131 0 -206 60q-80 64 -80 180q0 131 90 194q71 49 185 49h213zM255.5 590.5q15.5 15.5 37.5 15.5t37.5 -15.5t15.5 -37.5t-15.5 -37.5t-37.5 -15.5
t-37.5 15.5t-15.5 37.5t15.5 37.5z" />
    <glyph glyph-name="uni062F" unicode="&#x62f;" horiz-adv-x="447" 
d="M364 30.5q-34 -30.5 -95 -30.5h-204q-16 0 -25.5 9.5t-9.5 25.5v13q0 17 9.5 26t25.5 9h197q34 0 43 11t9 23t-4 21q-6 14 -19 36l-45 68l-61 88q-8 11 -8 22q0 17 18 27l17 10q10 7 20 7q18 0 28 -19q13 -23 52 -85q62 -100 77 -136q9 -24 9 -46q0 -49 -34 -79.5z" />
    <glyph glyph-name="uni0630" unicode="&#x630;" horiz-adv-x="447" 
d="M364 30.5q-34 -30.5 -95 -30.5h-204q-16 0 -25.5 9.5t-9.5 25.5v13q0 17 9.5 26t25.5 9h197q34 0 43 11t9 23t-4 21q-6 14 -19 36l-45 68l-61 88q-8 11 -8 22q0 17 18 27l17 10q10 7 20 7q18 0 28 -19q13 -23 52 -85q62 -100 77 -136q9 -24 9 -46q0 -49 -34 -79.5z
M159.5 590.5q15.5 15.5 37.5 15.5t37.5 -15.5t15.5 -37.5t-15.5 -37.5t-37.5 -15.5t-37.5 15.5t-15.5 37.5t15.5 37.5z" />
    <glyph glyph-name="uni0631" unicode="&#x631;" horiz-adv-x="293" 
d="M142 300q0 17 9.5 26t25.5 9h11q17 0 26 -9t9 -26v-244q0 -79 -9 -128t-32 -78q-20 -26 -54.5 -40t-85.5 -18q-17 -1 -26.5 8.5t-9.5 26.5v13q0 31 35 36q32 3 52.5 13.5t30.5 29.5q12 21 15 52.5t3 95.5v233z" />
    <glyph glyph-name="uni0632" unicode="&#x632;" horiz-adv-x="293" 
d="M142 300q0 17 9.5 26t25.5 9h11q17 0 26 -9t9 -26v-244q0 -79 -9 -128t-32 -78q-20 -26 -54.5 -40t-85.5 -18q-17 -1 -26.5 8.5t-9.5 26.5v13q0 31 35 36q32 3 52.5 13.5t30.5 29.5q12 21 15 52.5t3 95.5v233zM145.5 590.5q15.5 15.5 37.5 15.5t37.5 -15.5t15.5 -37.5
t-15.5 -37.5t-37.5 -15.5t-37.5 15.5t-15.5 37.5t15.5 37.5z" />
    <glyph glyph-name="uni0633" unicode="&#x633;" horiz-adv-x="1145" 
d="M549 12q0 -128 -70 -187.5t-204 -59.5q-137 0 -206 60.5t-69 178.5v119q0 17 9.5 26t25.5 9h11q17 0 26 -9t9 -26v-102q0 -94 50 -135q45 -39 146 -39q53 0 88 7.5t58 25.5q23 19 34 51t11 82v287q0 17 9.5 26t25.5 9h11q17 0 26 -9t9 -26v-107q0 -57 17 -80
q11 -15 30 -22.5t51 -7.5q26 0 43 2.5t28 9.5q22 15 22 61v144q0 17 9.5 26t25.5 9h12q17 0 26 -9t9 -26v-107q0 -55 17 -80q19 -30 69 -30h84v267q0 17 9.5 26t25.5 9h12q17 0 26 -9t9 -26v-315q0 -16 -9 -25.5t-26 -9.5h-131q-37 0 -61 18t-33 47q-17 -39 -53.5 -52
t-102.5 -13q-82 0 -109 49v-37z" />
    <glyph glyph-name="uni0634" unicode="&#x634;" horiz-adv-x="1145" 
d="M549 12q0 -128 -70 -187.5t-204 -59.5q-137 0 -206 60.5t-69 178.5v119q0 17 9.5 26t25.5 9h11q17 0 26 -9t9 -26v-102q0 -94 50 -135q45 -39 146 -39q53 0 88 7.5t58 25.5q23 19 34 51t11 82v287q0 17 9.5 26t25.5 9h11q17 0 26 -9t9 -26v-107q0 -57 17 -80
q11 -15 30 -22.5t51 -7.5q26 0 43 2.5t28 9.5q22 15 22 61v144q0 17 9.5 26t25.5 9h12q17 0 26 -9t9 -26v-107q0 -55 17 -80q19 -30 69 -30h84v267q0 17 9.5 26t25.5 9h12q17 0 26 -9t9 -26v-315q0 -16 -9 -25.5t-26 -9.5h-131q-37 0 -61 18t-33 47q-17 -39 -53.5 -52
t-102.5 -13q-82 0 -109 49v-37zM678.5 590.5q15.5 15.5 37.5 15.5t37.5 -15.5t15.5 -37.5t-15.5 -37.5t-37.5 -15.5t-37.5 15.5t-15.5 37.5t15.5 37.5zM808.5 590.5q15.5 15.5 37.5 15.5t37.5 -15.5t15.5 -37.5t-15.5 -37.5t-37.5 -15.5t-37.5 15.5t-15.5 37.5t15.5 37.5z
M745.5 710.5q15.5 15.5 37.5 15.5t37.5 -15.5t15.5 -37.5t-15.5 -37.5t-37.5 -15.5t-37.5 15.5t-15.5 37.5t15.5 37.5z" />
    <glyph glyph-name="uni0635" unicode="&#x635;" horiz-adv-x="1298" 
d="M714 196.5q34 56.5 79 100.5q49 48 108 75t125 27q102 0 157 -59.5t55 -170.5v-134q0 -16 -9 -25.5t-26 -9.5h-524q-61 0 -90 15q-29 14 -40 34v-37q0 -128 -70 -187.5t-204 -59.5q-137 0 -206 60.5t-69 178.5v119q0 17 9.5 26t25.5 9h11q17 0 26 -9t9 -26v-102
q0 -94 50 -135q45 -39 146 -39q53 0 88 7.5t58 25.5q23 19 34 51t11 82v287q0 17 9.5 26t25.5 9h11q17 0 26 -9t9 -26v-107q0 -28 4 -47.5t14 -32.5q24 -30 93 -30q20 57 54 113.5zM1156 83v67q0 79 -32 119q-36 46 -111 46q-46 0 -88 -20t-77 -55q-33 -32 -59 -73t-41 -84
h408z" />
    <glyph glyph-name="uni0636" unicode="&#x636;" horiz-adv-x="1298" 
d="M714 196.5q34 56.5 79 100.5q49 48 108 75t125 27q102 0 157 -59.5t55 -170.5v-134q0 -16 -9 -25.5t-26 -9.5h-524q-61 0 -90 15q-29 14 -40 34v-37q0 -128 -70 -187.5t-204 -59.5q-137 0 -206 60.5t-69 178.5v119q0 17 9.5 26t25.5 9h11q17 0 26 -9t9 -26v-102
q0 -94 50 -135q45 -39 146 -39q53 0 88 7.5t58 25.5q23 19 34 51t11 82v287q0 17 9.5 26t25.5 9h11q17 0 26 -9t9 -26v-107q0 -28 4 -47.5t14 -32.5q24 -30 93 -30q20 57 54 113.5zM1156 83v67q0 79 -32 119q-36 46 -111 46q-46 0 -88 -20t-77 -55q-33 -32 -59 -73t-41 -84
h408zM977.5 590.5q15.5 15.5 37.5 15.5t37.5 -15.5t15.5 -37.5t-15.5 -37.5t-37.5 -15.5t-37.5 15.5t-15.5 37.5t15.5 37.5z" />
    <glyph glyph-name="uni0637" unicode="&#x637;" horiz-adv-x="771" 
d="M629 83v67q0 78 -31 117q-38 48 -112 48q-86 0 -163 -77q-62 -63 -97 -155h403zM217 705q9 -9 9 -26v-454q106 174 279 174q97 0 151.5 -60.5t54.5 -169.5v-134q0 -16 -9 -25.5t-26 -9.5h-624q-16 0 -25.5 9.5t-9.5 25.5v13q0 17 9.5 26t25.5 9h92v596q0 17 9.5 26
t25.5 9h12q17 0 26 -9z" />
    <glyph glyph-name="uni0638" unicode="&#x638;" horiz-adv-x="771" 
d="M629 83v67q0 78 -31 117q-38 48 -112 48q-86 0 -163 -77q-62 -63 -97 -155h403zM217 705q9 -9 9 -26v-454q106 174 279 174q97 0 151.5 -60.5t54.5 -169.5v-134q0 -16 -9 -25.5t-26 -9.5h-624q-16 0 -25.5 9.5t-9.5 25.5v13q0 17 9.5 26t25.5 9h92v596q0 17 9.5 26
t25.5 9h12q17 0 26 -9zM473.5 590.5q15.5 15.5 37.5 15.5t37.5 -15.5t15.5 -37.5t-15.5 -37.5t-37.5 -15.5t-37.5 15.5t-15.5 37.5t15.5 37.5z" />
    <glyph glyph-name="uni0639" unicode="&#x639;" horiz-adv-x="511" 
d="M142.5 124.5q-14.5 33.5 -14.5 75.5q0 50 19 88.5t52 64.5q31 24 69 36.5t78 12.5q39 0 69 -5q29 -6 29 -39v-18q0 -15 -7 -23t-20 -8q-7 0 -11 1q-27 5 -57 5q-63 0 -100 -31t-37 -85q0 -53 32.5 -84.5t96.5 -31.5h123q17 0 26 -9t9 -26v-13q0 -16 -9 -25.5t-26 -9.5
h-190q-78 0 -125 -30q-63 -39 -63 -121q0 -80 58 -123q53 -41 139 -41q42 0 77 5t76 21q9 4 19 4q18 0 29 -20l2 -3q5 -9 5 -19q0 -19 -18 -29q-38 -20 -91 -33q-49 -11 -96 -11q-130 0 -206 61q-80 64 -80 179q0 94 51 156q48 58 130 77q-24 18 -38.5 51.5z" />
    </font>
</defs>
</svg>
